{"glyphs":{"0":{"ha":742,"x_min":44,"x_max":697,"o":"m 697 384 q 697 294 697 384 q 609 96 697 204 q 366 -12 521 -12 q 128 88 211 -12 q 44 369 44 189 q 133 658 44 549 q 376 767 221 767 q 614 665 531 767 q 697 384 697 564 m 385 61 q 504 110 465 61 q 546 213 529 142 q 563 367 563 283 q 510 601 563 510 q 357 693 458 693 q 238 644 276 693 q 196 542 213 613 q 179 388 179 471 q 231 153 179 244 q 385 61 283 61 z "},"1":{"ha":492,"x_min":53,"x_max":457,"o":"m 71 0 l 63 54 q 169 83 142 67 q 197 133 197 100 l 197 560 q 191 643 197 629 q 158 657 185 657 q 64 650 131 657 l 53 703 q 178 740 94 721 q 307 760 261 758 l 322 746 l 322 100 q 330 78 322 83 q 350 71 338 74 l 457 54 l 451 0 l 71 0 z "},"2":{"ha":657,"x_min":42,"x_max":607,"o":"m 42 0 l 42 74 q 331 325 286 272 q 415 451 404 411 q 426 526 426 492 q 385 646 426 599 q 272 693 343 693 q 175 672 201 693 q 143 522 158 658 l 68 531 q 57 635 57 581 q 58 703 57 689 q 280 767 139 767 q 491 707 421 767 q 561 545 561 647 q 475 340 561 443 q 201 108 389 238 l 204 99 l 288 101 q 490 112 467 107 q 542 219 513 117 l 606 214 q 607 172 607 201 q 585 0 607 76 l 42 0 z "},"3":{"ha":651,"x_min":60,"x_max":603,"o":"m 76 -192 l 69 -114 q 352 -27 247 -90 q 457 135 457 36 q 408 239 457 200 q 261 278 360 278 q 189 272 224 278 l 193 339 q 369 416 314 358 q 425 542 425 474 q 385 651 425 610 q 278 693 346 693 q 169 661 188 693 q 146 522 153 635 l 72 531 q 60 641 60 593 q 61 703 60 689 q 285 767 158 767 q 484 715 411 767 q 557 585 557 664 q 518 451 557 506 q 419 369 479 397 l 421 358 q 551 294 500 343 q 603 163 603 246 q 457 -72 603 24 q 76 -192 311 -168 z "},"4":{"ha":742,"x_min":11,"x_max":728,"o":"m 43 63 l 11 147 l 451 742 q 571 760 529 760 l 586 746 l 586 143 l 728 140 l 715 61 l 586 61 l 586 -169 q 476 -178 542 -178 l 461 -164 l 461 61 l 44 61 l 43 63 m 110 160 l 115 150 l 461 144 l 461 579 q 464 621 461 608 l 456 625 l 135 190 q 110 160 124 174 z "},"5":{"ha":669,"x_min":69,"x_max":631,"o":"m 76 -192 l 69 -114 q 374 -17 263 -89 q 486 161 486 56 q 435 274 486 228 q 294 321 385 321 q 118 289 204 321 l 88 325 l 118 746 l 474 746 q 485 750 481 746 q 511 847 496 764 l 582 838 q 563 633 576 707 l 201 633 l 185 385 q 339 408 254 408 q 553 349 476 408 q 631 189 631 290 q 478 -63 631 43 q 76 -192 325 -169 z "},"6":{"ha":717,"x_min":63,"x_max":667,"o":"m 405 585 q 459 585 405 585 q 590 503 514 585 q 667 294 667 422 q 582 76 667 165 q 359 -12 497 -12 q 142 83 221 -12 q 63 342 63 179 q 206 731 63 567 q 551 944 349 894 l 579 888 q 214 497 274 760 l 225 493 q 405 585 296 585 m 482 94 q 535 261 535 151 q 494 430 535 371 q 393 489 454 489 q 317 479 364 489 q 240 449 271 469 q 194 353 194 418 q 388 56 194 56 q 482 94 446 56 z "},"7":{"ha":625,"x_min":32,"x_max":611,"o":"m 143 -168 q 274 210 165 -31 q 515 633 382 450 l 513 643 l 267 639 q 142 633 174 636 q 123 613 131 632 q 99 522 115 594 l 35 529 q 32 634 32 574 q 40 746 32 694 l 611 746 l 611 663 q 289 -186 315 201 q 249 -190 274 -190 q 143 -168 178 -190 z "},"8":{"ha":721,"x_min":44,"x_max":676,"o":"m 79 688 q 158 869 79 799 q 361 940 238 940 q 533 900 443 940 q 611 832 581 878 q 642 722 642 786 q 533 517 642 597 q 482 494 501 494 l 482 482 q 504 475 490 482 q 632 379 588 432 q 676 247 676 326 q 587 60 676 132 q 353 -12 497 -12 q 161 25 256 -12 q 77 93 110 46 q 44 207 44 140 q 179 432 44 342 q 232 454 217 454 l 232 467 q 210 474 224 467 q 79 688 79 553 m 352 871 q 314 871 352 871 q 238 824 275 871 q 200 728 200 776 q 216 649 200 679 q 267 594 232 619 q 408 518 324 554 q 525 710 525 597 q 477 829 525 788 q 352 871 429 871 m 365 64 q 411 64 365 64 q 501 110 457 64 q 546 207 546 157 q 528 289 546 257 q 471 346 510 321 q 322 419 411 385 q 308 425 313 424 q 243 382 285 417 q 161 228 161 311 q 217 105 161 146 q 365 64 272 64 z "},"9":{"ha":717,"x_min":50,"x_max":654,"o":"m 316 174 q 261 174 316 174 q 128 256 206 174 q 50 464 50 338 q 135 678 50 590 q 357 767 221 767 q 574 669 493 767 q 654 410 654 571 q 538 35 654 213 q 375 -116 479 -54 q 136 -190 271 -178 l 126 -128 q 376 -1 288 -90 q 503 250 465 89 l 492 254 q 316 174 426 174 m 335 699 q 220 640 258 699 q 182 483 182 582 q 233 326 182 383 q 351 269 283 269 q 475 300 418 269 q 515 351 508 318 q 524 433 524 385 q 477 626 524 553 q 335 699 431 699 z "}," ":{"ha":340,"x_min":0,"x_max":0,"o":""},"!":{"ha":314,"x_min":56,"x_max":249,"o":"m 232 976 l 249 950 l 176 246 l 107 249 l 89 935 l 232 976 m 215 64 q 194 10 215 32 q 137 -12 172 -12 q 78 7 101 -12 q 56 61 56 26 q 77 117 56 96 q 136 138 99 138 q 215 64 215 138 z "},"\"":{"ha":460,"x_min":68,"x_max":401,"o":"m 174 1081 l 192 1054 l 135 714 l 75 718 l 68 1046 l 174 1081 m 383 1081 l 401 1054 l 344 714 l 285 718 l 278 1046 l 383 1081 z "},"#":{"ha":765,"x_min":49,"x_max":715,"o":"m 269 963 l 350 963 l 313 683 l 496 683 l 533 963 l 614 963 l 576 683 l 715 683 l 715 601 l 567 601 l 539 390 l 686 390 l 686 308 l 529 308 l 489 0 l 407 0 l 447 308 l 265 308 l 225 0 l 143 0 l 183 308 l 49 308 l 49 390 l 194 390 l 222 601 l 78 601 l 78 683 l 232 683 l 269 963 m 303 601 l 275 390 l 458 390 l 486 601 l 303 601 z "},"$":{"ha":667,"x_min":76,"x_max":599,"o":"m 575 728 q 576 660 576 715 q 557 535 576 604 l 488 526 q 454 671 478 654 q 372 690 428 688 l 372 446 q 581 300 544 374 q 599 217 599 263 q 538 72 599 133 q 372 -7 478 10 l 372 -178 l 293 -178 l 293 -12 q 79 25 161 -10 q 76 100 76 46 q 89 244 76 154 l 168 251 q 186 122 181 144 q 204 92 192 99 q 293 65 233 74 l 293 324 q 97 467 133 390 q 79 547 79 501 q 137 686 79 629 q 293 760 194 743 l 293 928 l 372 928 l 372 767 q 575 728 476 765 m 293 689 q 190 596 190 679 q 293 481 190 528 l 293 689 m 372 64 q 449 94 421 68 q 478 165 478 121 q 372 289 478 235 l 372 64 z "},"%":{"ha":1122,"x_min":35,"x_max":1088,"o":"m 1088 282 q 1088 222 1088 282 q 1023 75 1088 163 q 851 -12 958 -12 q 684 69 744 -12 q 624 270 624 150 q 688 478 624 390 q 860 565 753 565 q 1027 483 967 565 q 1088 282 1088 401 m 974 256 q 940 440 974 374 q 850 506 906 506 q 738 288 738 506 q 772 108 738 168 q 864 47 806 47 q 974 256 974 47 m 818 963 l 908 963 l 289 0 l 197 0 l 818 963 m 499 692 q 499 632 499 692 q 434 485 499 572 q 263 397 369 397 q 95 478 156 397 q 35 680 35 560 q 99 888 35 800 q 271 975 164 975 q 438 893 378 975 q 499 692 499 811 m 385 665 q 351 849 385 783 q 261 915 317 915 q 149 697 149 915 q 183 517 149 578 q 275 457 217 457 q 385 665 385 457 z "},"&":{"ha":951,"x_min":56,"x_max":924,"o":"m 367 901 q 243 788 243 901 q 268 698 243 743 q 368 572 293 653 l 657 260 q 719 499 719 375 q 694 572 719 551 q 586 603 669 593 l 594 657 l 911 657 l 917 603 l 831 586 q 803 550 803 581 q 711 201 796 347 l 811 94 q 924 54 846 60 l 915 0 l 715 0 l 626 94 q 346 -12 513 -12 q 133 56 210 -12 q 56 228 56 124 q 247 508 56 425 q 133 740 133 631 q 205 913 133 850 q 394 975 276 975 q 572 940 482 975 q 574 878 574 929 q 556 769 574 826 l 492 763 q 460 886 482 871 q 367 901 439 901 m 200 271 q 250 131 200 186 q 397 75 300 75 q 576 150 494 75 l 299 451 q 200 271 200 394 z "},"'":{"ha":250,"x_min":68,"x_max":192,"o":"m 174 1081 l 192 1054 l 135 714 l 75 718 l 68 1046 l 174 1081 z "},"(":{"ha":404,"x_min":58,"x_max":388,"o":"m 340 -262 q 145 26 232 -154 q 58 406 58 207 q 146 778 58 606 q 340 1057 233 951 l 388 1018 q 233 742 293 908 q 172 407 172 576 q 232 63 172 238 q 388 -224 292 -111 l 340 -262 z "},")":{"ha":404,"x_min":17,"x_max":346,"o":"m 64 -262 l 17 -224 q 172 63 113 -111 q 232 407 232 238 q 172 742 232 576 q 17 1018 111 908 l 64 1057 q 258 778 171 951 q 346 406 346 606 q 259 26 346 207 q 64 -262 172 -154 z "},"*":{"ha":543,"x_min":35,"x_max":508,"o":"m 308 1033 l 321 1017 l 299 858 q 288 817 293 825 l 297 811 q 325 843 306 828 l 443 931 l 508 875 l 501 857 l 354 796 q 313 785 328 785 l 313 774 q 353 767 338 774 l 488 708 l 472 624 l 453 621 l 326 718 q 296 749 300 740 l 286 743 q 300 703 299 718 l 318 557 l 236 528 l 224 543 l 246 701 q 257 743 251 735 l 247 749 q 218 717 239 731 l 101 629 l 35 685 l 42 703 l 190 763 q 232 774 217 774 l 232 785 q 190 793 214 785 l 56 850 l 71 936 l 90 939 l 217 840 q 247 810 243 818 l 257 815 q 244 857 246 838 l 226 1003 l 308 1033 z "},"+":{"ha":647,"x_min":63,"x_max":585,"o":"m 63 339 l 63 413 l 289 413 l 289 644 l 358 644 l 358 413 l 585 413 l 585 339 l 358 339 l 358 101 l 289 101 l 289 339 l 63 339 z "},",":{"ha":350,"x_min":89,"x_max":263,"o":"m 126 -190 l 89 -154 q 146 -29 146 -86 q 122 32 146 3 q 97 90 97 61 q 120 138 97 118 q 178 157 143 157 q 238 127 213 157 q 263 43 263 97 q 126 -190 263 -82 z "},"-":{"ha":410,"x_min":47,"x_max":367,"o":"m 64 385 l 367 404 l 344 318 l 47 282 l 64 385 z "},".":{"ha":350,"x_min":90,"x_max":260,"o":"m 260 74 q 236 13 260 38 q 175 -12 213 -12 q 114 9 138 -12 q 90 69 90 31 q 113 132 90 107 q 174 157 136 157 q 260 74 260 157 z "},"/":{"ha":543,"x_min":21,"x_max":522,"o":"m 426 1072 l 522 1072 l 118 -83 l 21 -83 l 426 1072 z "},":":{"ha":350,"x_min":90,"x_max":260,"o":"m 260 594 q 236 533 260 558 q 175 508 213 508 q 114 530 138 508 q 90 590 90 551 q 113 653 90 628 q 174 678 136 678 q 260 594 260 678 m 260 74 q 236 13 260 38 q 175 -12 213 -12 q 114 9 138 -12 q 90 69 90 31 q 113 132 90 107 q 174 157 136 157 q 260 74 260 157 z "},";":{"ha":350,"x_min":89,"x_max":263,"o":"m 260 594 q 236 533 260 558 q 175 508 213 508 q 114 530 138 508 q 90 590 90 551 q 113 653 90 628 q 174 678 136 678 q 260 594 260 678 m 126 -190 l 89 -154 q 146 -29 146 -86 q 122 32 146 3 q 97 90 97 61 q 120 138 97 118 q 178 157 143 157 q 238 127 213 157 q 263 43 263 97 q 126 -190 263 -82 z "},"<":{"ha":718,"x_min":36,"x_max":681,"o":"m 36 313 l 36 382 l 681 701 l 681 606 l 144 347 l 681 90 l 681 -6 l 36 313 z "},"=":{"ha":647,"x_min":63,"x_max":585,"o":"m 63 240 l 63 314 l 585 314 l 585 240 l 63 240 m 63 431 l 63 504 l 585 504 l 585 431 l 63 431 z "},">":{"ha":718,"x_min":36,"x_max":681,"o":"m 681 382 l 681 313 l 36 -6 l 36 90 l 572 347 l 36 606 l 36 701 l 681 382 z "},"?":{"ha":589,"x_min":49,"x_max":556,"o":"m 276 283 l 211 264 q 147 411 147 353 q 250 547 147 481 q 333 604 292 575 q 405 675 375 633 q 435 776 435 717 q 385 868 435 835 q 271 901 336 901 q 164 879 206 901 q 147 853 153 874 q 135 756 142 832 l 60 764 q 49 855 49 807 q 50 917 49 903 q 160 958 90 940 q 294 975 229 975 q 482 919 408 975 q 556 758 556 863 q 534 658 556 704 q 480 583 513 613 q 409 525 447 554 q 339 475 371 496 q 263 367 263 425 q 276 283 263 339 m 329 67 q 308 10 329 32 q 251 -12 286 -12 q 192 8 215 -12 q 169 63 169 28 q 191 117 169 97 q 251 138 213 138 q 329 67 329 138 z "},"@":{"ha":1104,"x_min":43,"x_max":1061,"o":"m 43 257 q 200 662 43 504 q 604 819 357 819 q 931 719 801 819 q 1061 429 1061 619 q 1017 215 1061 329 q 892 18 974 100 q 726 -1 746 3 q 665 90 665 8 q 672 163 665 117 l 681 221 l 671 224 q 442 3 583 3 q 292 226 292 3 q 379 516 292 400 q 596 632 467 632 q 735 606 656 632 l 790 619 l 817 603 q 797 486 815 590 q 761 190 761 265 q 770 92 761 114 q 810 69 779 69 q 872 111 842 69 q 919 213 903 153 q 956 431 956 342 q 855 658 956 565 q 583 750 754 750 q 389 709 474 750 q 256 599 304 668 q 157 268 157 461 q 519 -94 157 -94 q 686 -67 569 -94 q 694 -93 686 -75 q 701 -122 701 -111 l 689 -139 q 475 -168 542 -168 q 151 -53 258 -168 q 43 257 43 61 m 476 88 q 573 160 524 88 q 653 335 622 233 q 689 525 685 438 q 558 561 617 561 q 481 540 499 561 q 431 411 451 504 q 410 235 410 318 q 476 88 410 88 z "},"A":{"ha":931,"x_min":10,"x_max":924,"o":"m 19 0 l 10 56 q 74 78 63 69 q 97 115 86 86 l 408 975 l 524 975 l 842 93 q 924 58 849 72 l 918 0 l 594 0 l 586 56 q 683 101 683 75 q 678 131 683 113 l 617 311 l 257 311 l 186 114 q 181 91 181 97 q 189 83 181 85 l 288 57 l 282 0 l 19 0 m 283 385 l 593 385 l 457 775 q 447 815 447 804 l 433 815 l 283 385 z "},"B":{"ha":860,"x_min":61,"x_max":811,"o":"m 69 0 l 61 54 q 151 82 135 67 q 167 140 167 97 l 167 822 q 151 881 167 865 q 61 908 135 896 l 69 963 l 436 963 q 668 902 588 963 q 749 733 749 842 q 702 588 749 647 q 603 513 656 529 l 603 503 q 751 419 692 486 q 811 258 811 353 q 728 81 811 163 q 475 0 646 0 l 69 0 m 301 532 l 379 532 q 547 581 493 532 q 600 717 600 631 q 394 889 600 889 l 301 889 l 301 532 m 301 135 q 322 86 301 94 q 407 72 343 72 q 599 119 540 72 q 657 256 657 167 q 553 433 657 385 q 436 458 501 458 l 301 458 l 301 135 z "},"C":{"ha":861,"x_min":49,"x_max":828,"o":"m 49 460 q 114 742 49 618 q 343 944 190 888 q 519 975 428 975 q 696 961 611 975 q 807 936 781 947 q 815 828 815 885 q 813 703 815 772 l 733 692 q 679 869 703 853 q 615 890 667 879 q 511 901 563 901 q 281 789 358 901 q 203 493 203 676 q 301 171 203 276 q 546 65 400 65 q 645 78 599 65 q 706 101 692 90 q 751 278 721 113 l 828 275 q 813 50 828 169 q 683 7 769 26 q 506 -12 596 -12 q 164 121 279 -12 q 49 460 49 254 z "},"D":{"ha":990,"x_min":61,"x_max":942,"o":"m 69 0 l 61 54 q 151 82 135 67 q 167 140 167 97 l 167 822 q 151 881 167 865 q 61 908 135 896 l 69 963 l 504 963 q 711 924 624 963 q 847 819 799 886 q 942 511 942 692 q 836 165 942 313 q 690 45 783 90 q 474 0 596 0 l 69 0 m 301 129 q 331 93 301 99 q 478 74 428 74 q 710 183 632 74 q 788 476 788 293 q 758 676 788 592 q 678 806 728 761 q 472 889 583 889 l 301 889 l 301 129 z "},"E":{"ha":822,"x_min":61,"x_max":761,"o":"m 69 0 l 61 54 q 151 82 135 67 q 167 140 167 97 l 167 822 q 151 881 167 865 q 61 908 135 896 l 69 963 l 717 963 q 725 860 725 911 q 722 746 725 810 l 643 736 q 615 856 624 832 q 596 882 607 881 q 511 888 563 886 l 301 892 l 301 518 l 510 518 q 554 617 528 518 l 597 613 q 601 471 597 511 q 605 422 604 431 q 610 382 606 414 q 617 338 615 350 l 567 329 q 537 426 544 408 q 519 444 529 444 l 301 444 l 301 71 l 425 72 q 617 89 582 72 q 622 92 621 92 q 683 256 646 99 l 760 249 q 761 165 761 225 q 746 0 761 104 l 69 0 z "},"F":{"ha":758,"x_min":61,"x_max":725,"o":"m 69 0 l 61 54 q 151 82 135 67 q 167 140 167 97 l 167 822 q 151 881 167 865 q 61 908 135 896 l 69 963 l 717 963 q 725 860 725 911 q 722 746 725 810 l 643 736 q 615 856 624 832 q 596 882 607 881 q 511 888 563 886 l 301 892 l 301 506 l 515 506 q 576 604 550 506 l 619 600 q 623 458 619 499 q 627 410 626 418 q 633 369 628 401 q 639 325 638 338 l 589 317 q 525 432 556 432 l 301 432 l 301 107 q 329 71 301 74 l 469 54 l 464 0 l 69 0 z "},"G":{"ha":946,"x_min":49,"x_max":914,"o":"m 815 51 q 683 8 769 28 q 506 -12 596 -12 q 164 121 279 -12 q 49 460 49 254 q 114 742 49 618 q 343 944 190 888 q 519 975 428 975 q 696 961 611 975 q 807 936 781 947 q 815 828 815 885 q 813 703 815 772 l 733 692 q 679 869 703 853 q 615 890 667 879 q 511 901 563 901 q 281 789 358 901 q 203 493 203 676 q 301 171 203 276 q 546 65 400 65 q 681 88 622 65 l 681 281 q 665 339 681 324 q 575 367 649 354 l 583 421 l 908 421 l 914 367 l 843 350 q 815 314 815 344 l 815 51 z "},"H":{"ha":1065,"x_min":61,"x_max":1013,"o":"m 69 0 l 61 54 q 151 82 135 67 q 167 140 167 97 l 167 822 q 151 881 167 865 q 61 908 135 896 l 69 963 l 410 963 l 415 908 l 329 892 q 301 856 301 886 l 301 538 l 764 538 l 764 822 q 748 881 764 865 q 658 908 732 896 l 667 963 l 1007 963 l 1013 908 l 926 892 q 899 856 899 886 l 899 107 q 926 71 899 76 l 1013 54 l 1007 0 l 667 0 l 658 54 q 748 82 732 67 q 764 140 764 97 l 764 454 l 301 454 l 301 107 q 329 71 301 76 l 415 54 l 410 0 l 69 0 z "},"I":{"ha":468,"x_min":61,"x_max":415,"o":"m 69 0 l 61 54 q 151 82 135 67 q 167 140 167 97 l 167 822 q 151 881 167 865 q 61 908 135 896 l 69 963 l 410 963 l 415 908 l 329 892 q 301 856 301 886 l 301 107 q 329 71 301 76 l 415 54 l 410 0 l 69 0 z "},"J":{"ha":467,"x_min":-33,"x_max":432,"o":"m 304 864 l 304 178 q 233 -57 304 51 q 86 -165 161 -165 q -29 -154 26 -165 q -33 -106 -33 -137 q -7 -32 -33 -74 q 85 -47 58 -47 q 129 -36 111 -47 q 169 219 169 -8 l 169 822 q 148 879 169 864 q 50 908 126 894 l 58 963 l 426 963 l 432 908 l 332 892 q 304 864 304 886 z "},"K":{"ha":906,"x_min":61,"x_max":906,"o":"m 69 0 l 61 54 q 151 82 135 67 q 167 140 167 97 l 167 822 q 151 881 167 865 q 61 908 135 896 l 69 963 l 410 963 l 415 908 l 329 892 q 301 856 301 886 l 301 489 l 636 844 q 657 878 657 865 q 551 907 657 903 l 560 963 l 854 963 l 860 904 q 775 869 810 904 q 762 856 771 865 q 751 844 753 846 l 443 517 l 778 111 q 827 71 800 83 q 906 54 854 58 l 897 0 l 686 0 l 349 415 l 301 365 l 301 107 q 329 71 301 76 l 406 54 l 400 0 l 69 0 z "},"L":{"ha":775,"x_min":61,"x_max":761,"o":"m 69 0 l 61 54 q 151 82 135 67 q 167 140 167 97 l 167 822 q 151 881 167 865 q 61 908 135 896 l 69 963 l 410 963 l 415 908 l 329 892 q 301 856 301 886 l 301 71 l 425 72 q 606 82 579 75 q 683 296 628 89 l 760 289 q 761 192 761 265 q 746 0 761 119 l 69 0 z "},"M":{"ha":1268,"x_min":51,"x_max":1215,"o":"m 60 0 l 51 54 q 147 83 126 68 q 167 140 167 99 l 167 822 q 151 881 167 865 q 61 908 135 896 l 69 963 l 361 963 l 628 232 q 638 197 635 210 l 651 197 q 658 225 653 213 l 929 963 l 1181 963 l 1186 908 l 1128 892 q 1101 860 1101 883 l 1101 107 q 1129 71 1101 76 l 1215 54 l 1210 0 l 867 0 l 858 54 q 947 81 926 67 q 967 129 967 96 l 967 764 q 971 817 967 796 l 960 817 l 667 28 l 567 28 l 271 819 l 260 819 l 260 139 q 273 89 260 106 q 321 67 286 72 l 389 54 l 383 0 l 60 0 z "},"N":{"ha":1076,"x_min":61,"x_max":1026,"o":"m 69 0 l 61 54 q 151 82 135 67 q 167 140 167 97 l 167 822 q 151 881 167 865 q 61 908 135 896 l 69 963 l 176 963 l 258 963 l 335 963 l 810 263 l 819 263 l 819 794 q 797 878 819 857 q 686 908 774 899 l 694 963 l 1021 963 l 1026 908 l 940 892 q 913 856 913 886 l 913 0 l 831 0 l 831 0 l 826 0 l 271 822 l 260 822 l 260 139 q 273 88 260 104 q 321 67 286 71 l 418 54 l 413 0 l 69 0 z "},"O":{"ha":988,"x_min":49,"x_max":939,"o":"m 487 -12 q 382 -12 487 -12 q 163 117 276 -12 q 49 473 49 247 q 169 837 49 699 q 501 975 290 975 q 825 848 711 975 q 939 495 939 721 q 818 128 939 269 q 487 -12 697 -12 m 506 61 q 637 96 581 61 q 725 192 693 131 q 785 489 785 310 q 706 785 785 668 q 482 901 628 901 q 351 867 407 901 q 264 774 294 833 q 203 480 203 658 q 281 181 203 301 q 506 61 358 61 z "},"P":{"ha":776,"x_min":61,"x_max":751,"o":"m 69 0 l 61 54 q 151 82 135 67 q 167 140 167 97 l 167 822 q 151 881 167 865 q 61 908 135 896 l 69 963 l 457 963 q 678 891 604 963 q 751 689 751 819 q 655 465 751 558 q 374 372 558 372 l 301 372 l 301 107 q 329 71 301 74 l 469 54 l 464 0 l 69 0 m 301 446 l 363 446 q 522 489 454 446 q 603 678 603 540 q 536 851 603 806 q 415 889 481 889 l 329 889 q 301 856 301 889 l 301 446 z "},"Q":{"ha":988,"x_min":49,"x_max":964,"o":"m 433 -10 q 149 133 249 6 q 49 480 49 261 q 169 837 49 699 q 501 975 290 975 q 825 848 711 975 q 939 506 939 721 q 863 192 939 321 q 649 14 788 63 l 649 8 q 744 -52 675 -1 q 846 -103 814 -103 q 932 -82 878 -103 l 964 -132 q 914 -169 933 -157 q 807 -211 857 -211 q 708 -181 757 -211 q 622 -115 658 -151 q 533 -47 585 -79 q 433 -10 482 -14 m 506 61 q 637 96 581 61 q 725 192 693 131 q 785 489 785 310 q 706 785 785 668 q 482 901 628 901 q 351 867 407 901 q 264 774 294 833 q 203 480 203 658 q 281 181 203 301 q 506 61 358 61 z "},"R":{"ha":878,"x_min":61,"x_max":872,"o":"m 69 0 l 61 54 q 151 82 135 67 q 167 140 167 97 l 167 822 q 151 881 167 865 q 61 908 135 896 l 69 963 l 456 963 q 676 901 604 963 q 749 736 749 840 q 692 555 749 632 q 532 443 635 478 l 532 436 q 563 406 546 432 l 758 111 q 799 69 779 81 q 872 54 819 58 l 864 0 l 667 0 l 392 422 l 301 422 l 301 107 q 329 71 301 76 l 406 54 l 400 0 l 69 0 m 301 493 l 378 493 q 544 541 488 493 q 600 717 600 589 q 413 889 600 889 l 329 889 q 301 856 301 889 l 301 493 z "},"S":{"ha":726,"x_min":49,"x_max":664,"o":"m 183 114 q 260 81 207 97 q 381 65 314 65 q 492 106 447 65 q 536 214 536 146 q 417 386 536 319 q 322 428 386 401 q 232 469 258 456 q 170 506 206 482 q 115 556 135 531 q 67 701 67 615 q 160 901 67 828 q 404 975 254 975 q 618 938 518 975 q 622 849 622 904 q 607 703 622 794 l 526 693 q 489 868 511 850 q 367 897 456 897 q 231 862 279 897 q 182 758 182 826 q 197 689 182 719 q 253 632 213 658 q 317 594 293 606 q 414 550 351 576 q 511 504 476 524 q 586 453 546 485 q 664 264 664 388 q 576 64 664 140 q 335 -12 488 -12 q 172 8 253 -12 q 53 47 90 28 q 49 126 49 64 q 65 278 49 189 l 144 282 q 163 153 156 182 q 183 114 171 124 z "},"T":{"ha":801,"x_min":10,"x_max":792,"o":"m 207 54 q 314 83 294 68 q 333 140 333 97 l 333 890 q 142 882 154 888 q 122 869 129 876 q 82 713 106 847 l 11 718 q 10 799 10 739 q 22 963 10 860 l 779 963 q 792 799 792 860 q 790 718 792 739 l 719 713 q 678 869 696 847 q 660 882 672 876 q 468 890 647 888 l 468 107 q 496 71 468 75 l 603 54 l 597 0 l 215 0 l 207 54 z "},"U":{"ha":1022,"x_min":54,"x_max":1004,"o":"m 797 796 q 774 878 797 857 q 664 908 751 899 l 672 963 l 999 963 l 1004 908 l 918 892 q 892 872 893 886 q 890 856 890 867 l 890 357 q 797 87 890 186 q 518 -12 704 -12 q 160 346 160 -12 l 160 822 q 144 881 160 865 q 54 908 128 896 l 63 963 l 403 963 l 408 908 l 322 892 q 294 856 294 886 l 294 367 q 353 153 294 225 q 542 81 411 81 q 735 158 674 81 q 797 346 797 236 l 797 796 z "},"V":{"ha":910,"x_min":4,"x_max":910,"o":"m 407 -12 l 97 847 q 71 885 86 876 q 4 907 56 894 l 14 963 l 344 963 l 350 906 l 251 879 q 242 872 242 878 q 247 849 242 865 l 461 219 q 474 172 474 185 l 488 172 l 704 790 q 724 861 724 844 q 622 907 724 888 l 631 963 l 904 963 l 910 904 q 838 879 853 893 q 808 826 822 865 l 503 -12 l 407 -12 z "},"W":{"ha":1292,"x_min":-6,"x_max":1301,"o":"m 821 -12 l 671 493 q 664 529 664 514 l 653 529 q 644 493 653 514 l 476 -12 l 378 -12 l 88 847 q 63 885 78 876 q -6 907 47 894 l 4 963 l 314 963 l 319 906 l 242 879 q 232 872 232 878 q 238 849 232 865 l 431 225 q 443 178 443 181 l 457 178 l 617 683 l 568 847 q 559 872 564 864 q 542 888 554 881 q 485 907 525 896 l 494 963 l 788 963 l 793 906 l 694 879 q 685 872 685 878 q 690 849 685 865 l 874 225 q 886 178 886 182 l 900 178 l 1094 790 q 1110 858 1110 842 q 1003 907 1110 889 l 1011 963 l 1296 963 l 1301 904 q 1228 878 1244 892 q 1199 826 1211 864 l 921 -12 l 821 -12 z "},"X":{"ha":888,"x_min":19,"x_max":888,"o":"m 29 0 l 19 56 q 95 79 76 71 q 131 113 114 88 l 376 474 l 128 847 q 94 886 108 876 q 33 907 79 896 l 43 963 l 374 963 l 379 906 l 286 881 q 276 870 276 879 q 286 849 276 861 l 444 613 q 458 575 458 592 l 472 575 l 626 800 q 661 864 661 849 q 643 888 661 879 q 576 907 625 896 l 585 963 l 856 963 l 861 904 q 832 897 844 900 q 809 890 819 894 q 793 883 799 885 q 781 872 788 881 q 772 862 774 864 q 762 848 769 860 q 751 832 754 836 l 522 497 l 793 94 q 888 58 808 74 l 882 0 l 547 0 l 539 56 q 612 78 603 68 q 621 99 621 88 q 611 125 621 110 l 456 356 q 442 397 442 376 l 428 397 l 236 117 q 225 91 225 101 q 239 76 225 81 l 304 57 l 299 0 l 29 0 z "},"Y":{"ha":831,"x_min":7,"x_max":832,"o":"m 443 501 l 597 800 q 626 868 626 856 q 609 888 626 881 q 543 907 592 896 l 551 963 l 826 963 l 832 904 q 747 877 771 892 q 707 829 724 863 l 488 399 l 488 107 q 515 71 488 75 l 622 54 l 617 0 l 235 0 l 226 54 q 333 83 314 68 q 353 140 353 97 l 353 388 l 103 847 q 70 887 85 878 q 7 907 56 896 l 17 963 l 343 963 l 349 906 l 256 881 q 246 872 246 879 q 256 849 246 865 l 415 542 q 429 501 429 518 l 443 501 z "},"Z":{"ha":843,"x_min":49,"x_max":796,"o":"m 167 708 l 79 718 q 76 835 76 776 q 89 963 76 894 l 796 963 l 796 926 l 265 113 q 235 81 247 86 l 238 72 l 446 72 q 626 82 593 72 q 704 296 649 89 l 781 289 q 782 192 782 265 q 767 0 782 119 l 49 0 l 49 36 l 578 850 q 608 882 596 876 l 606 892 l 472 892 q 224 883 282 892 q 167 708 203 882 z "},"[":{"ha":394,"x_min":97,"x_max":321,"o":"m 97 -228 l 97 1064 l 321 1064 l 321 990 l 194 990 l 194 -154 l 321 -154 l 321 -228 l 97 -228 z "},"\\":{"ha":543,"x_min":21,"x_max":522,"o":"m 21 1072 l 117 1072 l 522 -83 l 425 -83 l 21 1072 z "},"]":{"ha":394,"x_min":74,"x_max":297,"o":"m 297 1064 l 297 -228 l 74 -228 l 74 -154 l 200 -154 l 200 990 l 74 990 l 74 1064 l 297 1064 z "},"^":{"ha":696,"x_min":33,"x_max":663,"o":"m 285 963 l 392 963 l 663 450 l 568 450 l 338 885 l 128 450 l 33 450 l 285 963 z "},"_":{"ha":597,"x_min":-8,"x_max":606,"o":"m -8 -101 l 606 -101 l 606 -168 l -8 -168 l -8 -101 z "},"`":{"ha":281,"x_min":0,"x_max":260,"o":"m 0 989 l 0 1021 l 111 1063 l 260 814 l 211 779 l 0 989 z "},"a":{"ha":711,"x_min":58,"x_max":667,"o":"m 58 171 q 147 326 58 275 q 436 379 236 378 l 436 424 q 306 604 436 604 q 227 586 243 604 q 193 468 211 568 l 118 476 q 107 566 107 519 q 108 626 107 613 q 324 678 190 678 q 509 626 457 678 q 561 457 561 575 l 561 138 q 578 87 561 101 q 667 58 596 72 l 658 14 l 492 -4 q 463 22 478 -4 q 447 72 447 49 q 449 106 447 94 l 438 110 l 421 85 q 242 -12 356 -12 q 111 36 164 -12 q 58 171 58 85 m 193 183 q 219 108 193 133 q 294 82 246 82 q 404 129 343 82 q 436 182 436 154 l 436 318 q 252 285 311 315 q 193 183 193 254 z "},"b":{"ha":756,"x_min":10,"x_max":706,"o":"m 115 47 l 115 940 q 93 983 115 969 q 10 1008 71 996 l 18 1053 q 225 1072 167 1072 l 240 1058 l 240 668 q 231 560 240 592 l 242 556 l 256 574 q 449 678 336 678 q 633 588 561 678 q 706 342 706 499 q 623 86 706 185 q 385 -12 540 -12 q 235 7 311 -12 q 115 47 158 26 m 240 117 q 391 67 300 67 q 514 104 482 67 q 555 192 539 132 q 571 326 571 253 q 526 514 571 450 q 417 578 482 578 q 278 529 351 578 q 247 501 254 514 q 240 467 240 489 l 240 117 z "},"c":{"ha":650,"x_min":47,"x_max":618,"o":"m 114 561 q 216 647 149 615 q 383 678 283 678 q 579 639 482 678 q 581 567 581 628 q 564 449 581 507 l 486 440 q 444 589 464 581 q 340 601 415 601 q 231 550 265 601 q 182 341 182 476 q 241 144 182 206 q 395 82 300 82 q 579 143 490 82 l 618 97 q 353 -12 506 -12 q 124 83 201 -12 q 47 319 47 178 q 114 561 47 460 z "},"d":{"ha":790,"x_min":50,"x_max":746,"o":"m 500 92 q 307 -12 419 -12 q 122 77 194 -12 q 50 322 50 167 q 132 578 50 478 q 361 678 214 678 q 511 642 463 678 l 521 646 q 515 707 515 668 l 515 940 q 487 984 515 969 q 385 1008 458 999 l 393 1053 q 625 1072 542 1072 l 640 1058 l 640 136 q 658 85 640 100 q 746 57 675 71 l 738 13 l 571 -6 q 540 22 557 -6 q 524 72 524 50 q 525 106 524 94 l 514 110 l 500 92 m 185 356 q 185 287 185 356 q 228 153 185 218 q 339 88 272 88 q 478 135 406 88 q 515 199 515 160 l 515 531 q 338 599 458 599 q 243 560 278 599 q 185 356 185 494 z "},"e":{"ha":664,"x_min":47,"x_max":618,"o":"m 342 -12 q 124 83 201 -12 q 47 326 47 179 q 136 575 47 472 q 371 678 225 678 q 618 388 607 678 l 582 361 l 179 339 q 399 82 179 82 q 586 129 494 82 l 615 83 q 496 17 569 46 q 342 -12 422 -12 m 183 403 l 471 428 q 485 454 485 429 q 452 560 485 515 q 342 604 419 604 q 228 552 264 604 q 183 403 193 500 z "},"f":{"ha":486,"x_min":63,"x_max":588,"o":"m 71 0 l 63 54 q 145 83 131 68 q 160 133 160 97 l 160 563 l 69 563 l 64 622 l 132 639 q 156 654 150 643 q 163 692 161 665 q 167 743 164 718 q 179 819 171 768 q 206 910 188 871 q 253 989 225 949 q 429 1072 311 1072 q 588 1040 504 1072 q 569 872 588 935 l 496 865 q 463 985 474 978 q 404 999 440 999 q 285 647 285 999 l 449 647 l 438 582 l 285 561 l 285 100 q 290 80 285 86 q 315 71 296 74 l 419 54 l 414 0 l 71 0 z "},"g":{"ha":769,"x_min":76,"x_max":726,"o":"m 222 -33 q 183 -126 183 -76 q 225 -206 183 -176 q 367 -235 267 -235 q 524 -193 468 -235 q 579 -110 579 -151 q 533 -59 579 -68 q 388 -49 488 -50 q 222 -33 289 -47 m 103 85 q 144 192 103 140 q 211 257 174 228 q 172 281 190 267 q 103 448 103 336 q 179 619 103 560 q 369 678 256 678 q 538 635 471 678 q 713 681 628 678 q 726 624 726 657 q 722 579 726 592 q 624 590 675 590 q 586 590 603 590 q 625 454 625 538 q 549 284 625 343 q 358 225 472 225 q 246 242 294 225 q 204 146 204 192 q 251 96 204 104 q 345 89 293 89 q 426 88 397 89 q 499 83 454 88 q 569 69 543 79 q 622 44 594 60 q 674 -58 674 15 q 574 -231 674 -158 q 304 -304 474 -304 q 76 -174 76 -304 q 103 -92 76 -126 q 182 -21 131 -58 q 103 85 103 4 m 368 293 q 497 451 497 293 q 360 610 497 610 q 231 451 231 610 q 368 293 231 293 z "},"h":{"ha":828,"x_min":39,"x_max":796,"o":"m 56 0 l 47 54 q 130 83 115 68 q 144 133 144 97 l 144 940 q 122 983 144 969 q 39 1008 100 996 l 47 1053 q 254 1072 196 1072 l 269 1058 l 269 668 q 260 560 269 592 l 271 556 l 288 575 q 503 678 374 678 q 648 624 596 678 q 700 475 700 569 l 700 100 q 708 78 700 83 q 728 71 715 74 l 796 54 l 790 0 l 493 0 l 485 54 q 561 82 547 67 q 575 133 575 97 l 575 433 q 551 539 575 500 q 453 578 526 578 q 301 524 381 578 q 276 499 283 511 q 269 457 269 488 l 269 100 q 277 78 269 83 q 297 71 285 74 l 358 54 l 353 0 l 56 0 z "},"i":{"ha":431,"x_min":49,"x_max":375,"o":"m 65 0 l 57 54 q 140 83 125 68 q 154 133 154 97 l 154 532 q 132 574 154 561 q 49 600 110 588 l 57 644 q 264 664 206 664 l 279 650 l 279 100 q 287 78 279 83 q 307 71 294 74 l 375 54 l 369 0 l 65 0 m 281 911 q 259 853 281 876 q 202 829 238 829 q 144 850 167 829 q 121 908 121 871 q 142 967 121 944 q 201 989 164 989 q 281 911 281 989 z "},"j":{"ha":389,"x_min":-74,"x_max":265,"o":"m 139 94 l 139 532 q 117 574 139 561 q 33 600 94 588 l 42 644 q 249 664 190 664 l 264 650 l 264 53 q 186 -191 264 -78 q 36 -304 108 -304 q -69 -294 -14 -304 q -74 -249 -74 -278 q -50 -181 -74 -219 q 34 -194 6 -194 q 76 -185 63 -194 q 122 -85 106 -165 q 139 94 139 -6 m 265 911 q 244 853 265 876 q 187 829 222 829 q 128 850 151 829 q 106 908 106 871 q 127 967 106 944 q 186 989 149 989 q 265 911 265 989 z "},"k":{"ha":790,"x_min":39,"x_max":776,"o":"m 56 0 l 47 54 q 130 83 115 68 q 144 133 144 97 l 144 940 q 122 983 144 969 q 39 1008 100 996 l 47 1053 q 254 1072 196 1072 l 269 1058 l 269 321 l 508 544 q 519 568 519 557 q 424 603 519 589 l 432 657 l 708 657 l 714 603 q 638 581 650 593 l 447 399 l 649 111 q 698 71 671 83 q 776 54 725 58 l 768 0 l 575 0 l 360 314 l 269 228 l 269 100 q 277 78 269 83 q 297 71 285 74 l 358 54 l 353 0 l 56 0 z "},"l":{"ha":421,"x_min":39,"x_max":365,"o":"m 56 0 l 47 54 q 130 83 115 68 q 144 133 144 97 l 144 940 q 122 983 144 969 q 39 1008 100 996 l 47 1053 q 254 1072 196 1072 l 269 1058 l 269 100 q 277 78 269 83 q 297 71 285 74 l 365 54 l 360 0 l 56 0 z "},"m":{"ha":1193,"x_min":49,"x_max":1161,"o":"m 65 0 l 57 54 q 140 83 125 68 q 154 133 154 97 l 154 533 q 137 584 154 569 q 49 613 119 599 l 57 657 l 236 675 q 256 637 246 675 q 267 568 267 599 l 267 560 l 276 556 l 290 574 q 378 648 325 618 q 492 678 432 678 q 661 558 625 678 l 671 557 l 686 576 q 885 678 765 678 q 1017 624 969 678 q 1065 475 1065 569 l 1065 100 q 1073 78 1065 83 q 1093 71 1081 74 l 1161 54 l 1156 0 l 858 0 l 850 54 q 926 82 913 67 q 940 133 940 97 l 940 449 q 836 578 940 578 q 700 524 782 578 q 678 502 683 514 q 672 460 672 490 l 672 100 q 680 78 672 83 q 700 71 688 74 l 761 54 l 756 0 l 465 0 l 457 54 q 533 82 519 67 q 547 133 547 97 l 547 449 q 443 578 547 578 q 307 524 389 578 q 285 502 290 514 q 279 460 279 490 l 279 100 q 287 78 279 83 q 307 71 294 74 l 368 54 l 363 0 l 65 0 z "},"n":{"ha":828,"x_min":49,"x_max":796,"o":"m 65 0 l 57 54 q 140 83 125 68 q 154 133 154 97 l 154 533 q 137 584 154 569 q 49 613 119 599 l 57 657 l 236 675 q 256 636 246 675 q 267 568 267 597 l 267 560 l 278 556 l 294 575 q 508 678 382 678 q 649 624 597 678 q 700 475 700 571 l 700 100 q 708 78 700 83 q 728 71 715 74 l 796 54 l 790 0 l 493 0 l 485 54 q 561 82 547 67 q 575 133 575 97 l 575 433 q 551 538 575 499 q 459 578 528 578 q 310 524 390 578 q 292 511 297 515 q 279 460 279 497 l 279 101 q 284 81 279 86 q 307 71 289 75 l 368 54 l 363 0 l 65 0 z "},"o":{"ha":722,"x_min":44,"x_max":678,"o":"m 356 -12 q 281 -12 356 -12 q 125 76 206 -12 q 44 325 44 165 q 130 581 44 485 q 366 678 215 678 q 597 588 517 678 q 678 339 678 499 q 592 83 678 179 q 356 -12 507 -12 m 179 343 q 229 140 179 219 q 365 61 279 61 q 488 103 451 61 q 528 191 513 131 q 543 322 543 251 q 493 525 543 446 q 357 604 443 604 q 235 563 271 604 q 194 474 210 535 q 179 343 179 414 z "},"p":{"ha":774,"x_min":28,"x_max":724,"o":"m 133 -158 l 133 533 q 116 584 133 569 q 28 613 99 599 l 36 657 q 217 675 208 675 q 237 638 225 675 q 249 574 249 601 l 249 560 l 260 556 l 274 574 q 467 678 354 678 q 651 588 579 678 q 724 343 724 499 q 642 88 724 188 q 413 -12 560 -12 q 263 24 308 -12 l 253 19 q 258 -42 258 -11 l 258 -192 q 266 -215 258 -210 q 286 -221 274 -219 l 413 -237 l 407 -292 l 44 -292 l 36 -237 q 119 -209 104 -224 q 133 -158 133 -194 m 258 135 q 436 67 315 67 q 531 106 496 67 q 589 309 589 171 q 545 513 589 447 q 435 578 501 578 q 296 531 368 578 q 258 467 258 506 l 258 135 z "},"q":{"ha":754,"x_min":50,"x_max":736,"o":"m 500 92 q 307 -12 419 -12 q 122 77 194 -12 q 50 324 50 167 q 133 579 50 481 q 371 678 215 678 q 521 658 444 678 q 640 618 597 639 l 640 -192 q 648 -213 640 -208 q 668 -221 656 -218 l 736 -237 l 731 -292 l 369 -292 l 361 -237 q 488 -207 461 -225 q 515 -151 515 -189 l 515 -3 q 525 106 515 74 l 514 110 l 500 92 m 229 151 q 251 119 229 151 q 339 88 274 88 q 478 136 404 88 q 508 164 501 151 q 515 199 515 176 l 515 549 q 365 599 456 599 q 242 561 274 599 q 201 473 217 533 q 185 339 185 413 q 229 151 185 215 z "},"r":{"ha":600,"x_min":39,"x_max":567,"o":"m 56 0 l 47 54 q 138 82 121 67 q 154 133 154 97 l 154 533 q 135 585 154 569 q 39 613 117 601 l 47 657 l 236 675 q 257 647 246 675 q 268 590 268 619 q 263 521 268 560 l 274 517 l 292 557 q 367 645 317 613 q 470 678 418 678 q 567 656 522 678 q 546 428 567 542 l 478 421 q 456 553 467 538 q 419 569 444 569 q 358 547 393 569 q 301 498 324 524 q 279 414 279 472 l 279 100 q 287 77 279 82 q 307 71 294 72 l 433 54 l 428 0 l 56 0 z "},"s":{"ha":607,"x_min":76,"x_max":539,"o":"m 311 604 q 189 521 189 604 q 206 472 189 488 q 230 448 222 456 q 260 429 238 440 q 291 413 282 418 q 328 397 300 408 q 492 306 444 349 q 539 183 539 263 q 469 46 539 104 q 276 -12 399 -12 q 164 -1 222 -12 q 79 21 106 10 q 76 94 76 39 q 89 215 76 150 l 161 221 q 176 112 171 132 q 190 86 181 92 q 307 61 235 61 q 419 151 419 61 q 386 222 419 194 q 300 274 349 253 q 126 370 172 326 q 79 492 79 414 q 150 624 79 569 q 321 678 221 678 q 504 643 421 678 q 506 581 506 632 q 488 472 506 529 l 424 465 q 392 589 414 574 q 311 604 371 604 z "},"t":{"ha":486,"x_min":22,"x_max":467,"o":"m 118 190 l 118 572 l 28 572 l 22 632 l 90 649 q 126 680 117 656 q 158 835 135 704 l 243 843 l 243 657 l 436 657 l 425 592 l 243 571 l 243 232 q 332 88 243 88 q 438 129 382 88 l 467 89 q 283 -12 392 -12 q 162 42 206 -12 q 118 190 118 96 z "},"u":{"ha":801,"x_min":22,"x_max":769,"o":"m 128 172 l 128 539 q 106 581 128 568 q 22 607 83 594 l 31 651 q 238 671 179 671 l 253 657 l 253 232 q 363 88 253 88 q 510 142 433 88 q 533 166 528 154 q 539 206 539 178 l 539 539 q 517 581 539 568 q 433 607 494 594 l 442 651 q 649 671 590 671 l 664 657 l 664 138 q 681 87 664 101 q 769 58 699 72 l 761 14 l 582 -6 q 562 31 572 -7 q 551 97 551 69 l 551 106 l 540 110 l 524 90 q 310 -12 436 -12 q 176 33 225 -12 q 128 172 128 78 z "},"v":{"ha":689,"x_min":0,"x_max":696,"o":"m 293 -12 l 74 553 q 54 586 64 579 q 0 603 44 593 l 8 657 l 294 657 l 300 603 l 215 582 q 206 571 206 581 q 211 553 206 569 l 336 203 q 353 126 353 154 l 364 126 l 518 521 q 526 558 526 543 q 506 582 526 572 q 435 603 486 592 l 443 657 l 690 657 l 696 603 q 642 588 651 592 q 631 579 632 585 l 383 -12 l 293 -12 z "},"w":{"ha":1047,"x_min":11,"x_max":1044,"o":"m 288 -12 l 86 553 q 67 586 76 579 q 11 603 57 593 l 19 657 l 276 657 l 282 603 l 221 583 q 211 574 211 582 q 217 556 211 572 l 344 156 q 350 122 350 142 l 350 117 l 361 117 q 372 158 361 132 l 499 474 l 472 553 q 455 585 464 578 q 411 603 446 593 l 419 657 l 647 657 l 653 603 l 592 583 q 582 574 582 582 q 588 556 582 572 l 714 156 q 719 122 719 139 l 719 117 l 731 117 q 742 158 731 125 l 868 521 q 876 551 876 543 q 876 562 876 558 q 872 569 875 565 q 867 574 869 572 q 860 579 865 576 q 852 584 856 582 q 842 589 849 586 q 830 593 835 592 q 817 598 825 594 q 803 603 808 601 l 811 657 l 1039 657 l 1044 603 q 990 588 1000 592 q 979 579 981 585 l 749 -12 l 658 -12 l 544 338 q 538 375 538 358 l 526 375 q 518 339 526 360 l 378 -12 l 288 -12 z "},"x":{"ha":769,"x_min":17,"x_max":740,"o":"m 22 0 l 17 54 q 96 74 88 65 l 314 329 l 115 567 q 88 586 104 581 l 38 603 l 43 657 l 318 657 l 326 603 l 283 593 q 265 577 265 588 q 286 542 265 567 l 396 410 l 504 544 q 514 567 514 556 q 451 603 514 590 l 460 657 l 718 657 l 724 603 q 647 581 660 593 l 449 346 l 663 90 q 690 71 674 76 l 740 54 l 735 0 l 460 0 l 451 54 l 494 64 q 513 80 513 69 q 492 115 513 90 l 364 268 l 236 113 q 226 90 226 101 q 289 54 226 67 l 281 0 l 22 0 z "},"y":{"ha":694,"x_min":6,"x_max":701,"o":"m 40 -162 q 133 -167 74 -167 q 226 -152 192 -167 q 310 0 261 -137 l 79 553 q 59 586 68 579 q 6 603 50 593 l 14 657 l 300 657 l 306 603 l 221 582 q 211 571 211 581 q 217 553 211 569 l 358 182 q 365 139 365 163 l 376 139 l 524 521 q 532 558 532 543 q 512 582 532 572 q 440 603 492 592 l 449 657 l 696 657 l 701 603 q 636 579 640 589 l 417 35 q 372 -72 389 -35 q 326 -154 356 -108 q 265 -225 297 -200 q 74 -304 186 -285 q 38 -190 38 -268 q 40 -162 38 -182 z "},"z":{"ha":615,"x_min":39,"x_max":575,"o":"m 39 0 l 39 36 l 390 544 q 421 576 413 572 l 418 586 l 260 586 q 168 582 206 586 q 151 562 158 581 q 125 465 144 543 l 61 472 q 58 561 58 517 q 67 657 58 606 l 575 657 l 575 618 l 228 113 q 197 81 210 86 l 200 71 l 268 72 q 443 81 417 75 q 500 219 469 88 l 572 214 q 557 0 569 103 l 39 0 z "},"{":{"ha":449,"x_min":42,"x_max":375,"o":"m 138 -69 l 151 257 q 126 342 151 317 q 42 392 101 368 l 42 444 q 126 494 101 468 q 151 579 151 519 l 138 906 q 179 1021 138 978 q 286 1064 221 1064 q 375 1058 306 1064 l 375 999 q 279 972 310 992 q 249 893 249 951 l 249 542 q 167 424 249 447 l 151 419 l 151 417 l 167 413 q 239 356 224 399 q 249 294 249 335 l 249 -57 q 279 -135 249 -115 q 375 -162 310 -156 l 375 -222 q 286 -228 306 -228 q 179 -185 221 -228 q 138 -69 138 -142 z "},"|":{"ha":354,"x_min":132,"x_max":222,"o":"m 132 1072 l 222 1072 l 222 -292 l 132 -292 l 132 1072 z "},"}":{"ha":449,"x_min":74,"x_max":407,"o":"m 311 906 l 297 579 q 322 494 297 519 q 407 444 347 468 l 407 392 q 322 342 347 368 q 297 257 297 317 l 311 -69 q 269 -185 311 -142 q 163 -228 228 -228 q 74 -222 143 -228 l 74 -162 q 169 -135 139 -156 q 200 -57 200 -115 l 200 294 q 210 356 200 335 q 282 413 225 399 l 297 417 l 297 419 l 282 424 q 200 542 200 447 l 200 893 q 169 972 200 951 q 74 999 139 992 l 74 1058 q 163 1064 143 1064 q 269 1021 228 1064 q 311 906 311 978 z "},"~":{"ha":674,"x_min":42,"x_max":635,"o":"m 586 450 l 635 417 q 572 328 596 357 q 485 278 532 278 q 435 285 460 278 q 339 319 410 293 q 244 353 268 346 q 196 361 221 361 q 90 293 151 361 l 42 326 q 120 435 88 404 q 186 465 153 465 q 242 458 219 465 q 414 396 265 451 q 477 382 453 382 q 521 392 501 382 q 551 414 540 403 q 586 450 563 425 z "}," ":{"ha":271,"x_min":0,"x_max":0,"o":""},"¡":{"ha":314,"x_min":65,"x_max":258,"o":"m 99 607 q 120 661 99 639 q 177 683 142 683 q 235 664 213 683 q 258 610 258 644 q 237 554 258 575 q 178 533 215 533 q 99 607 99 533 m 82 -306 l 65 -279 l 138 425 l 207 422 l 225 -264 l 82 -306 z "},"¢":{"ha":589,"x_min":47,"x_max":557,"o":"m 271 928 l 350 928 l 350 758 q 521 726 444 758 q 522 667 522 718 q 508 571 522 617 l 449 564 q 429 659 435 639 q 415 682 424 679 q 350 690 396 688 l 350 274 l 358 274 q 521 325 444 274 l 557 283 q 350 193 467 203 l 350 0 l 271 0 l 271 196 q 104 288 161 213 q 47 467 47 363 q 99 651 47 572 q 271 751 151 729 l 271 928 m 172 482 q 271 294 172 342 l 271 685 q 224 656 243 679 q 172 482 172 593 z "},"£":{"ha":724,"x_min":22,"x_max":707,"o":"m 557 111 q 658 168 601 111 l 707 136 q 647 42 672 72 q 525 -12 601 -12 q 387 17 479 -12 q 246 47 294 47 q 167 38 197 47 q 122 19 138 28 q 75 -14 107 10 l 40 32 q 117 136 90 88 q 148 213 143 185 q 153 290 153 240 q 138 436 153 339 l 22 436 l 22 510 l 125 510 q 118 596 118 554 q 216 878 118 781 q 474 975 314 975 q 643 940 549 975 q 644 878 644 929 q 626 769 644 826 l 563 763 q 539 879 554 867 q 449 901 517 901 q 310 835 349 901 q 272 610 272 768 q 276 510 272 560 l 544 510 l 544 436 l 281 436 q 282 389 282 419 q 206 140 282 233 l 210 133 q 304 161 250 161 q 446 136 358 161 q 557 111 533 111 z "},"¤":{"ha":838,"x_min":49,"x_max":789,"o":"m 585 231 q 414 192 511 192 q 247 226 317 192 l 113 92 l 49 156 l 175 282 q 117 461 117 350 q 171 646 117 572 l 50 768 l 114 831 l 236 707 q 425 757 314 757 q 606 713 536 757 l 724 831 l 789 767 l 672 651 q 722 473 722 585 q 657 288 722 361 l 789 154 l 725 92 l 585 231 m 588 456 q 588 509 588 456 q 541 622 588 561 q 413 683 494 683 q 294 646 332 683 q 251 492 251 597 q 298 326 251 388 q 426 265 344 265 q 544 303 507 265 q 588 456 588 351 z "},"¥":{"ha":825,"x_min":19,"x_max":815,"o":"m 156 267 l 156 340 l 678 340 l 678 267 l 485 267 l 485 107 q 513 71 485 75 l 619 54 l 614 0 l 232 0 l 224 54 q 331 83 311 68 q 350 140 350 97 l 350 267 l 156 267 m 156 436 l 156 510 l 299 510 l 115 847 q 83 887 97 878 q 19 907 68 896 l 29 963 l 356 963 l 361 906 l 268 881 q 258 872 258 879 q 268 849 258 865 l 413 569 q 426 529 426 546 l 440 529 l 581 800 q 610 868 610 856 q 592 888 610 881 q 526 907 575 896 l 535 963 l 810 963 l 815 904 q 731 877 754 892 q 690 829 707 863 l 526 510 l 678 510 l 678 436 l 156 436 z "},"¦":{"ha":354,"x_min":132,"x_max":222,"o":"m 132 1072 l 222 1072 l 222 493 l 132 493 l 132 1072 m 132 289 l 222 289 l 222 -292 l 132 -292 l 132 289 z "},"§":{"ha":607,"x_min":35,"x_max":594,"o":"m 293 -92 q 419 -1 419 -92 q 384 88 419 53 q 279 160 349 122 l 235 185 q 190 208 224 192 q 142 233 157 225 q 103 260 128 242 q 67 294 78 279 q 35 389 35 338 q 179 593 35 503 q 83 782 83 665 q 151 918 83 861 q 325 975 218 975 q 510 942 432 975 q 513 868 513 924 q 500 747 513 813 l 428 742 q 400 883 421 871 q 314 901 371 901 q 225 883 257 901 q 193 810 193 865 q 223 718 193 756 q 310 650 253 681 l 394 604 q 439 581 406 597 q 487 556 472 564 q 526 528 501 547 q 564 494 551 510 q 594 400 594 451 q 453 197 594 289 q 539 44 539 136 q 465 -107 539 -49 q 263 -165 390 -165 q 150 -154 208 -165 q 65 -132 92 -143 q 63 -44 63 -114 q 75 63 63 26 l 147 68 q 161 -42 157 -24 q 176 -67 165 -61 q 293 -92 221 -92 m 299 288 l 392 236 q 485 363 485 307 q 450 428 485 401 q 378 474 415 454 q 331 500 340 494 l 238 553 q 144 426 144 481 q 224 328 144 374 q 299 288 279 297 z "},"¨":{"ha":428,"x_min":7,"x_max":421,"o":"m 347 833 q 275 911 275 833 q 295 964 275 942 q 347 986 315 986 q 421 911 421 986 q 400 856 421 879 q 347 833 379 833 m 79 833 q 7 911 7 833 q 27 964 7 942 q 79 986 47 986 q 153 911 153 986 q 132 856 153 879 q 79 833 111 833 z "},"©":{"ha":1168,"x_min":63,"x_max":1119,"o":"m 1119 495 q 1119 382 1119 495 q 976 128 1119 269 q 583 -12 833 -12 q 198 117 333 -12 q 63 473 63 247 q 206 837 63 699 q 599 975 349 975 q 984 848 849 975 q 1119 495 1119 721 m 603 61 q 782 96 706 61 q 901 192 858 131 q 985 488 985 310 q 880 784 985 667 q 579 901 775 901 q 400 867 476 901 q 281 774 324 833 q 197 480 197 658 q 302 181 197 301 q 603 61 407 61 m 372 697 q 475 774 410 744 q 630 803 540 803 q 829 732 719 803 l 829 701 q 817 569 829 622 l 722 561 q 704 696 707 692 q 615 729 676 729 q 480 663 525 729 q 435 478 435 596 q 497 296 435 360 q 638 232 558 232 q 686 238 663 232 q 713 253 710 244 q 738 368 726 267 l 819 363 q 833 271 833 318 q 832 213 833 224 q 746 176 810 193 q 642 158 682 158 q 379 248 458 158 q 300 483 300 338 q 372 697 300 601 z "},"ª":{"ha":525,"x_min":40,"x_max":499,"o":"m 163 814 l 93 819 q 83 888 83 853 q 85 938 83 922 q 242 975 144 975 q 378 939 340 975 q 417 817 417 903 l 417 586 q 429 551 417 561 q 493 531 442 540 l 488 489 l 365 476 q 344 497 356 476 q 333 539 333 517 l 333 558 l 326 561 l 314 543 q 182 469 265 469 q 87 505 125 469 q 49 611 49 540 q 310 761 49 758 l 310 790 q 231 913 310 913 q 182 900 192 913 q 163 814 172 883 m 310 615 l 310 708 q 198 685 233 706 q 163 617 163 664 q 219 549 163 549 q 290 579 253 549 q 310 615 310 597 m 40 315 l 40 389 l 499 389 l 499 315 l 40 315 z "},"«":{"ha":639,"x_min":83,"x_max":583,"o":"m 339 575 l 193 350 l 339 108 l 310 86 l 83 339 l 83 361 l 310 597 l 339 575 m 583 575 l 438 350 l 583 108 l 554 86 l 328 339 l 328 361 l 554 597 l 583 575 z "},"¬":{"ha":717,"x_min":63,"x_max":654,"o":"m 654 228 l 575 228 l 575 465 l 63 465 l 63 539 l 654 539 l 654 228 z "},"­":{"ha":410,"x_min":47,"x_max":367,"o":"m 64 385 l 367 404 l 344 318 l 47 282 l 64 385 z "},"®":{"ha":1168,"x_min":63,"x_max":1119,"o":"m 1119 495 q 1119 382 1119 495 q 976 128 1119 269 q 583 -12 833 -12 q 198 117 333 -12 q 63 473 63 247 q 206 837 63 699 q 599 975 349 975 q 984 848 849 975 q 1119 495 1119 721 m 603 61 q 782 96 706 61 q 901 192 858 131 q 985 488 985 310 q 880 784 985 667 q 579 901 775 901 q 400 867 476 901 q 281 774 324 833 q 197 480 197 658 q 302 181 197 301 q 603 61 407 61 m 351 172 l 346 224 q 389 242 378 232 q 400 275 400 251 l 400 693 q 391 727 400 718 q 343 744 382 736 l 349 794 l 617 794 q 819 649 819 794 q 781 544 819 597 q 676 465 743 492 l 676 460 q 699 440 685 458 l 810 260 q 869 224 828 231 l 864 172 l 726 172 l 574 436 l 521 436 l 521 256 q 539 233 521 238 l 588 224 l 585 172 l 351 172 m 572 731 l 538 731 q 521 713 521 731 l 521 503 l 551 503 q 654 531 619 503 q 689 631 689 558 q 572 731 689 731 z "},"¯":{"ha":525,"x_min":31,"x_max":376,"o":"m 31 892 l 31 975 l 376 975 l 376 892 l 31 892 z "},"°":{"ha":507,"x_min":63,"x_max":443,"o":"m 443 794 q 443 751 443 794 q 391 656 443 708 q 249 604 339 604 q 111 652 160 604 q 63 786 63 700 q 114 924 63 872 q 256 975 165 975 q 394 927 346 975 q 443 794 443 879 m 142 786 q 142 760 142 786 q 169 704 142 733 q 250 675 197 675 q 333 708 303 675 q 364 793 364 740 q 336 875 364 846 q 256 904 308 904 q 172 872 203 904 q 142 786 142 839 z "},"±":{"ha":647,"x_min":63,"x_max":585,"o":"m 63 425 l 63 499 l 289 499 l 289 731 l 358 731 l 358 499 l 585 499 l 585 425 l 358 425 l 358 188 l 289 188 l 289 425 l 63 425 m 63 -1 l 63 72 l 585 72 l 585 -1 l 63 -1 z "},"²":{"ha":458,"x_min":11,"x_max":421,"o":"m 11 604 l 11 663 q 224 864 154 776 q 294 1024 294 951 q 265 1101 294 1069 q 181 1132 236 1132 q 107 1110 126 1132 q 86 1015 92 1094 l 25 1021 q 17 1096 17 1061 q 18 1140 17 1131 q 100 1176 47 1163 q 197 1189 153 1189 q 363 1142 306 1189 q 421 1018 421 1096 q 351 863 421 940 q 119 669 282 785 l 121 663 l 206 665 q 325 671 319 668 q 361 756 342 674 l 417 753 l 417 726 q 403 604 417 651 l 11 604 z "},"³":{"ha":435,"x_min":1,"x_max":406,"o":"m 17 738 l 78 742 q 96 660 82 664 q 168 651 121 651 q 248 681 215 651 q 281 760 281 711 q 161 879 281 879 q 114 876 147 879 l 117 926 q 226 973 192 938 q 261 1049 261 1008 q 235 1112 261 1089 q 168 1135 210 1135 q 110 1123 126 1135 q 86 1028 93 1111 l 26 1033 q 18 1108 18 1078 q 19 1150 18 1139 q 179 1189 89 1189 q 322 1156 269 1189 q 375 1073 375 1124 q 343 984 375 1022 q 268 929 311 946 l 269 922 q 365 875 325 914 q 406 771 406 836 q 335 651 406 706 q 163 596 265 596 q 1 614 60 596 q 17 738 11 703 z "},"´":{"ha":275,"x_min":17,"x_max":276,"o":"m 276 1021 l 276 989 l 65 779 l 17 814 l 165 1063 l 276 1021 z "},"µ":{"ha":801,"x_min":22,"x_max":769,"o":"m 310 -12 q 224 4 251 -12 l 214 -4 l 261 -254 l 149 -310 l 128 -286 l 128 539 q 106 581 128 568 q 22 607 83 594 l 31 651 q 238 671 179 671 l 253 657 l 253 232 q 363 88 253 88 q 510 142 433 88 q 533 166 528 154 q 539 206 539 178 l 539 539 q 517 581 539 568 q 433 607 494 594 l 442 651 q 649 671 590 671 l 664 657 l 664 132 q 681 81 664 96 q 769 53 699 67 l 761 8 l 582 -10 q 562 28 572 -11 q 551 97 551 68 l 551 106 l 540 110 l 524 90 q 310 -12 436 -12 z "},"¶":{"ha":829,"x_min":90,"x_max":776,"o":"m 483 47 q 385 39 439 39 l 369 53 l 369 386 q 163 479 236 390 q 90 693 90 568 q 162 890 90 818 q 371 963 233 963 l 771 963 l 776 908 l 690 892 q 663 856 663 886 l 663 178 q 597 -57 663 51 q 467 -165 531 -165 q 347 -154 403 -165 q 343 -106 343 -137 q 369 -32 343 -74 q 461 -47 435 -47 q 510 -33 488 -47 q 541 45 533 -18 q 549 219 549 108 l 549 889 l 483 889 l 483 47 z "},"·":{"ha":333,"x_min":76,"x_max":257,"o":"m 257 364 q 257 343 257 364 q 231 295 257 322 q 166 268 206 268 q 101 291 126 268 q 76 355 76 314 q 101 422 76 396 q 166 449 126 449 q 231 427 206 449 q 257 364 257 406 z "},"¸":{"ha":674,"x_min":285,"x_max":532,"o":"m 292 -301 l 286 -258 q 418 -178 418 -240 q 401 -140 418 -156 q 353 -125 385 -125 q 297 -139 322 -125 l 285 -124 l 338 56 l 406 38 l 376 -67 q 425 -62 399 -62 q 501 -86 469 -62 q 532 -151 532 -110 q 467 -253 532 -210 q 292 -301 403 -296 z "},"¹":{"ha":371,"x_min":46,"x_max":329,"o":"m 57 604 l 51 647 q 122 666 104 656 q 140 696 140 676 l 140 1054 q 136 1106 140 1097 q 105 1114 132 1114 q 53 1110 78 1114 l 46 1153 q 231 1189 150 1189 l 242 1179 l 242 669 q 248 661 242 663 q 260 658 254 660 l 329 647 l 325 604 l 57 604 z "},"º":{"ha":533,"x_min":35,"x_max":499,"o":"m 499 727 q 499 669 499 727 q 436 540 499 611 q 263 469 374 469 q 94 535 153 469 q 35 717 35 600 q 97 905 35 835 q 269 975 160 975 q 439 909 379 975 q 499 727 499 843 m 385 704 q 385 753 385 704 q 352 856 385 801 q 263 911 319 911 q 185 882 207 911 q 147 740 147 838 q 180 588 147 643 q 269 532 213 532 q 350 563 325 532 q 385 704 385 607 m 38 315 l 38 389 l 496 389 l 496 315 l 38 315 z "},"»":{"ha":639,"x_min":56,"x_max":556,"o":"m 201 350 l 56 575 l 85 597 l 311 361 l 311 339 l 85 86 l 56 108 l 201 350 m 446 350 l 300 575 l 329 597 l 556 361 l 556 339 l 329 86 l 300 108 l 446 350 z "},"¼":{"ha":1174,"x_min":101,"x_max":1099,"o":"m 113 386 l 107 429 q 178 448 160 438 q 196 478 196 458 l 196 836 q 192 888 196 879 q 160 896 188 896 q 108 892 133 896 l 101 935 q 286 971 206 971 l 297 961 l 297 453 q 303 443 297 444 q 315 440 310 442 l 385 429 l 381 386 l 113 386 m 849 963 l 939 963 l 319 0 l 228 0 l 849 963 m 822 0 l 817 43 q 887 61 869 51 q 904 92 904 71 l 904 151 l 639 151 l 618 215 l 899 574 q 996 585 963 585 l 1006 576 l 1006 222 l 1099 221 l 1090 151 l 1006 151 l 1006 72 q 1024 54 1006 57 l 1075 43 l 1072 0 l 822 0 m 700 232 l 703 226 l 904 222 l 904 458 q 907 485 904 476 l 901 488 l 715 251 q 700 232 707 239 z "},"½":{"ha":1250,"x_min":101,"x_max":1157,"o":"m 113 386 l 107 429 q 178 448 160 438 q 196 478 196 458 l 196 836 q 192 888 196 879 q 160 896 188 896 q 108 892 133 896 l 101 935 q 286 971 206 971 l 297 961 l 297 453 q 303 443 297 444 q 315 440 310 442 l 385 429 l 381 386 l 113 386 m 849 963 l 939 963 l 319 0 l 228 0 l 849 963 m 747 0 l 747 58 q 960 260 890 172 q 1031 419 1031 347 q 1001 497 1031 465 q 917 528 972 528 q 843 506 863 528 q 822 411 828 490 l 761 417 q 753 491 753 456 q 754 536 753 526 q 836 572 783 558 q 933 585 889 585 q 1099 538 1042 585 q 1157 414 1157 492 q 1088 258 1157 336 q 856 65 1018 181 l 857 58 l 942 61 q 1061 67 1056 64 q 1097 151 1078 69 l 1153 149 l 1153 122 q 1139 0 1153 47 l 747 0 z "},"¾":{"ha":1174,"x_min":57,"x_max":1099,"o":"m 72 519 l 133 524 q 151 442 138 446 q 224 433 176 433 q 303 463 271 433 q 336 542 336 493 q 217 661 336 661 q 169 658 203 661 l 172 708 q 282 755 247 719 q 317 831 317 790 q 291 894 317 871 q 224 917 265 917 q 165 905 182 917 q 142 810 149 893 l 82 815 q 74 890 74 860 q 75 932 74 921 q 235 971 144 971 q 378 938 325 971 q 431 855 431 906 q 399 766 431 804 q 324 711 367 728 l 325 704 q 421 657 381 696 q 461 553 461 618 q 391 433 461 488 q 218 378 321 378 q 57 396 115 378 q 72 519 67 485 m 849 963 l 939 963 l 319 0 l 228 0 l 849 963 m 822 0 l 817 43 q 887 61 869 51 q 904 92 904 71 l 904 151 l 639 151 l 618 215 l 899 574 q 996 585 963 585 l 1006 576 l 1006 222 l 1099 221 l 1090 151 l 1006 151 l 1006 72 q 1024 54 1006 57 l 1075 43 l 1072 0 l 822 0 m 700 232 l 703 226 l 904 222 l 904 458 q 907 485 904 476 l 901 488 l 715 251 q 700 232 707 239 z "},"¿":{"ha":589,"x_min":33,"x_max":540,"o":"m 260 604 q 281 661 260 639 q 338 683 303 683 q 397 663 374 683 q 419 608 419 643 q 398 553 419 574 q 338 533 376 533 q 260 604 260 533 m 313 388 l 378 407 q 442 260 442 318 q 339 124 442 190 q 256 67 297 96 q 184 -4 214 38 q 154 -105 154 -46 q 203 -197 154 -164 q 318 -231 253 -231 q 425 -208 383 -231 q 442 -182 436 -203 q 454 -85 447 -161 l 529 -93 q 540 -184 540 -136 q 539 -246 540 -232 q 429 -287 499 -269 q 294 -304 360 -304 q 107 -248 181 -304 q 33 -87 33 -192 q 55 13 33 -33 q 109 88 76 58 q 180 146 142 117 q 250 197 218 175 q 326 304 326 246 q 313 388 326 332 z "},"À":{"ha":931,"x_min":10,"x_max":924,"o":"m 19 0 l 10 56 q 74 78 63 69 q 97 115 86 86 l 408 975 l 524 975 l 842 93 q 924 58 849 72 l 918 0 l 594 0 l 586 56 q 683 101 683 75 q 678 131 683 113 l 617 311 l 257 311 l 186 114 q 181 91 181 97 q 189 83 181 85 l 288 57 l 282 0 l 19 0 m 283 385 l 593 385 l 457 775 q 447 815 447 804 l 433 815 l 283 385 m 247 1169 l 236 1199 l 319 1269 l 561 1090 l 526 1040 l 247 1169 z "},"Á":{"ha":931,"x_min":10,"x_max":924,"o":"m 19 0 l 10 56 q 74 78 63 69 q 97 115 86 86 l 408 975 l 524 975 l 842 93 q 924 58 849 72 l 918 0 l 594 0 l 586 56 q 683 101 683 75 q 678 131 683 113 l 617 311 l 257 311 l 186 114 q 181 91 181 97 q 189 83 181 85 l 288 57 l 282 0 l 19 0 m 283 385 l 593 385 l 457 775 q 447 815 447 804 l 433 815 l 283 385 m 700 1199 l 689 1169 l 410 1040 l 375 1090 l 617 1269 l 700 1199 z "},"Â":{"ha":931,"x_min":10,"x_max":924,"o":"m 19 0 l 10 56 q 74 78 63 69 q 97 115 86 86 l 408 975 l 524 975 l 842 93 q 924 58 849 72 l 918 0 l 594 0 l 586 56 q 683 101 683 75 q 678 131 683 113 l 617 311 l 257 311 l 186 114 q 181 91 181 97 q 189 83 181 85 l 288 57 l 282 0 l 19 0 m 283 385 l 593 385 l 457 775 q 447 815 447 804 l 433 815 l 283 385 m 661 1040 l 468 1167 l 275 1040 l 240 1076 l 429 1269 l 507 1269 l 696 1076 l 661 1040 z "},"Ã":{"ha":931,"x_min":10,"x_max":924,"o":"m 19 0 l 10 56 q 74 78 63 69 q 97 115 86 86 l 408 975 l 524 975 l 842 93 q 924 58 849 72 l 918 0 l 594 0 l 586 56 q 683 101 683 75 q 678 131 683 113 l 617 311 l 257 311 l 186 114 q 181 91 181 97 q 189 83 181 85 l 288 57 l 282 0 l 19 0 m 283 385 l 593 385 l 457 775 q 447 815 447 804 l 433 815 l 283 385 m 685 1238 l 719 1221 q 660 1119 690 1157 q 599 1081 631 1081 q 476 1099 568 1081 q 350 1118 383 1118 q 250 1071 297 1118 l 218 1093 q 294 1197 263 1167 q 358 1226 326 1226 q 480 1208 390 1226 q 604 1189 569 1189 q 685 1238 639 1189 z "},"Ä":{"ha":931,"x_min":10,"x_max":924,"o":"m 19 0 l 10 56 q 74 78 63 69 q 97 115 86 86 l 408 975 l 524 975 l 842 93 q 924 58 849 72 l 918 0 l 594 0 l 586 56 q 683 101 683 75 q 678 131 683 113 l 617 311 l 257 311 l 186 114 q 181 91 181 97 q 189 83 181 85 l 288 57 l 282 0 l 19 0 m 283 385 l 593 385 l 457 775 q 447 815 447 804 l 433 815 l 283 385 m 601 1076 q 529 1154 529 1076 q 549 1207 529 1185 q 601 1229 569 1229 q 675 1154 675 1229 q 654 1099 675 1122 q 601 1076 633 1076 m 333 1076 q 261 1154 261 1076 q 281 1207 261 1185 q 333 1229 301 1229 q 407 1154 407 1229 q 386 1099 407 1122 q 333 1076 365 1076 z "},"Å":{"ha":931,"x_min":10,"x_max":924,"o":"m 19 0 l 10 56 q 74 78 63 69 q 97 115 86 86 l 408 975 l 524 975 l 842 93 q 924 58 849 72 l 918 0 l 594 0 l 586 56 q 683 101 683 75 q 678 131 683 113 l 617 311 l 257 311 l 186 114 q 181 91 181 97 q 189 83 181 85 l 288 57 l 282 0 l 19 0 m 283 385 l 593 385 l 457 775 q 447 815 447 804 l 433 815 l 283 385 m 611 1154 q 611 1126 611 1154 q 570 1063 611 1099 q 472 1026 529 1026 q 376 1059 414 1026 q 338 1149 338 1092 q 378 1241 338 1206 q 476 1276 419 1276 q 572 1243 533 1276 q 611 1154 611 1210 m 406 1149 q 424 1103 406 1119 q 472 1086 442 1086 q 522 1106 501 1086 q 542 1154 542 1125 q 524 1200 542 1183 q 478 1217 506 1217 q 406 1149 406 1217 z "},"Æ":{"ha":1222,"x_min":19,"x_max":1188,"o":"m 456 963 l 1146 963 q 1154 860 1154 911 q 1151 746 1154 810 l 1072 736 q 1044 856 1053 832 q 1025 882 1036 881 q 940 888 992 886 l 729 892 l 729 518 l 939 518 q 983 617 957 518 l 1026 613 q 1030 471 1026 511 q 1034 422 1033 431 q 1040 382 1035 414 q 1046 338 1044 350 l 996 329 q 966 426 974 408 q 949 444 958 444 l 729 444 l 729 71 l 847 72 q 1051 92 1028 75 q 1110 254 1065 101 l 1186 249 q 1188 167 1188 231 q 1172 0 1188 103 l 497 0 l 489 54 q 578 82 563 67 q 594 140 594 97 l 594 444 l 382 444 l 196 121 q 183 92 183 99 q 199 82 183 86 l 293 57 l 288 0 l 29 0 l 19 56 q 78 76 67 68 q 107 115 89 83 l 524 842 q 532 865 532 856 q 447 908 532 893 l 456 963 m 586 815 l 424 518 l 594 518 l 594 815 l 586 815 z "},"Ç":{"ha":861,"x_min":49,"x_max":828,"o":"m 411 -301 l 406 -258 q 502 -230 467 -251 q 538 -182 538 -208 q 521 -140 538 -156 q 473 -125 504 -125 q 417 -139 442 -125 l 404 -124 l 438 -10 q 164 121 261 8 q 49 460 49 254 q 114 742 49 618 q 343 944 190 888 q 519 975 428 975 q 696 961 611 975 q 807 936 781 947 q 815 828 815 885 q 813 703 815 772 l 733 692 q 679 869 703 853 q 615 890 667 879 q 511 901 563 901 q 281 789 358 901 q 203 493 203 676 q 301 171 203 276 q 546 65 400 65 q 645 78 599 65 q 706 101 692 90 q 751 278 721 113 l 828 275 q 813 50 828 169 q 683 7 769 26 q 511 -12 599 -12 l 496 -67 q 544 -62 518 -62 q 620 -86 589 -62 q 651 -151 651 -110 q 587 -253 651 -210 q 411 -301 522 -296 z "},"È":{"ha":822,"x_min":61,"x_max":761,"o":"m 69 0 l 61 54 q 151 82 135 67 q 167 140 167 97 l 167 822 q 151 881 167 865 q 61 908 135 896 l 69 963 l 717 963 q 725 860 725 911 q 722 746 725 810 l 643 736 q 615 856 624 832 q 596 882 607 881 q 511 888 563 886 l 301 892 l 301 518 l 510 518 q 554 617 528 518 l 597 613 q 601 471 597 511 q 605 422 604 431 q 610 382 606 414 q 617 338 615 350 l 567 329 q 537 426 544 408 q 519 444 529 444 l 301 444 l 301 71 l 425 72 q 617 89 582 72 q 622 92 621 92 q 683 256 646 99 l 760 249 q 761 165 761 225 q 746 0 761 104 l 69 0 m 183 1169 l 172 1199 l 256 1269 l 497 1090 l 463 1040 l 183 1169 z "},"É":{"ha":822,"x_min":61,"x_max":761,"o":"m 69 0 l 61 54 q 151 82 135 67 q 167 140 167 97 l 167 822 q 151 881 167 865 q 61 908 135 896 l 69 963 l 717 963 q 725 860 725 911 q 722 746 725 810 l 643 736 q 615 856 624 832 q 596 882 607 881 q 511 888 563 886 l 301 892 l 301 518 l 510 518 q 554 617 528 518 l 597 613 q 601 471 597 511 q 605 422 604 431 q 610 382 606 414 q 617 338 615 350 l 567 329 q 537 426 544 408 q 519 444 529 444 l 301 444 l 301 71 l 425 72 q 617 89 582 72 q 622 92 621 92 q 683 256 646 99 l 760 249 q 761 165 761 225 q 746 0 761 104 l 69 0 m 608 1199 l 597 1169 l 318 1040 l 283 1090 l 525 1269 l 608 1199 z "},"Ê":{"ha":822,"x_min":61,"x_max":761,"o":"m 69 0 l 61 54 q 151 82 135 67 q 167 140 167 97 l 167 822 q 151 881 167 865 q 61 908 135 896 l 69 963 l 717 963 q 725 860 725 911 q 722 746 725 810 l 643 736 q 615 856 624 832 q 596 882 607 881 q 511 888 563 886 l 301 892 l 301 518 l 510 518 q 554 617 528 518 l 597 613 q 601 471 597 511 q 605 422 604 431 q 610 382 606 414 q 617 338 615 350 l 567 329 q 537 426 544 408 q 519 444 529 444 l 301 444 l 301 71 l 425 72 q 617 89 582 72 q 622 92 621 92 q 683 256 646 99 l 760 249 q 761 165 761 225 q 746 0 761 104 l 69 0 m 597 1040 l 404 1167 l 211 1040 l 176 1076 l 365 1269 l 443 1269 l 632 1076 l 597 1040 z "},"Ë":{"ha":822,"x_min":61,"x_max":761,"o":"m 69 0 l 61 54 q 151 82 135 67 q 167 140 167 97 l 167 822 q 151 881 167 865 q 61 908 135 896 l 69 963 l 717 963 q 725 860 725 911 q 722 746 725 810 l 643 736 q 615 856 624 832 q 596 882 607 881 q 511 888 563 886 l 301 892 l 301 518 l 510 518 q 554 617 528 518 l 597 613 q 601 471 597 511 q 605 422 604 431 q 610 382 606 414 q 617 338 615 350 l 567 329 q 537 426 544 408 q 519 444 529 444 l 301 444 l 301 71 l 425 72 q 617 89 582 72 q 622 92 621 92 q 683 256 646 99 l 760 249 q 761 165 761 225 q 746 0 761 104 l 69 0 m 539 1076 q 467 1154 467 1076 q 487 1207 467 1185 q 539 1229 507 1229 q 613 1154 613 1229 q 592 1099 613 1122 q 539 1076 571 1076 m 271 1076 q 199 1154 199 1076 q 219 1207 199 1185 q 271 1229 239 1229 q 344 1154 344 1229 q 324 1099 344 1122 q 271 1076 303 1076 z "},"Ì":{"ha":468,"x_min":10,"x_max":415,"o":"m 69 0 l 61 54 q 151 82 135 67 q 167 140 167 97 l 167 822 q 151 881 167 865 q 61 908 135 896 l 69 963 l 410 963 l 415 908 l 329 892 q 301 856 301 886 l 301 107 q 329 71 301 76 l 415 54 l 410 0 l 69 0 m 21 1169 l 10 1199 l 93 1269 l 335 1090 l 300 1040 l 21 1169 z "},"Í":{"ha":468,"x_min":61,"x_max":433,"o":"m 69 0 l 61 54 q 151 82 135 67 q 167 140 167 97 l 167 822 q 151 881 167 865 q 61 908 135 896 l 69 963 l 410 963 l 415 908 l 329 892 q 301 856 301 886 l 301 107 q 329 71 301 76 l 415 54 l 410 0 l 69 0 m 433 1199 l 422 1169 l 143 1040 l 108 1090 l 350 1269 l 433 1199 z "},"Î":{"ha":468,"x_min":6,"x_max":461,"o":"m 69 0 l 61 54 q 151 82 135 67 q 167 140 167 97 l 167 822 q 151 881 167 865 q 61 908 135 896 l 69 963 l 410 963 l 415 908 l 329 892 q 301 856 301 886 l 301 107 q 329 71 301 76 l 415 54 l 410 0 l 69 0 m 426 1040 l 233 1167 l 40 1040 l 6 1076 l 194 1269 l 272 1269 l 461 1076 l 426 1040 z "},"Ï":{"ha":468,"x_min":26,"x_max":440,"o":"m 69 0 l 61 54 q 151 82 135 67 q 167 140 167 97 l 167 822 q 151 881 167 865 q 61 908 135 896 l 69 963 l 410 963 l 415 908 l 329 892 q 301 856 301 886 l 301 107 q 329 71 301 76 l 415 54 l 410 0 l 69 0 m 367 1076 q 294 1154 294 1076 q 315 1207 294 1185 q 367 1229 335 1229 q 440 1154 440 1229 q 419 1099 440 1122 q 367 1076 399 1076 m 99 1076 q 26 1154 26 1076 q 47 1207 26 1185 q 99 1229 67 1229 q 172 1154 172 1229 q 151 1099 172 1122 q 99 1076 131 1076 z "},"Ð":{"ha":990,"x_min":38,"x_max":942,"o":"m 38 469 l 38 553 l 167 553 l 167 822 q 151 881 167 865 q 61 908 135 896 l 69 963 l 504 963 q 711 924 624 963 q 847 819 799 886 q 942 511 942 692 q 836 165 942 313 q 690 45 783 90 q 474 0 596 0 l 69 0 l 61 54 q 151 82 135 67 q 167 140 167 97 l 167 469 l 38 469 m 331 93 q 478 74 428 74 q 710 183 632 74 q 788 476 788 293 q 758 676 788 592 q 678 806 728 761 q 472 889 583 889 l 301 889 l 301 553 l 533 553 l 533 469 l 301 469 l 301 129 q 331 93 301 99 z "},"Ñ":{"ha":1076,"x_min":61,"x_max":1026,"o":"m 764 1238 l 799 1221 q 740 1119 769 1157 q 678 1081 710 1081 q 555 1099 647 1081 q 429 1118 463 1118 q 329 1071 376 1118 l 297 1093 q 374 1197 342 1167 q 438 1226 406 1226 q 559 1208 469 1226 q 683 1189 649 1189 q 764 1238 718 1189 m 69 0 l 61 54 q 151 82 135 67 q 167 140 167 97 l 167 822 q 151 881 167 865 q 61 908 135 896 l 69 963 l 176 963 l 258 963 l 335 963 l 810 263 l 819 263 l 819 794 q 797 878 819 857 q 686 908 774 899 l 694 963 l 1021 963 l 1026 908 l 940 892 q 913 856 913 886 l 913 0 l 831 0 l 831 0 l 826 0 l 271 822 l 260 822 l 260 139 q 273 88 260 104 q 321 67 286 71 l 418 54 l 413 0 l 69 0 z "},"Ò":{"ha":988,"x_min":49,"x_max":939,"o":"m 487 -12 q 382 -12 487 -12 q 163 117 276 -12 q 49 473 49 247 q 169 837 49 699 q 501 975 290 975 q 825 848 711 975 q 939 495 939 721 q 818 128 939 269 q 487 -12 697 -12 m 506 61 q 637 96 581 61 q 725 192 693 131 q 785 489 785 310 q 706 785 785 668 q 482 901 628 901 q 351 867 407 901 q 264 774 294 833 q 203 480 203 658 q 281 181 203 301 q 506 61 358 61 m 314 1169 l 303 1199 l 386 1269 l 628 1090 l 593 1040 l 314 1169 z "},"Ó":{"ha":988,"x_min":49,"x_max":939,"o":"m 487 -12 q 382 -12 487 -12 q 163 117 276 -12 q 49 473 49 247 q 169 837 49 699 q 501 975 290 975 q 825 848 711 975 q 939 495 939 721 q 818 128 939 269 q 487 -12 697 -12 m 506 61 q 637 96 581 61 q 725 192 693 131 q 785 489 785 310 q 706 785 785 668 q 482 901 628 901 q 351 867 407 901 q 264 774 294 833 q 203 480 203 658 q 281 181 203 301 q 506 61 358 61 m 690 1199 l 679 1169 l 400 1040 l 365 1090 l 607 1269 l 690 1199 z "},"Ô":{"ha":988,"x_min":49,"x_max":939,"o":"m 487 -12 q 382 -12 487 -12 q 163 117 276 -12 q 49 473 49 247 q 169 837 49 699 q 501 975 290 975 q 825 848 711 975 q 939 495 939 721 q 818 128 939 269 q 487 -12 697 -12 m 506 61 q 637 96 581 61 q 725 192 693 131 q 785 489 785 310 q 706 785 785 668 q 482 901 628 901 q 351 867 407 901 q 264 774 294 833 q 203 480 203 658 q 281 181 203 301 q 506 61 358 61 m 686 1040 l 493 1167 l 300 1040 l 265 1076 l 454 1269 l 532 1269 l 721 1076 l 686 1040 z "},"Õ":{"ha":988,"x_min":49,"x_max":939,"o":"m 487 -12 q 382 -12 487 -12 q 163 117 276 -12 q 49 473 49 247 q 169 837 49 699 q 501 975 290 975 q 825 848 711 975 q 939 495 939 721 q 818 128 939 269 q 487 -12 697 -12 m 506 61 q 637 96 581 61 q 725 192 693 131 q 785 489 785 310 q 706 785 785 668 q 482 901 628 901 q 351 867 407 901 q 264 774 294 833 q 203 480 203 658 q 281 181 203 301 q 506 61 358 61 m 715 1238 l 750 1221 q 691 1119 721 1157 q 630 1081 661 1081 q 506 1099 599 1081 q 381 1118 414 1118 q 281 1071 328 1118 l 249 1093 q 325 1197 293 1167 q 389 1226 357 1226 q 510 1208 421 1226 q 635 1189 600 1189 q 715 1238 669 1189 z "},"Ö":{"ha":988,"x_min":49,"x_max":939,"o":"m 487 -12 q 382 -12 487 -12 q 163 117 276 -12 q 49 473 49 247 q 169 837 49 699 q 501 975 290 975 q 825 848 711 975 q 939 495 939 721 q 818 128 939 269 q 487 -12 697 -12 m 506 61 q 637 96 581 61 q 725 192 693 131 q 785 489 785 310 q 706 785 785 668 q 482 901 628 901 q 351 867 407 901 q 264 774 294 833 q 203 480 203 658 q 281 181 203 301 q 506 61 358 61 m 621 1076 q 549 1154 549 1076 q 569 1207 549 1185 q 621 1229 589 1229 q 694 1154 694 1229 q 674 1099 694 1122 q 621 1076 653 1076 m 353 1076 q 281 1154 281 1076 q 301 1207 281 1185 q 353 1229 321 1229 q 426 1154 426 1229 q 406 1099 426 1122 q 353 1076 385 1076 z "},"×":{"ha":721,"x_min":118,"x_max":603,"o":"m 168 104 l 118 154 l 311 347 l 119 539 l 169 588 l 360 397 l 551 588 l 603 538 l 410 347 l 603 153 l 553 104 l 361 297 l 168 104 z "},"Ø":{"ha":985,"x_min":49,"x_max":939,"o":"m 483 -12 q 308 17 392 -12 l 242 -111 l 167 -83 l 236 53 q 49 469 49 176 q 169 837 49 699 q 504 975 290 975 q 692 939 608 975 l 761 1072 l 838 1044 l 763 900 q 939 492 939 775 q 818 125 939 263 q 483 -12 697 -12 m 203 493 q 293 164 203 282 l 644 847 q 492 901 578 901 q 351 867 407 901 q 264 775 294 833 q 203 493 203 660 m 354 106 q 501 61 421 61 q 637 95 581 61 q 725 189 693 129 q 785 484 785 303 q 703 785 785 665 l 354 106 z "},"Ù":{"ha":1022,"x_min":54,"x_max":1004,"o":"m 797 796 q 774 878 797 857 q 664 908 751 899 l 672 963 l 999 963 l 1004 908 l 918 892 q 892 872 893 886 q 890 856 890 867 l 890 357 q 797 87 890 186 q 518 -12 704 -12 q 160 346 160 -12 l 160 822 q 144 881 160 865 q 54 908 128 896 l 63 963 l 403 963 l 408 908 l 322 892 q 294 856 294 886 l 294 367 q 353 153 294 225 q 542 81 411 81 q 735 158 674 81 q 797 346 797 236 l 797 796 m 303 1169 l 292 1199 l 375 1269 l 617 1090 l 582 1040 l 303 1169 z "},"Ú":{"ha":1022,"x_min":54,"x_max":1004,"o":"m 797 796 q 774 878 797 857 q 664 908 751 899 l 672 963 l 999 963 l 1004 908 l 918 892 q 892 872 893 886 q 890 856 890 867 l 890 357 q 797 87 890 186 q 518 -12 704 -12 q 160 346 160 -12 l 160 822 q 144 881 160 865 q 54 908 128 896 l 63 963 l 403 963 l 408 908 l 322 892 q 294 856 294 886 l 294 367 q 353 153 294 225 q 542 81 411 81 q 735 158 674 81 q 797 346 797 236 l 797 796 m 771 1199 l 760 1169 l 481 1040 l 446 1090 l 688 1269 l 771 1199 z "},"Û":{"ha":1022,"x_min":54,"x_max":1004,"o":"m 797 796 q 774 878 797 857 q 664 908 751 899 l 672 963 l 999 963 l 1004 908 l 918 892 q 892 872 893 886 q 890 856 890 867 l 890 357 q 797 87 890 186 q 518 -12 704 -12 q 160 346 160 -12 l 160 822 q 144 881 160 865 q 54 908 128 896 l 63 963 l 403 963 l 408 908 l 322 892 q 294 856 294 886 l 294 367 q 353 153 294 225 q 542 81 411 81 q 735 158 674 81 q 797 346 797 236 l 797 796 m 717 1040 l 524 1167 l 331 1040 l 296 1076 l 485 1269 l 563 1269 l 751 1076 l 717 1040 z "},"Ü":{"ha":1022,"x_min":54,"x_max":1004,"o":"m 797 796 q 774 878 797 857 q 664 908 751 899 l 672 963 l 999 963 l 1004 908 l 918 892 q 892 872 893 886 q 890 856 890 867 l 890 357 q 797 87 890 186 q 518 -12 704 -12 q 160 346 160 -12 l 160 822 q 144 881 160 865 q 54 908 128 896 l 63 963 l 403 963 l 408 908 l 322 892 q 294 856 294 886 l 294 367 q 353 153 294 225 q 542 81 411 81 q 735 158 674 81 q 797 346 797 236 l 797 796 m 663 1076 q 590 1154 590 1076 q 610 1207 590 1185 q 663 1229 631 1229 q 736 1154 736 1229 q 715 1099 736 1122 q 663 1076 694 1076 m 394 1076 q 322 1154 322 1076 q 342 1207 322 1185 q 394 1229 363 1229 q 468 1154 468 1229 q 447 1099 468 1122 q 394 1076 426 1076 z "},"Ý":{"ha":831,"x_min":7,"x_max":832,"o":"m 443 501 l 597 800 q 626 868 626 856 q 609 888 626 881 q 543 907 592 896 l 551 963 l 826 963 l 832 904 q 747 877 771 892 q 707 829 724 863 l 488 399 l 488 107 q 515 71 488 75 l 622 54 l 617 0 l 235 0 l 226 54 q 333 83 314 68 q 353 140 353 97 l 353 388 l 103 847 q 70 887 85 878 q 7 907 56 896 l 17 963 l 343 963 l 349 906 l 256 881 q 246 872 246 879 q 256 849 246 865 l 415 542 q 429 501 429 518 l 443 501 m 675 1199 l 664 1169 l 385 1040 l 350 1090 l 592 1269 l 675 1199 z "},"Þ":{"ha":788,"x_min":61,"x_max":763,"o":"m 167 140 l 167 822 q 151 881 167 865 q 61 908 135 896 l 69 963 l 410 963 l 415 908 l 329 892 q 301 856 301 886 l 301 774 l 450 774 q 684 706 606 774 q 763 517 763 638 q 658 310 763 396 q 360 225 554 225 l 301 225 l 301 107 q 329 71 301 74 l 450 54 l 444 0 l 69 0 l 61 54 q 151 82 135 67 q 167 140 167 97 m 408 700 l 329 700 q 301 669 301 700 l 301 299 l 335 299 q 511 336 433 299 q 582 401 556 357 q 608 503 608 444 q 589 603 608 563 q 538 664 569 644 q 408 700 478 700 z "},"ß":{"ha":940,"x_min":63,"x_max":872,"o":"m 639 61 q 753 153 753 61 q 713 228 753 200 q 631 275 676 254 q 472 372 513 326 q 431 488 431 418 q 500 631 431 563 q 556 688 528 660 q 625 830 625 754 q 582 952 625 906 q 474 999 539 999 q 332 905 379 999 q 285 647 285 811 l 285 0 l 71 0 l 63 54 q 145 83 131 68 q 160 133 160 97 l 160 563 l 69 563 l 64 622 l 132 639 q 156 654 150 643 q 163 689 161 665 q 167 732 164 713 q 178 794 169 751 q 201 870 188 838 q 240 943 214 903 q 300 1010 267 983 q 492 1072 382 1072 q 676 1011 603 1072 q 750 844 750 950 q 717 742 750 789 q 646 667 685 694 q 574 599 607 639 q 542 518 542 560 q 572 453 542 479 q 592 437 585 443 q 617 421 599 431 q 644 408 636 411 l 675 394 q 810 318 774 349 q 859 258 846 288 q 872 190 872 228 q 802 46 872 104 q 617 -12 732 -12 q 432 21 503 -12 q 429 90 429 35 q 442 175 429 146 l 508 179 q 523 99 518 114 q 536 81 528 83 q 639 61 583 61 z "},"à":{"ha":711,"x_min":58,"x_max":667,"o":"m 58 171 q 147 326 58 275 q 436 379 236 378 l 436 424 q 306 604 436 604 q 227 586 243 604 q 193 468 211 568 l 118 476 q 107 566 107 519 q 108 626 107 613 q 324 678 190 678 q 509 626 457 678 q 561 457 561 575 l 561 138 q 578 87 561 101 q 667 58 596 72 l 658 14 l 492 -4 q 463 22 478 -4 q 447 72 447 49 q 449 106 447 94 l 438 110 l 421 85 q 242 -12 356 -12 q 111 36 164 -12 q 58 171 58 85 m 193 183 q 219 108 193 133 q 294 82 246 82 q 404 129 343 82 q 436 182 436 154 l 436 318 q 252 285 311 315 q 193 183 193 254 m 174 989 l 174 1021 l 285 1063 l 433 814 l 385 779 l 174 989 z "},"á":{"ha":711,"x_min":58,"x_max":667,"o":"m 58 171 q 147 326 58 275 q 436 379 236 378 l 436 424 q 306 604 436 604 q 227 586 243 604 q 193 468 211 568 l 118 476 q 107 566 107 519 q 108 626 107 613 q 324 678 190 678 q 509 626 457 678 q 561 457 561 575 l 561 138 q 578 87 561 101 q 667 58 596 72 l 658 14 l 492 -4 q 463 22 478 -4 q 447 72 447 49 q 449 106 447 94 l 438 110 l 421 85 q 242 -12 356 -12 q 111 36 164 -12 q 58 171 58 85 m 193 183 q 219 108 193 133 q 294 82 246 82 q 404 129 343 82 q 436 182 436 154 l 436 318 q 252 285 311 315 q 193 183 193 254 m 522 1021 l 522 989 l 311 779 l 263 814 l 411 1063 l 522 1021 z "},"â":{"ha":711,"x_min":58,"x_max":667,"o":"m 58 171 q 147 326 58 275 q 436 379 236 378 l 436 424 q 306 604 436 604 q 227 586 243 604 q 193 468 211 568 l 118 476 q 107 566 107 519 q 108 626 107 613 q 324 678 190 678 q 509 626 457 678 q 561 457 561 575 l 561 138 q 578 87 561 101 q 667 58 596 72 l 658 14 l 492 -4 q 463 22 478 -4 q 447 72 447 49 q 449 106 447 94 l 438 110 l 421 85 q 242 -12 356 -12 q 111 36 164 -12 q 58 171 58 85 m 193 183 q 219 108 193 133 q 294 82 246 82 q 404 129 343 82 q 436 182 436 154 l 436 318 q 252 285 311 315 q 193 183 193 254 m 379 1049 l 543 814 l 494 779 l 335 943 l 176 779 l 128 814 l 292 1049 l 379 1049 z "},"ã":{"ha":711,"x_min":58,"x_max":667,"o":"m 58 171 q 147 326 58 275 q 436 379 236 378 l 436 424 q 306 604 436 604 q 227 586 243 604 q 193 468 211 568 l 118 476 q 107 566 107 519 q 108 626 107 613 q 324 678 190 678 q 509 626 457 678 q 561 457 561 575 l 561 138 q 578 87 561 101 q 667 58 596 72 l 658 14 l 492 -4 q 463 22 478 -4 q 447 72 447 49 q 449 106 447 94 l 438 110 l 421 85 q 242 -12 356 -12 q 111 36 164 -12 q 58 171 58 85 m 193 183 q 219 108 193 133 q 294 82 246 82 q 404 129 343 82 q 436 182 436 154 l 436 318 q 252 285 311 315 q 193 183 193 254 m 561 993 l 596 975 q 537 867 567 907 q 476 826 507 826 q 352 856 444 826 q 226 885 260 885 q 126 826 174 885 l 94 850 q 171 960 139 928 q 235 992 203 992 q 356 963 267 992 q 480 933 446 933 q 561 993 514 933 z "},"ä":{"ha":711,"x_min":58,"x_max":667,"o":"m 58 171 q 147 326 58 275 q 436 379 236 378 l 436 424 q 306 604 436 604 q 227 586 243 604 q 193 468 211 568 l 118 476 q 107 566 107 519 q 108 626 107 613 q 324 678 190 678 q 509 626 457 678 q 561 457 561 575 l 561 138 q 578 87 561 101 q 667 58 596 72 l 658 14 l 492 -4 q 463 22 478 -4 q 447 72 447 49 q 449 106 447 94 l 438 110 l 421 85 q 242 -12 356 -12 q 111 36 164 -12 q 58 171 58 85 m 193 183 q 219 108 193 133 q 294 82 246 82 q 404 129 343 82 q 436 182 436 154 l 436 318 q 252 285 311 315 q 193 183 193 254 m 467 833 q 394 911 394 833 q 415 964 394 942 q 467 986 435 986 q 540 911 540 986 q 519 856 540 879 q 467 833 499 833 m 199 833 q 126 911 126 833 q 147 964 126 942 q 199 986 167 986 q 272 911 272 986 q 251 856 272 879 q 199 833 231 833 z "},"å":{"ha":711,"x_min":58,"x_max":667,"o":"m 58 171 q 147 326 58 275 q 436 379 236 378 l 436 424 q 306 604 436 604 q 227 586 243 604 q 193 468 211 568 l 118 476 q 107 566 107 519 q 108 626 107 613 q 324 678 190 678 q 509 626 457 678 q 561 457 561 575 l 561 138 q 578 87 561 101 q 667 58 596 72 l 658 14 l 492 -4 q 463 22 478 -4 q 447 72 447 49 q 449 106 447 94 l 438 110 l 421 85 q 242 -12 356 -12 q 111 36 164 -12 q 58 171 58 85 m 193 183 q 219 108 193 133 q 294 82 246 82 q 404 129 343 82 q 436 182 436 154 l 436 318 q 252 285 311 315 q 193 183 193 254 m 475 919 q 475 889 475 919 q 438 821 475 858 q 336 783 401 783 q 236 817 271 783 q 201 914 201 851 q 238 1013 201 976 q 340 1049 275 1049 q 440 1015 406 1049 q 475 919 475 981 m 335 843 q 387 865 368 843 q 406 921 406 886 q 342 989 406 989 q 289 968 308 989 q 269 913 269 947 q 335 843 269 843 z "},"æ":{"ha":1060,"x_min":58,"x_max":1014,"o":"m 193 468 l 118 476 q 107 566 107 519 q 108 626 107 613 q 343 678 190 678 q 539 583 496 678 q 767 678 629 678 q 1014 388 1003 678 l 978 361 l 575 339 q 794 82 575 82 q 982 129 890 82 l 1011 83 q 892 17 965 46 q 738 -12 818 -12 q 485 136 561 -12 l 476 136 q 381 30 442 72 q 242 -12 321 -12 q 111 36 164 -12 q 58 179 58 85 q 147 326 58 274 q 436 392 235 379 l 436 424 q 306 604 436 604 q 227 586 243 604 q 193 468 211 568 m 579 403 l 867 428 q 881 454 881 429 q 848 560 881 515 q 738 604 815 604 q 624 552 660 604 q 579 403 589 500 m 436 182 l 436 331 q 251 285 308 318 q 193 183 193 253 q 219 109 193 135 q 296 83 246 83 q 404 129 346 83 q 436 182 436 154 z "},"ç":{"ha":650,"x_min":47,"x_max":618,"o":"m 114 561 q 216 647 149 615 q 383 678 283 678 q 579 639 482 678 q 581 567 581 628 q 564 449 581 507 l 486 440 q 444 589 464 581 q 340 601 415 601 q 231 550 265 601 q 182 341 182 476 q 241 144 182 206 q 395 82 300 82 q 579 143 490 82 l 618 97 q 353 -12 506 -12 q 124 83 201 -12 q 47 319 47 178 q 114 561 47 460 m 279 -301 l 274 -258 q 406 -178 406 -240 q 389 -140 406 -156 q 341 -125 372 -125 q 285 -139 310 -125 l 272 -124 l 325 56 l 393 38 l 364 -67 q 413 -62 386 -62 q 488 -86 457 -62 q 519 -151 519 -110 q 455 -253 519 -210 q 279 -301 390 -296 z "},"è":{"ha":664,"x_min":47,"x_max":618,"o":"m 342 -12 q 124 83 201 -12 q 47 326 47 179 q 136 575 47 472 q 371 678 225 678 q 618 388 607 678 l 582 361 l 179 339 q 399 82 179 82 q 586 129 494 82 l 615 83 q 496 17 569 46 q 342 -12 422 -12 m 183 403 l 471 428 q 485 454 485 429 q 452 560 485 515 q 342 604 419 604 q 228 552 264 604 q 183 403 193 500 m 144 989 l 144 1021 l 256 1063 l 404 814 l 356 779 l 144 989 z "},"é":{"ha":664,"x_min":47,"x_max":618,"o":"m 342 -12 q 124 83 201 -12 q 47 326 47 179 q 136 575 47 472 q 371 678 225 678 q 618 388 607 678 l 582 361 l 179 339 q 399 82 179 82 q 586 129 494 82 l 615 83 q 496 17 569 46 q 342 -12 422 -12 m 183 403 l 471 428 q 485 454 485 429 q 452 560 485 515 q 342 604 419 604 q 228 552 264 604 q 183 403 193 500 m 549 1021 l 549 989 l 338 779 l 289 814 l 438 1063 l 549 1021 z "},"ê":{"ha":664,"x_min":47,"x_max":618,"o":"m 342 -12 q 124 83 201 -12 q 47 326 47 179 q 136 575 47 472 q 371 678 225 678 q 618 388 607 678 l 582 361 l 179 339 q 399 82 179 82 q 586 129 494 82 l 615 83 q 496 17 569 46 q 342 -12 422 -12 m 183 403 l 471 428 q 485 454 485 429 q 452 560 485 515 q 342 604 419 604 q 228 552 264 604 q 183 403 193 500 m 385 1049 l 549 814 l 500 779 l 340 943 l 182 779 l 133 814 l 297 1049 l 385 1049 z "},"ë":{"ha":664,"x_min":47,"x_max":618,"o":"m 342 -12 q 124 83 201 -12 q 47 326 47 179 q 136 575 47 472 q 371 678 225 678 q 618 388 607 678 l 582 361 l 179 339 q 399 82 179 82 q 586 129 494 82 l 615 83 q 496 17 569 46 q 342 -12 422 -12 m 183 403 l 471 428 q 485 454 485 429 q 452 560 485 515 q 342 604 419 604 q 228 552 264 604 q 183 403 193 500 m 483 833 q 411 911 411 833 q 431 964 411 942 q 483 986 451 986 q 557 911 557 986 q 536 856 557 879 q 483 833 515 833 m 215 833 q 143 911 143 833 q 163 964 143 942 q 215 986 183 986 q 289 911 289 986 q 268 856 289 879 q 215 833 247 833 z "},"ì":{"ha":431,"x_min":22,"x_max":375,"o":"m 22 989 l 22 1021 l 133 1063 l 282 814 l 233 779 l 22 989 m 65 0 l 57 54 q 140 83 125 68 q 154 133 154 97 l 154 532 q 132 574 154 561 q 49 600 110 588 l 57 644 q 264 664 206 664 l 279 650 l 279 100 q 287 78 279 83 q 307 71 294 74 l 375 54 l 369 0 l 65 0 z "},"í":{"ha":431,"x_min":49,"x_max":400,"o":"m 400 1021 l 400 989 l 189 779 l 140 814 l 289 1063 l 400 1021 m 65 0 l 57 54 q 140 83 125 68 q 154 133 154 97 l 154 532 q 132 574 154 561 q 49 600 110 588 l 57 644 q 264 664 206 664 l 279 650 l 279 100 q 287 78 279 83 q 307 71 294 74 l 375 54 l 369 0 l 65 0 z "},"î":{"ha":431,"x_min":-7,"x_max":408,"o":"m 244 1049 l 408 814 l 360 779 l 200 943 l 42 779 l -7 814 l 157 1049 l 244 1049 m 65 0 l 57 54 q 140 83 125 68 q 154 133 154 97 l 154 532 q 132 574 154 561 q 49 600 110 588 l 57 644 q 264 664 206 664 l 279 650 l 279 100 q 287 78 279 83 q 307 71 294 74 l 375 54 l 369 0 l 65 0 z "},"ï":{"ha":431,"x_min":-4,"x_max":410,"o":"m 336 833 q 264 911 264 833 q 284 964 264 942 q 336 986 304 986 q 410 911 410 986 q 389 856 410 879 q 336 833 368 833 m 68 833 q -4 911 -4 833 q 16 964 -4 942 q 68 986 36 986 q 142 911 142 986 q 121 856 142 879 q 68 833 100 833 m 65 0 l 57 54 q 140 83 125 68 q 154 133 154 97 l 154 532 q 132 574 154 561 q 49 600 110 588 l 57 644 q 264 664 206 664 l 279 650 l 279 100 q 287 78 279 83 q 307 71 294 74 l 375 54 l 369 0 l 65 0 z "},"ð":{"ha":740,"x_min":44,"x_max":678,"o":"m 578 1075 l 633 1025 l 450 950 q 678 342 678 689 q 592 83 678 179 q 356 -12 507 -12 q 125 76 206 -12 q 44 325 44 165 q 130 581 44 485 q 369 678 215 678 q 497 656 438 678 q 364 914 453 804 l 207 850 l 153 899 l 318 967 q 236 1040 281 1007 l 308 1079 q 401 1001 354 1046 l 578 1075 m 543 322 q 492 526 543 449 q 356 604 442 604 q 235 563 271 604 q 194 474 210 535 q 179 343 179 414 q 229 140 179 219 q 365 61 279 61 q 488 103 451 61 q 528 191 513 131 q 543 322 543 251 z "},"ñ":{"ha":828,"x_min":49,"x_max":796,"o":"m 65 0 l 57 54 q 140 83 125 68 q 154 133 154 97 l 154 533 q 137 584 154 569 q 49 613 119 599 l 57 657 l 236 675 q 256 636 246 675 q 267 568 267 597 l 267 560 l 278 556 l 294 575 q 508 678 382 678 q 649 624 597 678 q 700 475 700 571 l 700 100 q 708 78 700 83 q 728 71 715 74 l 796 54 l 790 0 l 493 0 l 485 54 q 561 82 547 67 q 575 133 575 97 l 575 433 q 551 538 575 499 q 459 578 528 578 q 310 524 390 578 q 292 511 297 515 q 279 460 279 497 l 279 101 q 284 81 279 86 q 307 71 289 75 l 368 54 l 363 0 l 65 0 m 643 993 l 678 975 q 619 867 649 907 q 558 826 589 826 q 434 856 526 826 q 308 885 342 885 q 208 826 256 885 l 176 850 q 253 960 221 928 q 317 992 285 992 q 438 963 349 992 q 562 933 528 933 q 643 993 596 933 z "},"ò":{"ha":722,"x_min":44,"x_max":678,"o":"m 356 -12 q 281 -12 356 -12 q 125 76 206 -12 q 44 325 44 165 q 130 581 44 485 q 366 678 215 678 q 597 588 517 678 q 678 339 678 499 q 592 83 678 179 q 356 -12 507 -12 m 179 343 q 229 140 179 219 q 365 61 279 61 q 488 103 451 61 q 528 191 513 131 q 543 322 543 251 q 493 525 543 446 q 357 604 443 604 q 235 563 271 604 q 194 474 210 535 q 179 343 179 414 m 178 989 l 178 1021 l 289 1063 l 438 814 l 389 779 l 178 989 z "},"ó":{"ha":722,"x_min":44,"x_max":678,"o":"m 356 -12 q 281 -12 356 -12 q 125 76 206 -12 q 44 325 44 165 q 130 581 44 485 q 366 678 215 678 q 597 588 517 678 q 678 339 678 499 q 592 83 678 179 q 356 -12 507 -12 m 179 343 q 229 140 179 219 q 365 61 279 61 q 488 103 451 61 q 528 191 513 131 q 543 322 543 251 q 493 525 543 446 q 357 604 443 604 q 235 563 271 604 q 194 474 210 535 q 179 343 179 414 m 542 1021 l 542 989 l 331 779 l 282 814 l 431 1063 l 542 1021 z "},"ô":{"ha":722,"x_min":44,"x_max":678,"o":"m 356 -12 q 281 -12 356 -12 q 125 76 206 -12 q 44 325 44 165 q 130 581 44 485 q 366 678 215 678 q 597 588 517 678 q 678 339 678 499 q 592 83 678 179 q 356 -12 507 -12 m 179 343 q 229 140 179 219 q 365 61 279 61 q 488 103 451 61 q 528 191 513 131 q 543 322 543 251 q 493 525 543 446 q 357 604 443 604 q 235 563 271 604 q 194 474 210 535 q 179 343 179 414 m 397 1049 l 561 814 l 513 779 l 353 943 l 194 779 l 146 814 l 310 1049 l 397 1049 z "},"õ":{"ha":722,"x_min":44,"x_max":678,"o":"m 356 -12 q 281 -12 356 -12 q 125 76 206 -12 q 44 325 44 165 q 130 581 44 485 q 366 678 215 678 q 597 588 517 678 q 678 339 678 499 q 592 83 678 179 q 356 -12 507 -12 m 179 343 q 229 140 179 219 q 365 61 279 61 q 488 103 451 61 q 528 191 513 131 q 543 322 543 251 q 493 525 543 446 q 357 604 443 604 q 235 563 271 604 q 194 474 210 535 q 179 343 179 414 m 576 993 l 611 975 q 552 867 582 907 q 491 826 522 826 q 367 856 460 826 q 242 885 275 885 q 142 826 189 885 l 110 850 q 186 960 154 928 q 250 992 218 992 q 372 963 282 992 q 495 933 461 933 q 576 993 529 933 z "},"ö":{"ha":722,"x_min":44,"x_max":678,"o":"m 356 -12 q 281 -12 356 -12 q 125 76 206 -12 q 44 325 44 165 q 130 581 44 485 q 366 678 215 678 q 597 588 517 678 q 678 339 678 499 q 592 83 678 179 q 356 -12 507 -12 m 179 343 q 229 140 179 219 q 365 61 279 61 q 488 103 451 61 q 528 191 513 131 q 543 322 543 251 q 493 525 543 446 q 357 604 443 604 q 235 563 271 604 q 194 474 210 535 q 179 343 179 414 m 482 833 q 410 911 410 833 q 430 964 410 942 q 482 986 450 986 q 556 911 556 986 q 535 856 556 879 q 482 833 514 833 m 214 833 q 142 911 142 833 q 162 964 142 942 q 214 986 182 986 q 288 911 288 986 q 267 856 288 879 q 214 833 246 833 z "},"÷":{"ha":647,"x_min":63,"x_max":585,"o":"m 396 604 q 373 547 396 571 q 315 522 350 522 q 257 543 279 522 q 235 600 235 564 q 257 660 235 636 q 314 683 279 683 q 396 604 396 683 m 396 171 q 373 113 396 138 q 315 89 350 89 q 257 110 279 89 q 235 167 235 131 q 257 226 235 203 q 314 250 279 250 q 396 171 396 250 m 63 339 l 63 413 l 585 413 l 585 339 l 63 339 z "},"ø":{"ha":722,"x_min":44,"x_max":678,"o":"m 353 -12 q 226 8 281 -12 l 175 -92 l 100 -64 l 157 47 q 44 322 44 135 q 130 581 44 485 q 369 678 215 678 q 472 664 421 678 l 540 794 l 617 767 l 546 631 q 678 342 678 546 q 592 83 678 179 q 353 -12 507 -12 m 349 604 q 235 563 271 604 q 194 474 210 535 q 179 324 179 414 q 215 163 179 233 l 432 583 q 349 604 393 604 m 543 322 q 493 525 543 447 l 271 94 q 382 61 313 61 q 488 103 451 61 q 528 191 513 131 q 543 322 543 251 z "},"ù":{"ha":801,"x_min":22,"x_max":769,"o":"m 128 172 l 128 539 q 106 581 128 568 q 22 607 83 594 l 31 651 q 238 671 179 671 l 253 657 l 253 232 q 363 88 253 88 q 510 142 433 88 q 533 166 528 154 q 539 206 539 178 l 539 539 q 517 581 539 568 q 433 607 494 594 l 442 651 q 649 671 590 671 l 664 657 l 664 138 q 681 87 664 101 q 769 58 699 72 l 761 14 l 582 -6 q 562 31 572 -7 q 551 97 551 69 l 551 106 l 540 110 l 524 90 q 310 -12 436 -12 q 176 33 225 -12 q 128 172 128 78 m 192 989 l 192 1021 l 303 1063 l 451 814 l 403 779 l 192 989 z "},"ú":{"ha":801,"x_min":22,"x_max":769,"o":"m 128 172 l 128 539 q 106 581 128 568 q 22 607 83 594 l 31 651 q 238 671 179 671 l 253 657 l 253 232 q 363 88 253 88 q 510 142 433 88 q 533 166 528 154 q 539 206 539 178 l 539 539 q 517 581 539 568 q 433 607 494 594 l 442 651 q 649 671 590 671 l 664 657 l 664 138 q 681 87 664 101 q 769 58 699 72 l 761 14 l 582 -6 q 562 31 572 -7 q 551 97 551 69 l 551 106 l 540 110 l 524 90 q 310 -12 436 -12 q 176 33 225 -12 q 128 172 128 78 m 586 1021 l 586 989 l 375 779 l 326 814 l 475 1063 l 586 1021 z "},"û":{"ha":801,"x_min":22,"x_max":769,"o":"m 128 172 l 128 539 q 106 581 128 568 q 22 607 83 594 l 31 651 q 238 671 179 671 l 253 657 l 253 232 q 363 88 253 88 q 510 142 433 88 q 533 166 528 154 q 539 206 539 178 l 539 539 q 517 581 539 568 q 433 607 494 594 l 442 651 q 649 671 590 671 l 664 657 l 664 138 q 681 87 664 101 q 769 58 699 72 l 761 14 l 582 -6 q 562 31 572 -7 q 551 97 551 69 l 551 106 l 540 110 l 524 90 q 310 -12 436 -12 q 176 33 225 -12 q 128 172 128 78 m 425 1049 l 589 814 l 540 779 l 381 943 l 222 779 l 174 814 l 338 1049 l 425 1049 z "},"ü":{"ha":801,"x_min":22,"x_max":769,"o":"m 128 172 l 128 539 q 106 581 128 568 q 22 607 83 594 l 31 651 q 238 671 179 671 l 253 657 l 253 232 q 363 88 253 88 q 510 142 433 88 q 533 166 528 154 q 539 206 539 178 l 539 539 q 517 581 539 568 q 433 607 494 594 l 442 651 q 649 671 590 671 l 664 657 l 664 138 q 681 87 664 101 q 769 58 699 72 l 761 14 l 582 -6 q 562 31 572 -7 q 551 97 551 69 l 551 106 l 540 110 l 524 90 q 310 -12 436 -12 q 176 33 225 -12 q 128 172 128 78 m 513 833 q 440 911 440 833 q 460 964 440 942 q 513 986 481 986 q 586 911 586 986 q 565 856 586 879 q 513 833 544 833 m 244 833 q 172 911 172 833 q 192 964 172 942 q 244 986 213 986 q 318 911 318 986 q 297 856 318 879 q 244 833 276 833 z "},"ý":{"ha":694,"x_min":6,"x_max":701,"o":"m 40 -162 q 133 -167 74 -167 q 226 -152 192 -167 q 310 0 261 -137 l 79 553 q 59 586 68 579 q 6 603 50 593 l 14 657 l 300 657 l 306 603 l 221 582 q 211 571 211 581 q 217 553 211 569 l 358 182 q 365 139 365 163 l 376 139 l 524 521 q 532 558 532 543 q 512 582 532 572 q 440 603 492 592 l 449 657 l 696 657 l 701 603 q 636 579 640 589 l 417 35 q 372 -72 389 -35 q 326 -154 356 -108 q 265 -225 297 -200 q 74 -304 186 -285 q 38 -190 38 -268 q 40 -162 38 -182 m 581 1021 l 581 989 l 369 779 l 321 814 l 469 1063 l 581 1021 z "},"þ":{"ha":786,"x_min":28,"x_max":724,"o":"m 44 -292 l 36 -237 q 119 -209 104 -224 q 133 -158 133 -194 l 133 940 q 111 983 133 969 q 28 1008 89 996 l 36 1053 q 243 1072 185 1072 l 258 1058 l 258 668 q 249 560 258 592 l 260 556 l 274 574 q 467 678 354 678 q 651 588 579 678 q 724 343 724 499 q 642 88 724 188 q 413 -12 560 -12 q 263 24 308 -12 l 253 19 q 258 -42 258 -11 l 258 -192 q 266 -215 258 -210 q 286 -221 274 -219 l 413 -237 l 407 -292 l 44 -292 m 258 467 l 258 135 q 436 67 315 67 q 531 106 496 67 q 589 309 589 171 q 545 513 589 447 q 435 578 501 578 q 296 531 368 578 q 258 467 258 506 z "},"ÿ":{"ha":694,"x_min":6,"x_max":701,"o":"m 40 -162 q 133 -167 74 -167 q 226 -152 192 -167 q 310 0 261 -137 l 79 553 q 59 586 68 579 q 6 603 50 593 l 14 657 l 300 657 l 306 603 l 221 582 q 211 571 211 581 q 217 553 211 569 l 358 182 q 365 139 365 163 l 376 139 l 524 521 q 532 558 532 543 q 512 582 532 572 q 440 603 492 592 l 449 657 l 696 657 l 701 603 q 636 579 640 589 l 417 35 q 372 -72 389 -35 q 326 -154 356 -108 q 265 -225 297 -200 q 74 -304 186 -285 q 38 -190 38 -268 q 40 -162 38 -182 m 501 833 q 429 911 429 833 q 449 964 429 942 q 501 986 469 986 q 575 911 575 986 q 554 856 575 879 q 501 833 533 833 m 233 833 q 161 911 161 833 q 181 964 161 942 q 233 986 201 986 q 307 911 307 986 q 286 856 307 879 q 233 833 265 833 z "},"Ā":{"ha":931,"x_min":10,"x_max":924,"o":"m 19 0 l 10 56 q 74 78 63 69 q 97 115 86 86 l 408 975 l 524 975 l 842 93 q 924 58 849 72 l 918 0 l 594 0 l 586 56 q 683 101 683 75 q 678 131 683 113 l 617 311 l 257 311 l 186 114 q 181 91 181 97 q 189 83 181 85 l 288 57 l 282 0 l 19 0 m 283 385 l 593 385 l 457 775 q 447 815 447 804 l 433 815 l 283 385 m 296 1078 l 296 1161 l 642 1161 l 642 1078 l 296 1078 z "},"ā":{"ha":711,"x_min":58,"x_max":667,"o":"m 58 171 q 147 326 58 275 q 436 379 236 378 l 436 424 q 306 604 436 604 q 227 586 243 604 q 193 468 211 568 l 118 476 q 107 566 107 519 q 108 626 107 613 q 324 678 190 678 q 509 626 457 678 q 561 457 561 575 l 561 138 q 578 87 561 101 q 667 58 596 72 l 658 14 l 492 -4 q 463 22 478 -4 q 447 72 447 49 q 449 106 447 94 l 438 110 l 421 85 q 242 -12 356 -12 q 111 36 164 -12 q 58 171 58 85 m 193 183 q 219 108 193 133 q 294 82 246 82 q 404 129 343 82 q 436 182 436 154 l 436 318 q 252 285 311 315 q 193 183 193 254 m 167 892 l 167 975 l 513 975 l 513 892 l 167 892 z "},"Ă":{"ha":931,"x_min":10,"x_max":924,"o":"m 19 0 l 10 56 q 74 78 63 69 q 97 115 86 86 l 408 975 l 524 975 l 842 93 q 924 58 849 72 l 918 0 l 594 0 l 586 56 q 683 101 683 75 q 678 131 683 113 l 617 311 l 257 311 l 186 114 q 181 91 181 97 q 189 83 181 85 l 288 57 l 282 0 l 19 0 m 283 385 l 593 385 l 457 775 q 447 815 447 804 l 433 815 l 283 385 m 626 1250 l 678 1250 q 621 1110 672 1164 q 471 1056 569 1056 q 321 1110 372 1056 q 264 1250 269 1164 l 315 1250 q 471 1150 339 1150 q 626 1250 603 1150 z "},"ă":{"ha":711,"x_min":58,"x_max":667,"o":"m 58 171 q 147 326 58 275 q 436 379 236 378 l 436 424 q 306 604 436 604 q 227 586 243 604 q 193 468 211 568 l 118 476 q 107 566 107 519 q 108 626 107 613 q 324 678 190 678 q 509 626 457 678 q 561 457 561 575 l 561 138 q 578 87 561 101 q 667 58 596 72 l 658 14 l 492 -4 q 463 22 478 -4 q 447 72 447 49 q 449 106 447 94 l 438 110 l 421 85 q 242 -12 356 -12 q 111 36 164 -12 q 58 171 58 85 m 193 183 q 219 108 193 133 q 294 82 246 82 q 404 129 343 82 q 436 182 436 154 l 436 318 q 252 285 311 315 q 193 183 193 254 m 506 1000 l 557 1000 q 500 847 551 907 q 350 788 449 788 q 200 847 251 788 q 143 1000 149 907 l 194 1000 q 350 882 218 882 q 506 1000 482 882 z "},"Ą":{"ha":931,"x_min":10,"x_max":924,"o":"m 872 -235 q 719 -299 801 -299 q 624 -263 665 -299 q 583 -174 583 -228 q 668 -28 583 -93 q 714 0 689 -12 l 594 0 l 586 56 q 683 101 683 75 q 678 131 683 113 l 617 311 l 257 311 l 186 114 q 181 91 181 97 q 189 83 181 85 l 288 57 l 282 0 l 19 0 l 10 56 q 74 78 63 69 q 97 115 86 86 l 408 975 l 524 975 l 842 93 q 924 58 849 72 l 918 0 l 893 0 q 753 -44 810 -3 q 696 -146 696 -85 q 717 -201 696 -182 q 777 -221 739 -221 q 856 -207 815 -221 l 872 -235 m 283 385 l 593 385 l 457 775 q 447 815 447 804 l 433 815 l 283 385 z "},"ą":{"ha":711,"x_min":58,"x_max":669,"o":"m 193 183 q 219 108 193 133 q 294 82 246 82 q 404 129 343 82 q 436 182 436 154 l 436 318 q 252 285 311 315 q 193 183 193 254 m 58 171 q 147 326 58 275 q 436 379 236 378 l 436 424 q 306 604 436 604 q 227 586 243 604 q 193 468 211 568 l 118 476 q 107 566 107 519 q 108 626 107 613 q 324 678 190 678 q 509 626 457 678 q 561 457 561 575 l 561 138 q 578 87 561 101 q 667 58 596 72 l 658 14 l 628 11 q 542 -33 578 1 q 493 -146 493 -79 q 515 -201 493 -182 q 574 -221 536 -221 q 653 -207 613 -221 l 669 -235 q 517 -299 599 -299 q 422 -263 463 -299 q 381 -174 381 -228 q 456 -19 381 -89 q 481 0 468 -8 q 463 22 472 7 q 447 72 447 49 q 449 106 447 94 l 438 110 l 421 85 q 242 -12 356 -12 q 111 36 164 -12 q 58 171 58 85 z "},"Ć":{"ha":861,"x_min":49,"x_max":828,"o":"m 49 460 q 114 742 49 618 q 343 944 190 888 q 519 975 428 975 q 696 961 611 975 q 807 936 781 947 q 815 828 815 885 q 813 703 815 772 l 733 692 q 679 869 703 853 q 615 890 667 879 q 511 901 563 901 q 281 789 358 901 q 203 493 203 676 q 301 171 203 276 q 546 65 400 65 q 645 78 599 65 q 706 101 692 90 q 751 278 721 113 l 828 275 q 813 50 828 169 q 683 7 769 26 q 506 -12 596 -12 q 164 121 279 -12 q 49 460 49 254 m 724 1199 l 713 1169 l 433 1040 l 399 1090 l 640 1269 l 724 1199 z "},"ć":{"ha":650,"x_min":47,"x_max":618,"o":"m 114 561 q 216 647 149 615 q 383 678 283 678 q 579 639 482 678 q 581 567 581 628 q 564 449 581 507 l 486 440 q 444 589 464 581 q 340 601 415 601 q 231 550 265 601 q 182 341 182 476 q 241 144 182 206 q 395 82 300 82 q 579 143 490 82 l 618 97 q 353 -12 506 -12 q 124 83 201 -12 q 47 319 47 178 q 114 561 47 460 m 579 1021 l 579 989 l 368 779 l 319 814 l 468 1063 l 579 1021 z "},"Ĉ":{"ha":861,"x_min":49,"x_max":828,"o":"m 49 460 q 114 742 49 618 q 343 944 190 888 q 519 975 428 975 q 696 961 611 975 q 807 936 781 947 q 815 828 815 885 q 813 703 815 772 l 733 692 q 679 869 703 853 q 615 890 667 879 q 511 901 563 901 q 281 789 358 901 q 203 493 203 676 q 301 171 203 276 q 546 65 400 65 q 645 78 599 65 q 706 101 692 90 q 751 278 721 113 l 828 275 q 813 50 828 169 q 683 7 769 26 q 506 -12 596 -12 q 164 121 279 -12 q 49 460 49 254 m 681 1040 l 488 1167 l 294 1040 l 260 1076 l 449 1269 l 526 1269 l 715 1076 l 681 1040 z "},"ĉ":{"ha":650,"x_min":47,"x_max":618,"o":"m 114 561 q 216 647 149 615 q 383 678 283 678 q 579 639 482 678 q 581 567 581 628 q 564 449 581 507 l 486 440 q 444 589 464 581 q 340 601 415 601 q 231 550 265 601 q 182 341 182 476 q 241 144 182 206 q 395 82 300 82 q 579 143 490 82 l 618 97 q 353 -12 506 -12 q 124 83 201 -12 q 47 319 47 178 q 114 561 47 460 m 399 1049 l 563 814 l 514 779 l 354 943 l 196 779 l 147 814 l 311 1049 l 399 1049 z "},"Č":{"ha":861,"x_min":49,"x_max":828,"o":"m 49 460 q 114 742 49 618 q 343 944 190 888 q 519 975 428 975 q 696 961 611 975 q 807 936 781 947 q 815 828 815 885 q 813 703 815 772 l 733 692 q 679 869 703 853 q 615 890 667 879 q 511 901 563 901 q 281 789 358 901 q 203 493 203 676 q 301 171 203 276 q 546 65 400 65 q 645 78 599 65 q 706 101 692 90 q 751 278 721 113 l 828 275 q 813 50 828 169 q 683 7 769 26 q 506 -12 596 -12 q 164 121 279 -12 q 49 460 49 254 m 324 1274 l 517 1147 l 710 1274 l 744 1238 l 556 1044 l 478 1044 l 289 1238 l 324 1274 z "},"č":{"ha":650,"x_min":47,"x_max":618,"o":"m 114 561 q 216 647 149 615 q 383 678 283 678 q 579 639 482 678 q 581 567 581 628 q 564 449 581 507 l 486 440 q 444 589 464 581 q 340 601 415 601 q 231 550 265 601 q 182 341 182 476 q 241 144 182 206 q 395 82 300 82 q 579 143 490 82 l 618 97 q 353 -12 506 -12 q 124 83 201 -12 q 47 319 47 178 q 114 561 47 460 m 315 786 l 151 1021 l 200 1056 l 360 892 l 518 1056 l 567 1021 l 403 786 l 315 786 z "},"Ď":{"ha":990,"x_min":61,"x_max":942,"o":"m 69 0 l 61 54 q 151 82 135 67 q 167 140 167 97 l 167 822 q 151 881 167 865 q 61 908 135 896 l 69 963 l 504 963 q 711 924 624 963 q 847 819 799 886 q 942 511 942 692 q 836 165 942 313 q 690 45 783 90 q 474 0 596 0 l 69 0 m 301 129 q 331 93 301 99 q 478 74 428 74 q 710 183 632 74 q 788 476 788 293 q 758 676 788 592 q 678 806 728 761 q 472 889 583 889 l 301 889 l 301 129 m 239 1274 l 432 1147 l 625 1274 l 660 1238 l 471 1044 l 393 1044 l 204 1238 l 239 1274 z "},"ď":{"ha":790,"x_min":50,"x_max":863,"o":"m 500 92 q 307 -12 419 -12 q 122 77 194 -12 q 50 322 50 167 q 132 578 50 478 q 361 678 214 678 q 511 642 463 678 l 521 646 q 515 707 515 668 l 515 940 q 487 984 515 969 q 385 1008 458 999 l 393 1053 q 625 1072 542 1072 l 640 1058 l 640 136 q 658 85 640 100 q 746 57 675 71 l 738 13 l 571 -6 q 540 22 557 -6 q 524 72 524 50 q 525 106 524 94 l 514 110 l 500 92 m 185 356 q 185 287 185 356 q 228 153 185 218 q 339 88 272 88 q 478 135 406 88 q 515 199 515 160 l 515 531 q 338 599 458 599 q 243 560 278 599 q 185 356 185 494 m 846 1075 l 863 1049 q 772 801 850 915 l 714 821 q 733 951 733 894 q 728 1044 733 1007 l 846 1075 z "},"Đ":{"ha":990,"x_min":38,"x_max":942,"o":"m 38 469 l 38 553 l 167 553 l 167 822 q 151 881 167 865 q 61 908 135 896 l 69 963 l 504 963 q 711 924 624 963 q 847 819 799 886 q 942 511 942 692 q 836 165 942 313 q 690 45 783 90 q 474 0 596 0 l 69 0 l 61 54 q 151 82 135 67 q 167 140 167 97 l 167 469 l 38 469 m 331 93 q 478 74 428 74 q 710 183 632 74 q 788 476 788 293 q 758 676 788 592 q 678 806 728 761 q 472 889 583 889 l 301 889 l 301 553 l 533 553 l 533 469 l 301 469 l 301 129 q 331 93 301 99 z "},"đ":{"ha":790,"x_min":50,"x_max":753,"o":"m 335 813 l 335 886 l 515 886 l 515 940 q 487 984 515 969 q 385 1008 458 999 l 393 1053 q 625 1072 542 1072 l 640 1058 l 640 886 l 753 886 l 753 813 l 640 813 l 640 136 q 658 85 640 100 q 746 57 675 71 l 738 13 l 571 -6 q 540 22 557 -6 q 524 72 524 50 q 525 106 524 94 l 514 110 l 500 92 q 307 -12 419 -12 q 122 77 194 -12 q 50 322 50 167 q 132 578 50 478 q 361 678 214 678 q 511 642 463 678 l 521 646 q 515 707 515 668 l 515 813 l 335 813 m 185 356 q 185 287 185 356 q 228 153 185 218 q 339 88 272 88 q 478 135 406 88 q 515 199 515 160 l 515 531 q 338 599 458 599 q 243 560 278 599 q 185 356 185 494 z "},"Ē":{"ha":822,"x_min":61,"x_max":761,"o":"m 69 0 l 61 54 q 151 82 135 67 q 167 140 167 97 l 167 822 q 151 881 167 865 q 61 908 135 896 l 69 963 l 717 963 q 725 860 725 911 q 722 746 725 810 l 643 736 q 615 856 624 832 q 596 882 607 881 q 511 888 563 886 l 301 892 l 301 518 l 510 518 q 554 617 528 518 l 597 613 q 601 471 597 511 q 605 422 604 431 q 610 382 606 414 q 617 338 615 350 l 567 329 q 537 426 544 408 q 519 444 529 444 l 301 444 l 301 71 l 425 72 q 617 89 582 72 q 622 92 621 92 q 683 256 646 99 l 760 249 q 761 165 761 225 q 746 0 761 104 l 69 0 m 253 1078 l 253 1161 l 599 1161 l 599 1078 l 253 1078 z "},"ē":{"ha":664,"x_min":47,"x_max":618,"o":"m 342 -12 q 124 83 201 -12 q 47 326 47 179 q 136 575 47 472 q 371 678 225 678 q 618 388 607 678 l 582 361 l 179 339 q 399 82 179 82 q 586 129 494 82 l 615 83 q 496 17 569 46 q 342 -12 422 -12 m 183 403 l 471 428 q 485 454 485 429 q 452 560 485 515 q 342 604 419 604 q 228 552 264 604 q 183 403 193 500 m 192 892 l 192 975 l 538 975 l 538 892 l 192 892 z "},"Ĕ":{"ha":822,"x_min":61,"x_max":761,"o":"m 69 0 l 61 54 q 151 82 135 67 q 167 140 167 97 l 167 822 q 151 881 167 865 q 61 908 135 896 l 69 963 l 717 963 q 725 860 725 911 q 722 746 725 810 l 643 736 q 615 856 624 832 q 596 882 607 881 q 511 888 563 886 l 301 892 l 301 518 l 510 518 q 554 617 528 518 l 597 613 q 601 471 597 511 q 605 422 604 431 q 610 382 606 414 q 617 338 615 350 l 567 329 q 537 426 544 408 q 519 444 529 444 l 301 444 l 301 71 l 425 72 q 617 89 582 72 q 622 92 621 92 q 683 256 646 99 l 760 249 q 761 165 761 225 q 746 0 761 104 l 69 0 m 574 1250 l 625 1250 q 568 1110 619 1164 q 418 1056 517 1056 q 268 1110 319 1056 q 211 1250 217 1164 l 263 1250 q 418 1150 286 1150 q 574 1250 550 1150 z "},"ĕ":{"ha":664,"x_min":47,"x_max":618,"o":"m 342 -12 q 124 83 201 -12 q 47 326 47 179 q 136 575 47 472 q 371 678 225 678 q 618 388 607 678 l 582 361 l 179 339 q 399 82 179 82 q 586 129 494 82 l 615 83 q 496 17 569 46 q 342 -12 422 -12 m 183 403 l 471 428 q 485 454 485 429 q 452 560 485 515 q 342 604 419 604 q 228 552 264 604 q 183 403 193 500 m 511 1000 l 563 1000 q 506 847 557 907 q 356 788 454 788 q 206 847 257 788 q 149 1000 154 907 l 200 1000 q 356 882 224 882 q 511 1000 488 882 z "},"Ę":{"ha":822,"x_min":61,"x_max":761,"o":"m 724 -235 q 571 -299 653 -299 q 476 -263 517 -299 q 435 -174 435 -228 q 519 -28 435 -93 q 565 0 540 -12 l 69 0 l 61 54 q 151 82 135 67 q 167 140 167 97 l 167 822 q 151 881 167 865 q 61 908 135 896 l 69 963 l 717 963 q 725 860 725 911 q 722 746 725 810 l 643 736 q 615 856 624 832 q 596 882 607 881 q 511 888 563 886 l 301 892 l 301 518 l 510 518 q 554 617 528 518 l 597 613 q 601 471 597 511 q 605 422 604 431 q 610 382 606 414 q 617 338 615 350 l 567 329 q 537 426 544 408 q 519 444 529 444 l 301 444 l 301 71 l 425 72 q 617 89 582 72 q 622 92 621 92 q 683 256 646 99 l 760 249 q 761 165 761 225 q 746 0 761 104 l 744 0 q 604 -44 661 -3 q 547 -146 547 -85 q 569 -201 547 -182 q 628 -221 590 -221 q 707 -207 667 -221 l 724 -235 z "},"ę":{"ha":664,"x_min":47,"x_max":624,"o":"m 342 -12 q 124 83 201 -12 q 47 326 47 179 q 136 575 47 472 q 371 678 225 678 q 618 388 607 678 l 582 361 l 179 339 q 399 82 179 82 q 586 129 494 82 l 615 83 q 496 17 569 46 q 342 -12 422 -12 m 183 403 l 471 428 q 485 454 485 429 q 452 560 485 515 q 342 604 419 604 q 228 552 264 604 q 183 403 193 500 m 624 -235 q 471 -299 553 -299 q 375 -260 415 -299 q 335 -154 335 -222 q 397 -22 335 -86 q 594 111 458 43 l 611 81 q 488 -29 528 21 q 447 -143 447 -79 q 469 -200 447 -179 q 529 -221 490 -221 q 607 -207 568 -221 l 624 -235 z "},"Ě":{"ha":822,"x_min":61,"x_max":761,"o":"m 69 0 l 61 54 q 151 82 135 67 q 167 140 167 97 l 167 822 q 151 881 167 865 q 61 908 135 896 l 69 963 l 717 963 q 725 860 725 911 q 722 746 725 810 l 643 736 q 615 856 624 832 q 596 882 607 881 q 511 888 563 886 l 301 892 l 301 518 l 510 518 q 554 617 528 518 l 597 613 q 601 471 597 511 q 605 422 604 431 q 610 382 606 414 q 617 338 615 350 l 567 329 q 537 426 544 408 q 519 444 529 444 l 301 444 l 301 71 l 425 72 q 617 89 582 72 q 622 92 621 92 q 683 256 646 99 l 760 249 q 761 165 761 225 q 746 0 761 104 l 69 0 m 208 1274 l 401 1147 l 594 1274 l 629 1238 l 440 1044 l 363 1044 l 174 1238 l 208 1274 z "},"ě":{"ha":664,"x_min":47,"x_max":618,"o":"m 342 -12 q 124 83 201 -12 q 47 326 47 179 q 136 575 47 472 q 371 678 225 678 q 618 388 607 678 l 582 361 l 179 339 q 399 82 179 82 q 586 129 494 82 l 615 83 q 496 17 569 46 q 342 -12 422 -12 m 183 403 l 471 428 q 485 454 485 429 q 452 560 485 515 q 342 604 419 604 q 228 552 264 604 q 183 403 193 500 m 303 786 l 139 1021 l 188 1056 l 347 892 l 506 1056 l 554 1021 l 390 786 l 303 786 z "},"Ĝ":{"ha":946,"x_min":49,"x_max":914,"o":"m 815 51 q 683 8 769 28 q 506 -12 596 -12 q 164 121 279 -12 q 49 460 49 254 q 114 742 49 618 q 343 944 190 888 q 519 975 428 975 q 696 961 611 975 q 807 936 781 947 q 815 828 815 885 q 813 703 815 772 l 733 692 q 679 869 703 853 q 615 890 667 879 q 511 901 563 901 q 281 789 358 901 q 203 493 203 676 q 301 171 203 276 q 546 65 400 65 q 681 88 622 65 l 681 281 q 665 339 681 324 q 575 367 649 354 l 583 421 l 908 421 l 914 367 l 843 350 q 815 314 815 344 l 815 51 m 678 1040 l 485 1167 l 292 1040 l 257 1076 l 446 1269 l 524 1269 l 713 1076 l 678 1040 z "},"ĝ":{"ha":769,"x_min":76,"x_max":726,"o":"m 222 -33 q 183 -126 183 -76 q 225 -206 183 -176 q 367 -235 267 -235 q 524 -193 468 -235 q 579 -110 579 -151 q 533 -59 579 -68 q 388 -49 488 -50 q 222 -33 289 -47 m 103 85 q 144 192 103 140 q 211 257 174 228 q 172 281 190 267 q 103 448 103 336 q 179 619 103 560 q 369 678 256 678 q 538 635 471 678 q 713 681 628 678 q 726 624 726 657 q 722 579 726 592 q 624 590 675 590 q 586 590 603 590 q 625 454 625 538 q 549 284 625 343 q 358 225 472 225 q 246 242 294 225 q 204 146 204 192 q 251 96 204 104 q 345 89 293 89 q 426 88 397 89 q 499 83 454 88 q 569 69 543 79 q 622 44 594 60 q 674 -58 674 15 q 574 -231 674 -158 q 304 -304 474 -304 q 76 -174 76 -304 q 103 -92 76 -126 q 182 -21 131 -58 q 103 85 103 4 m 368 293 q 497 451 497 293 q 360 610 497 610 q 231 451 231 610 q 368 293 231 293 m 404 1049 l 568 814 l 519 779 l 360 943 l 201 779 l 153 814 l 317 1049 l 404 1049 z "},"Ğ":{"ha":946,"x_min":49,"x_max":914,"o":"m 815 51 q 683 8 769 28 q 506 -12 596 -12 q 164 121 279 -12 q 49 460 49 254 q 114 742 49 618 q 343 944 190 888 q 519 975 428 975 q 696 961 611 975 q 807 936 781 947 q 815 828 815 885 q 813 703 815 772 l 733 692 q 679 869 703 853 q 615 890 667 879 q 511 901 563 901 q 281 789 358 901 q 203 493 203 676 q 301 171 203 276 q 546 65 400 65 q 681 88 622 65 l 681 281 q 665 339 681 324 q 575 367 649 354 l 583 421 l 908 421 l 914 367 l 843 350 q 815 314 815 344 l 815 51 m 681 1250 l 732 1250 q 675 1110 726 1164 q 525 1056 624 1056 q 375 1110 426 1056 q 318 1250 324 1164 l 369 1250 q 525 1150 393 1150 q 681 1250 657 1150 z "},"ğ":{"ha":769,"x_min":76,"x_max":726,"o":"m 222 -33 q 183 -126 183 -76 q 225 -206 183 -176 q 367 -235 267 -235 q 524 -193 468 -235 q 579 -110 579 -151 q 533 -59 579 -68 q 388 -49 488 -50 q 222 -33 289 -47 m 103 85 q 144 192 103 140 q 211 257 174 228 q 172 281 190 267 q 103 448 103 336 q 179 619 103 560 q 369 678 256 678 q 538 635 471 678 q 713 681 628 678 q 726 624 726 657 q 722 579 726 592 q 624 590 675 590 q 586 590 603 590 q 625 454 625 538 q 549 284 625 343 q 358 225 472 225 q 246 242 294 225 q 204 146 204 192 q 251 96 204 104 q 345 89 293 89 q 426 88 397 89 q 499 83 454 88 q 569 69 543 79 q 622 44 594 60 q 674 -58 674 15 q 574 -231 674 -158 q 304 -304 474 -304 q 76 -174 76 -304 q 103 -92 76 -126 q 182 -21 131 -58 q 103 85 103 4 m 368 293 q 497 451 497 293 q 360 610 497 610 q 231 451 231 610 q 368 293 231 293 m 525 1000 l 576 1000 q 519 847 571 907 q 369 788 468 788 q 219 847 271 788 q 163 1000 168 907 l 214 1000 q 369 882 238 882 q 525 1000 501 882 z "},"Ĥ":{"ha":1065,"x_min":61,"x_max":1013,"o":"m 69 0 l 61 54 q 151 82 135 67 q 167 140 167 97 l 167 822 q 151 881 167 865 q 61 908 135 896 l 69 963 l 410 963 l 415 908 l 329 892 q 301 856 301 886 l 301 538 l 764 538 l 764 822 q 748 881 764 865 q 658 908 732 896 l 667 963 l 1007 963 l 1013 908 l 926 892 q 899 856 899 886 l 899 107 q 926 71 899 76 l 1013 54 l 1007 0 l 667 0 l 658 54 q 748 82 732 67 q 764 140 764 97 l 764 454 l 301 454 l 301 107 q 329 71 301 76 l 415 54 l 410 0 l 69 0 m 733 1040 l 540 1167 l 347 1040 l 313 1076 l 501 1269 l 579 1269 l 768 1076 l 733 1040 z "},"ĥ":{"ha":828,"x_min":-56,"x_max":796,"o":"m 56 0 l 47 54 q 130 83 115 68 q 144 133 144 97 l 144 911 q 122 953 144 940 q 39 979 100 967 l 47 1024 q 254 1043 196 1043 l 269 1029 l 269 668 q 260 560 269 592 l 271 556 l 288 575 q 503 678 374 678 q 648 624 596 678 q 700 475 700 569 l 700 100 q 708 78 700 83 q 728 71 715 74 l 796 54 l 790 0 l 493 0 l 485 54 q 561 82 547 67 q 575 133 575 97 l 575 433 q 551 539 575 500 q 453 578 526 578 q 301 524 381 578 q 276 499 283 511 q 269 457 269 488 l 269 100 q 277 78 269 83 q 297 71 285 74 l 358 54 l 353 0 l 56 0 m 365 1040 l 172 1167 l -21 1040 l -56 1076 l 133 1269 l 211 1269 l 400 1076 l 365 1040 z "},"Ħ":{"ha":1065,"x_min":61,"x_max":1013,"o":"m 69 683 l 69 757 l 167 757 l 167 822 q 151 881 167 865 q 61 908 135 896 l 69 963 l 410 963 l 415 908 l 329 892 q 301 856 301 886 l 301 757 l 764 757 l 764 822 q 748 881 764 865 q 658 908 732 896 l 667 963 l 1007 963 l 1013 908 l 926 892 q 899 856 899 886 l 899 757 l 1004 757 l 1004 683 l 899 683 l 899 107 q 926 71 899 76 l 1013 54 l 1007 0 l 667 0 l 658 54 q 748 82 732 67 q 764 140 764 97 l 764 454 l 301 454 l 301 107 q 329 71 301 76 l 415 54 l 410 0 l 69 0 l 61 54 q 151 82 135 67 q 167 140 167 97 l 167 683 l 69 683 m 764 683 l 301 683 l 301 538 l 764 538 l 764 683 z "},"ħ":{"ha":828,"x_min":32,"x_max":796,"o":"m 32 813 l 32 886 l 144 886 l 144 940 q 122 983 144 969 q 39 1008 100 996 l 47 1053 q 254 1072 196 1072 l 269 1058 l 269 886 l 450 886 l 450 813 l 269 813 l 269 668 q 260 560 269 592 l 271 556 l 288 575 q 503 678 374 678 q 648 624 596 678 q 700 475 700 569 l 700 100 q 708 78 700 83 q 728 71 715 74 l 796 54 l 790 0 l 493 0 l 485 54 q 561 82 547 67 q 575 133 575 97 l 575 433 q 551 539 575 500 q 453 578 526 578 q 301 524 381 578 q 276 499 283 511 q 269 457 269 488 l 269 100 q 277 78 269 83 q 297 71 285 74 l 358 54 l 353 0 l 56 0 l 47 54 q 130 83 115 68 q 144 133 144 97 l 144 813 l 32 813 z "},"Ĩ":{"ha":468,"x_min":-7,"x_max":494,"o":"m 69 0 l 61 54 q 151 82 135 67 q 167 140 167 97 l 167 822 q 151 881 167 865 q 61 908 135 896 l 69 963 l 410 963 l 415 908 l 329 892 q 301 856 301 886 l 301 107 q 329 71 301 76 l 415 54 l 410 0 l 69 0 m 460 1238 l 494 1221 q 435 1119 465 1157 q 374 1081 406 1081 q 251 1099 343 1081 q 125 1118 158 1118 q 25 1071 72 1118 l -7 1093 q 69 1197 38 1167 q 133 1226 101 1226 q 255 1208 165 1226 q 379 1189 344 1189 q 460 1238 414 1189 z "},"ĩ":{"ha":431,"x_min":-56,"x_max":446,"o":"m 411 993 l 446 975 q 387 867 417 907 q 326 826 357 826 q 202 856 294 826 q 76 885 110 885 q -24 826 24 885 l -56 850 q 21 960 -11 928 q 85 992 53 992 q 206 963 117 992 q 330 933 296 933 q 411 993 364 933 m 65 0 l 57 54 q 140 83 125 68 q 154 133 154 97 l 154 532 q 132 574 154 561 q 49 600 110 588 l 57 644 q 264 664 206 664 l 279 650 l 279 100 q 287 78 279 83 q 307 71 294 74 l 375 54 l 369 0 l 65 0 z "},"Ī":{"ha":468,"x_min":61,"x_max":415,"o":"m 64 1078 l 64 1161 l 410 1161 l 410 1078 l 64 1078 m 69 0 l 61 54 q 151 82 135 67 q 167 140 167 97 l 167 822 q 151 881 167 865 q 61 908 135 896 l 69 963 l 410 963 l 415 908 l 329 892 q 301 856 301 886 l 301 107 q 329 71 301 76 l 415 54 l 410 0 l 69 0 z "},"ī":{"ha":431,"x_min":15,"x_max":375,"o":"m 65 0 l 57 54 q 140 83 125 68 q 154 133 154 97 l 154 532 q 132 574 154 561 q 49 600 110 588 l 57 644 q 264 664 206 664 l 279 650 l 279 100 q 287 78 279 83 q 307 71 294 74 l 375 54 l 369 0 l 65 0 m 15 892 l 15 975 l 361 975 l 361 892 l 15 892 z "},"Ĭ":{"ha":468,"x_min":28,"x_max":442,"o":"m 69 0 l 61 54 q 151 82 135 67 q 167 140 167 97 l 167 822 q 151 881 167 865 q 61 908 135 896 l 69 963 l 410 963 l 415 908 l 329 892 q 301 856 301 886 l 301 107 q 329 71 301 76 l 415 54 l 410 0 l 69 0 m 390 1250 l 442 1250 q 385 1110 436 1164 q 235 1056 333 1056 q 85 1110 136 1056 q 28 1250 33 1164 l 79 1250 q 235 1150 103 1150 q 390 1250 367 1150 z "},"ĭ":{"ha":431,"x_min":-8,"x_max":406,"o":"m 65 0 l 57 54 q 140 83 125 68 q 154 133 154 97 l 154 532 q 132 574 154 561 q 49 600 110 588 l 57 644 q 264 664 206 664 l 279 650 l 279 100 q 287 78 279 83 q 307 71 294 74 l 375 54 l 369 0 l 65 0 m 354 1000 l 406 1000 q 349 847 400 907 q 199 788 297 788 q 49 847 100 788 q -8 1000 -3 907 l 43 1000 q 199 882 67 882 q 354 1000 331 882 z "},"Į":{"ha":468,"x_min":61,"x_max":415,"o":"m 364 -235 q 211 -299 293 -299 q 116 -263 157 -299 q 75 -174 75 -228 q 160 -28 75 -93 q 206 0 181 -12 l 69 0 l 61 54 q 151 82 135 67 q 167 140 167 97 l 167 822 q 151 881 167 865 q 61 908 135 896 l 69 963 l 410 963 l 415 908 l 329 892 q 301 856 301 886 l 301 107 q 329 71 301 76 l 415 54 l 410 0 l 385 0 q 244 -44 301 -3 q 188 -146 188 -85 q 209 -201 188 -182 q 269 -221 231 -221 q 347 -207 307 -221 l 364 -235 z "},"į":{"ha":431,"x_min":47,"x_max":375,"o":"m 336 -235 q 183 -299 265 -299 q 88 -263 129 -299 q 47 -174 47 -228 q 132 -28 47 -93 q 178 0 153 -12 l 65 0 l 57 54 q 140 83 125 68 q 154 133 154 97 l 154 532 q 132 574 154 561 q 49 600 110 588 l 57 644 q 264 664 206 664 l 279 650 l 279 100 q 287 78 279 83 q 307 71 294 74 l 375 54 l 369 0 l 357 0 q 217 -44 274 -3 q 160 -146 160 -85 q 181 -201 160 -182 q 241 -221 203 -221 q 319 -207 279 -221 l 336 -235 m 281 911 q 259 853 281 876 q 202 829 238 829 q 144 850 167 829 q 121 908 121 871 q 142 967 121 944 q 201 989 164 989 q 281 911 281 989 z "},"ı":{"ha":431,"x_min":49,"x_max":375,"o":"m 65 0 l 57 54 q 140 83 125 68 q 154 133 154 97 l 154 532 q 132 574 154 561 q 49 600 110 588 l 57 644 q 264 664 206 664 l 279 650 l 279 100 q 287 78 279 83 q 307 71 294 74 l 375 54 l 369 0 l 65 0 z "},"Ĳ":{"ha":935,"x_min":61,"x_max":900,"o":"m 69 0 l 61 54 q 151 82 135 67 q 167 140 167 97 l 167 822 q 151 881 167 865 q 61 908 135 896 l 69 963 l 410 963 l 415 908 l 329 892 q 301 856 301 886 l 301 107 q 329 71 301 76 l 415 54 l 410 0 l 69 0 m 772 864 l 772 178 q 701 -57 772 51 q 554 -165 629 -165 q 439 -154 494 -165 q 435 -106 435 -137 q 461 -32 435 -74 q 553 -47 526 -47 q 597 -36 579 -47 q 638 219 638 -8 l 638 822 q 616 879 638 864 q 518 908 594 894 l 526 963 l 894 963 l 900 908 l 800 892 q 772 864 772 886 z "},"ĳ":{"ha":819,"x_min":49,"x_max":696,"o":"m 65 0 l 57 54 q 140 83 125 68 q 154 133 154 97 l 154 532 q 132 574 154 561 q 49 600 110 588 l 57 644 q 264 664 206 664 l 279 650 l 279 100 q 287 78 279 83 q 307 71 294 74 l 375 54 l 369 0 l 65 0 m 281 911 q 259 853 281 876 q 202 829 238 829 q 144 850 167 829 q 121 908 121 871 q 142 967 121 944 q 201 989 164 989 q 281 911 281 989 m 569 94 l 569 532 q 547 574 569 561 q 464 600 525 588 l 472 644 q 679 664 621 664 l 694 650 l 694 53 q 617 -191 694 -78 q 467 -304 539 -304 q 361 -294 417 -304 q 357 -249 357 -278 q 381 -181 357 -219 q 465 -194 436 -194 q 507 -185 493 -194 q 553 -85 536 -165 q 569 94 569 -6 m 696 911 q 674 853 696 876 q 617 829 653 829 q 559 850 582 829 q 536 908 536 871 q 558 967 536 944 q 617 989 579 989 q 696 911 696 989 z "},"Ĵ":{"ha":467,"x_min":-33,"x_max":467,"o":"m 304 864 l 304 178 q 233 -57 304 51 q 86 -165 161 -165 q -29 -154 26 -165 q -33 -106 -33 -137 q -7 -32 -33 -74 q 85 -47 58 -47 q 129 -36 111 -47 q 169 219 169 -8 l 169 822 q 148 879 169 864 q 50 908 126 894 l 58 963 l 426 963 l 432 908 l 332 892 q 304 864 304 886 m 432 1040 l 239 1167 l 46 1040 l 11 1076 l 200 1269 l 278 1269 l 467 1076 l 432 1040 z "},"ĵ":{"ha":389,"x_min":-74,"x_max":393,"o":"m 229 1049 l 393 814 l 344 779 l 185 943 l 26 779 l -22 814 l 142 1049 l 229 1049 m 139 94 l 139 532 q 117 574 139 561 q 33 600 94 588 l 42 644 q 249 664 190 664 l 264 650 l 264 53 q 186 -191 264 -78 q 36 -304 108 -304 q -69 -294 -14 -304 q -74 -249 -74 -278 q -50 -181 -74 -219 q 34 -194 6 -194 q 76 -185 63 -194 q 122 -85 106 -165 q 139 94 139 -6 z "},"ķ":{"ha":790,"x_min":39,"x_max":776,"o":"m 56 0 l 47 54 q 130 83 115 68 q 144 133 144 97 l 144 940 q 122 983 144 969 q 39 1008 100 996 l 47 1053 q 254 1072 196 1072 l 269 1058 l 269 321 l 508 544 q 519 568 519 557 q 424 603 519 589 l 432 657 l 708 657 l 714 603 q 638 581 650 593 l 447 399 l 649 111 q 698 71 671 83 q 776 54 725 58 l 768 0 l 575 0 l 360 314 l 269 228 l 269 100 q 277 78 269 83 q 297 71 285 74 l 358 54 l 353 0 l 56 0 m 386 -292 l 350 -257 q 413 -175 413 -212 q 397 -130 413 -153 q 381 -84 381 -107 q 399 -45 381 -61 q 447 -29 418 -29 q 495 -52 475 -29 q 515 -117 515 -75 q 483 -208 515 -160 q 386 -292 450 -257 z "},"ĸ":{"ha":790,"x_min":39,"x_max":776,"o":"m 56 0 l 47 54 q 130 83 115 68 q 144 133 144 97 l 144 542 q 122 584 144 571 q 39 610 100 597 l 47 654 q 254 674 196 674 l 269 660 l 269 321 l 508 544 q 519 568 519 557 q 424 603 519 589 l 432 657 l 708 657 l 714 603 q 638 581 650 593 l 447 399 l 649 111 q 698 71 671 83 q 776 54 725 58 l 768 0 l 575 0 l 360 314 l 269 228 l 269 100 q 277 78 269 83 q 297 71 285 74 l 358 54 l 353 0 l 56 0 z "},"Ĺ":{"ha":775,"x_min":61,"x_max":761,"o":"m 69 0 l 61 54 q 151 82 135 67 q 167 140 167 97 l 167 822 q 151 881 167 865 q 61 908 135 896 l 69 963 l 410 963 l 415 908 l 329 892 q 301 856 301 886 l 301 71 l 425 72 q 606 82 579 75 q 683 296 628 89 l 760 289 q 761 192 761 265 q 746 0 761 119 l 69 0 m 472 1199 l 461 1169 l 182 1040 l 147 1090 l 389 1269 l 472 1199 z "},"ĺ":{"ha":419,"x_min":38,"x_max":365,"o":"m 56 0 l 47 54 q 130 83 115 68 q 144 133 144 97 l 144 867 q 122 909 144 896 q 39 935 100 922 l 47 979 q 254 999 196 999 l 269 985 l 269 100 q 277 78 269 83 q 297 71 285 74 l 365 54 l 360 0 l 56 0 m 363 1199 l 351 1169 l 72 1040 l 38 1090 l 279 1269 l 363 1199 z "},"Ľ":{"ha":775,"x_min":61,"x_max":761,"o":"m 69 0 l 61 54 q 151 82 135 67 q 167 140 167 97 l 167 822 q 151 881 167 865 q 61 908 135 896 l 69 963 l 410 963 l 415 908 l 329 892 q 301 856 301 886 l 301 71 l 425 72 q 606 82 579 75 q 683 296 628 89 l 760 289 q 761 192 761 265 q 746 0 761 119 l 69 0 m 625 1075 l 642 1049 q 551 801 629 915 l 493 821 q 513 951 513 894 q 507 1044 513 1007 l 625 1075 z "},"ľ":{"ha":421,"x_min":39,"x_max":500,"o":"m 56 0 l 47 54 q 130 83 115 68 q 144 133 144 97 l 144 940 q 122 983 144 969 q 39 1008 100 996 l 47 1053 q 254 1072 196 1072 l 269 1058 l 269 100 q 277 78 269 83 q 297 71 285 74 l 365 54 l 360 0 l 56 0 m 483 1075 l 500 1049 q 410 801 488 915 l 351 821 q 371 951 371 894 q 365 1044 371 1007 l 483 1075 z "},"Ŀ":{"ha":775,"x_min":61,"x_max":761,"o":"m 69 0 l 61 54 q 151 82 135 67 q 167 140 167 97 l 167 822 q 151 881 167 865 q 61 908 135 896 l 69 963 l 410 963 l 415 908 l 329 892 q 301 856 301 886 l 301 71 l 425 72 q 606 82 579 75 q 683 296 628 89 l 760 289 q 761 192 761 265 q 746 0 761 119 l 69 0 m 713 546 q 690 488 713 513 q 633 464 668 464 q 576 485 599 464 q 553 542 553 506 q 575 601 553 578 q 632 624 597 624 q 713 546 713 624 z "},"ŀ":{"ha":471,"x_min":39,"x_max":514,"o":"m 56 0 l 47 54 q 130 83 115 68 q 144 133 144 97 l 144 940 q 122 983 144 969 q 39 1008 100 996 l 47 1053 q 254 1072 196 1072 l 269 1058 l 269 100 q 277 78 269 83 q 297 71 285 74 l 365 54 l 360 0 l 56 0 m 514 546 q 492 488 514 513 q 435 464 469 464 q 377 485 400 464 q 354 542 354 506 q 376 601 354 578 q 433 624 399 624 q 514 546 514 624 z "},"Ł":{"ha":775,"x_min":47,"x_max":761,"o":"m 69 0 l 61 54 q 151 82 135 67 q 167 140 167 97 l 167 351 l 86 299 l 47 358 l 167 438 l 167 822 q 151 881 167 865 q 61 908 135 896 l 69 963 l 410 963 l 415 908 l 329 892 q 301 856 301 886 l 301 525 l 531 676 l 569 617 l 301 440 l 301 71 l 425 72 q 606 82 579 75 q 683 296 628 89 l 760 289 q 761 192 761 265 q 746 0 761 119 l 69 0 z "},"ł":{"ha":421,"x_min":21,"x_max":421,"o":"m 56 0 l 47 54 q 130 83 115 68 q 144 133 144 97 l 144 453 l 60 397 l 21 457 l 144 538 l 144 940 q 122 983 144 969 q 39 1008 100 996 l 47 1053 q 254 1072 196 1072 l 269 1058 l 269 619 l 382 693 l 421 633 l 269 535 l 269 100 q 277 78 269 83 q 297 71 285 74 l 365 54 l 360 0 l 56 0 z "},"Ń":{"ha":1076,"x_min":61,"x_max":1026,"o":"m 750 1199 l 739 1169 l 460 1040 l 425 1090 l 667 1269 l 750 1199 m 69 0 l 61 54 q 151 82 135 67 q 167 140 167 97 l 167 822 q 151 881 167 865 q 61 908 135 896 l 69 963 l 176 963 l 258 963 l 335 963 l 810 263 l 819 263 l 819 794 q 797 878 819 857 q 686 908 774 899 l 694 963 l 1021 963 l 1026 908 l 940 892 q 913 856 913 886 l 913 0 l 831 0 l 831 0 l 826 0 l 271 822 l 260 822 l 260 139 q 273 88 260 104 q 321 67 286 71 l 418 54 l 413 0 l 69 0 z "},"ń":{"ha":828,"x_min":49,"x_max":796,"o":"m 65 0 l 57 54 q 140 83 125 68 q 154 133 154 97 l 154 533 q 137 584 154 569 q 49 613 119 599 l 57 657 l 236 675 q 256 636 246 675 q 267 568 267 597 l 267 560 l 278 556 l 294 575 q 508 678 382 678 q 649 624 597 678 q 700 475 700 571 l 700 100 q 708 78 700 83 q 728 71 715 74 l 796 54 l 790 0 l 493 0 l 485 54 q 561 82 547 67 q 575 133 575 97 l 575 433 q 551 538 575 499 q 459 578 528 578 q 310 524 390 578 q 292 511 297 515 q 279 460 279 497 l 279 101 q 284 81 279 86 q 307 71 289 75 l 368 54 l 363 0 l 65 0 m 632 1021 l 632 989 l 421 779 l 372 814 l 521 1063 l 632 1021 z "},"Ň":{"ha":1076,"x_min":61,"x_max":1026,"o":"m 326 1274 l 519 1147 l 713 1274 l 747 1238 l 558 1044 l 481 1044 l 292 1238 l 326 1274 m 69 0 l 61 54 q 151 82 135 67 q 167 140 167 97 l 167 822 q 151 881 167 865 q 61 908 135 896 l 69 963 l 176 963 l 258 963 l 335 963 l 810 263 l 819 263 l 819 794 q 797 878 819 857 q 686 908 774 899 l 694 963 l 1021 963 l 1026 908 l 940 892 q 913 856 913 886 l 913 0 l 831 0 l 831 0 l 826 0 l 271 822 l 260 822 l 260 139 q 273 88 260 104 q 321 67 286 71 l 418 54 l 413 0 l 69 0 z "},"ň":{"ha":828,"x_min":49,"x_max":796,"o":"m 65 0 l 57 54 q 140 83 125 68 q 154 133 154 97 l 154 533 q 137 584 154 569 q 49 613 119 599 l 57 657 l 236 675 q 256 636 246 675 q 267 568 267 597 l 267 560 l 278 556 l 294 575 q 508 678 382 678 q 649 624 597 678 q 700 475 700 571 l 700 100 q 708 78 700 83 q 728 71 715 74 l 796 54 l 790 0 l 493 0 l 485 54 q 561 82 547 67 q 575 133 575 97 l 575 433 q 551 538 575 499 q 459 578 528 578 q 310 524 390 578 q 292 511 297 515 q 279 460 279 497 l 279 101 q 284 81 279 86 q 307 71 289 75 l 368 54 l 363 0 l 65 0 m 357 786 l 193 1021 l 242 1056 l 401 892 l 560 1056 l 608 1021 l 444 786 l 357 786 z "},"ŉ":{"ha":828,"x_min":49,"x_max":796,"o":"m 65 0 l 57 54 q 140 83 125 68 q 154 133 154 97 l 154 533 q 137 584 154 569 q 49 613 119 599 l 57 657 l 236 675 q 256 636 246 675 q 267 568 267 597 l 267 560 l 278 556 l 294 575 q 508 678 382 678 q 649 624 597 678 q 700 475 700 571 l 700 100 q 708 78 700 83 q 728 71 715 74 l 796 54 l 790 0 l 493 0 l 485 54 q 561 82 547 67 q 575 133 575 97 l 575 433 q 551 538 575 499 q 459 578 528 578 q 310 524 390 578 q 292 511 297 515 q 279 460 279 497 l 279 101 q 284 81 279 86 q 307 71 289 75 l 368 54 l 363 0 l 65 0 m 119 774 l 86 806 q 132 922 132 860 q 113 965 132 942 q 94 1011 94 989 q 112 1049 94 1033 q 153 1064 129 1064 q 224 959 224 1064 q 119 774 224 854 z "},"Ŋ":{"ha":1076,"x_min":61,"x_max":1026,"o":"m 258 963 l 335 963 l 810 263 l 819 263 l 819 794 q 797 878 819 857 q 686 908 774 899 l 694 963 l 1021 963 l 1026 908 l 940 892 q 913 856 913 886 l 913 235 l 913 143 q 683 -304 913 -304 q 611 -294 647 -304 q 607 -249 607 -278 q 631 -181 607 -219 q 715 -194 686 -194 q 757 -185 743 -194 q 803 -86 786 -165 q 817 14 813 -39 l 271 822 l 260 822 l 260 139 q 273 88 260 104 q 321 67 286 71 l 418 54 l 413 0 l 69 0 l 61 54 q 151 82 135 67 q 167 140 167 97 l 167 822 q 151 881 167 865 q 61 908 135 896 l 69 963 l 176 963 l 258 963 z "},"ŋ":{"ha":825,"x_min":49,"x_max":700,"o":"m 575 94 l 575 433 q 551 538 575 499 q 459 578 528 578 q 310 524 390 578 q 292 511 297 515 q 279 460 279 497 l 279 101 q 284 81 279 86 q 307 71 289 75 l 368 54 l 363 0 l 65 0 l 57 54 q 140 83 125 68 q 154 133 154 97 l 154 533 q 137 584 154 569 q 49 613 119 599 l 57 657 l 236 675 q 256 636 246 675 q 267 568 267 597 l 267 560 l 278 556 l 294 575 q 508 678 382 678 q 649 624 597 678 q 700 475 700 571 l 700 53 q 622 -191 700 -78 q 472 -304 544 -304 q 367 -294 422 -304 q 363 -249 363 -278 q 386 -181 363 -219 q 470 -194 442 -194 q 513 -185 499 -194 q 558 -85 542 -165 q 575 94 575 -6 z "},"Ō":{"ha":988,"x_min":49,"x_max":939,"o":"m 487 -12 q 382 -12 487 -12 q 163 117 276 -12 q 49 473 49 247 q 169 837 49 699 q 501 975 290 975 q 825 848 711 975 q 939 495 939 721 q 818 128 939 269 q 487 -12 697 -12 m 506 61 q 637 96 581 61 q 725 192 693 131 q 785 489 785 310 q 706 785 785 668 q 482 901 628 901 q 351 867 407 901 q 264 774 294 833 q 203 480 203 658 q 281 181 203 301 q 506 61 358 61 m 332 1078 l 332 1161 l 678 1161 l 678 1078 l 332 1078 z "},"ō":{"ha":722,"x_min":44,"x_max":678,"o":"m 356 -12 q 281 -12 356 -12 q 125 76 206 -12 q 44 325 44 165 q 130 581 44 485 q 366 678 215 678 q 597 588 517 678 q 678 339 678 499 q 592 83 678 179 q 356 -12 507 -12 m 179 343 q 229 140 179 219 q 365 61 279 61 q 488 103 451 61 q 528 191 513 131 q 543 322 543 251 q 493 525 543 446 q 357 604 443 604 q 235 563 271 604 q 194 474 210 535 q 179 343 179 414 m 196 892 l 196 975 l 542 975 l 542 892 l 196 892 z "},"Ŏ":{"ha":988,"x_min":49,"x_max":939,"o":"m 487 -12 q 382 -12 487 -12 q 163 117 276 -12 q 49 473 49 247 q 169 837 49 699 q 501 975 290 975 q 825 848 711 975 q 939 495 939 721 q 818 128 939 269 q 487 -12 697 -12 m 506 61 q 637 96 581 61 q 725 192 693 131 q 785 489 785 310 q 706 785 785 668 q 482 901 628 901 q 351 867 407 901 q 264 774 294 833 q 203 480 203 658 q 281 181 203 301 q 506 61 358 61 m 664 1250 l 715 1250 q 658 1110 710 1164 q 508 1056 607 1056 q 358 1110 410 1056 q 301 1250 307 1164 l 353 1250 q 508 1150 376 1150 q 664 1250 640 1150 z "},"ŏ":{"ha":722,"x_min":44,"x_max":678,"o":"m 356 -12 q 281 -12 356 -12 q 125 76 206 -12 q 44 325 44 165 q 130 581 44 485 q 366 678 215 678 q 597 588 517 678 q 678 339 678 499 q 592 83 678 179 q 356 -12 507 -12 m 179 343 q 229 140 179 219 q 365 61 279 61 q 488 103 451 61 q 528 191 513 131 q 543 322 543 251 q 493 525 543 446 q 357 604 443 604 q 235 563 271 604 q 194 474 210 535 q 179 343 179 414 m 526 1000 l 578 1000 q 521 847 572 907 q 371 788 469 788 q 221 847 272 788 q 164 1000 169 907 l 215 1000 q 371 882 239 882 q 526 1000 503 882 z "},"Ő":{"ha":988,"x_min":49,"x_max":939,"o":"m 487 -12 q 382 -12 487 -12 q 163 117 276 -12 q 49 473 49 247 q 169 837 49 699 q 501 975 290 975 q 825 848 711 975 q 939 495 939 721 q 818 128 939 269 q 487 -12 697 -12 m 506 61 q 637 96 581 61 q 725 192 693 131 q 785 489 785 310 q 706 785 785 668 q 482 901 628 901 q 351 867 407 901 q 264 774 294 833 q 203 480 203 658 q 281 181 203 301 q 506 61 358 61 m 861 1229 l 861 1197 l 615 1043 l 567 1078 l 729 1271 l 861 1229 m 586 1229 l 586 1197 l 340 1043 l 292 1078 l 454 1271 l 586 1229 z "},"ő":{"ha":722,"x_min":44,"x_max":681,"o":"m 356 -12 q 281 -12 356 -12 q 125 76 206 -12 q 44 325 44 165 q 130 581 44 485 q 366 678 215 678 q 597 588 517 678 q 678 339 678 499 q 592 83 678 179 q 356 -12 507 -12 m 179 343 q 229 140 179 219 q 365 61 279 61 q 488 103 451 61 q 528 191 513 131 q 543 322 543 251 q 493 525 543 446 q 357 604 443 604 q 235 563 271 604 q 194 474 210 535 q 179 343 179 414 m 681 1021 l 681 989 l 449 779 l 400 814 l 549 1063 l 681 1021 m 406 1021 l 406 989 l 174 779 l 125 814 l 274 1063 l 406 1021 z "},"Œ":{"ha":1379,"x_min":49,"x_max":1318,"o":"m 483 -12 q 163 117 276 -12 q 49 473 49 247 q 169 837 49 699 q 504 975 290 975 q 596 972 531 975 q 1274 963 825 963 q 1282 860 1282 911 q 1279 746 1282 810 l 1200 736 q 1172 856 1181 832 q 1153 882 1164 881 q 1068 888 1119 886 l 858 892 l 858 518 l 1067 518 q 1111 617 1085 518 l 1154 613 q 1158 471 1154 511 q 1162 422 1161 431 q 1167 382 1163 414 q 1174 338 1172 350 l 1124 329 q 1094 426 1101 408 q 1076 444 1086 444 l 858 444 l 858 71 l 978 72 q 1182 92 1158 75 q 1240 254 1196 101 l 1317 249 q 1318 167 1318 231 q 1303 0 1318 103 q 645 -6 788 0 q 483 -12 503 -12 m 281 181 q 319 121 281 181 q 506 61 358 61 q 686 94 653 61 q 724 208 724 132 l 724 763 q 679 876 724 850 q 517 901 635 901 q 203 493 203 901 q 281 181 203 301 z "},"œ":{"ha":1160,"x_min":44,"x_max":1114,"o":"m 1114 388 l 1078 361 l 675 339 q 729 140 675 197 q 883 82 783 82 q 1074 129 982 82 l 1103 83 q 983 17 1057 46 q 829 -12 910 -12 q 600 114 674 -12 q 353 -12 521 -12 q 125 76 206 -12 q 44 325 44 165 q 130 581 44 485 q 376 678 215 678 q 613 543 536 678 q 867 678 699 678 q 1114 388 1103 678 m 679 403 l 967 428 q 981 454 981 429 q 948 560 981 515 q 838 604 915 604 q 724 552 760 604 q 679 403 689 500 m 540 306 q 540 377 540 306 q 492 526 540 447 q 357 604 443 604 q 235 563 271 604 q 194 474 210 535 q 179 343 179 414 q 229 140 179 219 q 365 61 279 61 q 488 103 451 61 q 540 306 540 165 z "},"Ŕ":{"ha":878,"x_min":61,"x_max":872,"o":"m 69 0 l 61 54 q 151 82 135 67 q 167 140 167 97 l 167 822 q 151 881 167 865 q 61 908 135 896 l 69 963 l 456 963 q 676 901 604 963 q 749 736 749 840 q 692 555 749 632 q 532 443 635 478 l 532 436 q 563 406 546 432 l 758 111 q 799 69 779 81 q 872 54 819 58 l 864 0 l 667 0 l 392 422 l 301 422 l 301 107 q 329 71 301 76 l 406 54 l 400 0 l 69 0 m 301 493 l 378 493 q 544 541 488 493 q 600 717 600 589 q 413 889 600 889 l 329 889 q 301 856 301 889 l 301 493 m 611 1199 l 600 1169 l 321 1040 l 286 1090 l 528 1269 l 611 1199 z "},"ŕ":{"ha":600,"x_min":39,"x_max":567,"o":"m 56 0 l 47 54 q 138 82 121 67 q 154 133 154 97 l 154 533 q 135 585 154 569 q 39 613 117 601 l 47 657 l 236 675 q 257 647 246 675 q 268 590 268 619 q 263 521 268 560 l 274 517 l 292 557 q 367 645 317 613 q 470 678 418 678 q 567 656 522 678 q 546 428 567 542 l 478 421 q 456 553 467 538 q 419 569 444 569 q 358 547 393 569 q 301 498 324 524 q 279 414 279 472 l 279 100 q 287 77 279 82 q 307 71 294 72 l 433 54 l 428 0 l 56 0 m 507 1021 l 507 989 l 296 779 l 247 814 l 396 1063 l 507 1021 z "},"Ŗ":{"ha":878,"x_min":61,"x_max":872,"o":"m 69 0 l 61 54 q 151 82 135 67 q 167 140 167 97 l 167 822 q 151 881 167 865 q 61 908 135 896 l 69 963 l 456 963 q 676 901 604 963 q 749 736 749 840 q 692 555 749 632 q 532 443 635 478 l 532 436 q 563 406 546 432 l 758 111 q 799 69 779 81 q 872 54 819 58 l 864 0 l 667 0 l 392 422 l 301 422 l 301 107 q 329 71 301 76 l 406 54 l 400 0 l 69 0 m 301 493 l 378 493 q 544 541 488 493 q 600 717 600 589 q 413 889 600 889 l 329 889 q 301 856 301 889 l 301 493 m 418 -292 l 382 -257 q 444 -175 444 -212 q 428 -130 444 -153 q 413 -84 413 -107 q 431 -45 413 -61 q 478 -29 450 -29 q 527 -52 507 -29 q 547 -117 547 -75 q 515 -208 547 -160 q 418 -292 482 -257 z "},"ŗ":{"ha":600,"x_min":39,"x_max":567,"o":"m 56 0 l 47 54 q 138 82 121 67 q 154 133 154 97 l 154 533 q 135 585 154 569 q 39 613 117 601 l 47 657 l 236 675 q 257 647 246 675 q 268 590 268 619 q 263 521 268 560 l 274 517 l 292 557 q 367 645 317 613 q 470 678 418 678 q 567 656 522 678 q 546 428 567 542 l 478 421 q 456 553 467 538 q 419 569 444 569 q 358 547 393 569 q 301 498 324 524 q 279 414 279 472 l 279 100 q 287 77 279 82 q 307 71 294 72 l 433 54 l 428 0 l 56 0 m 164 -292 l 128 -257 q 190 -175 190 -214 q 174 -130 190 -153 q 158 -84 158 -107 q 177 -45 158 -61 q 224 -29 196 -29 q 273 -52 253 -29 q 293 -117 293 -75 q 260 -208 293 -160 q 164 -292 228 -257 z "},"Ř":{"ha":878,"x_min":61,"x_max":872,"o":"m 69 0 l 61 54 q 151 82 135 67 q 167 140 167 97 l 167 822 q 151 881 167 865 q 61 908 135 896 l 69 963 l 456 963 q 676 901 604 963 q 749 736 749 840 q 692 555 749 632 q 532 443 635 478 l 532 436 q 563 406 546 432 l 758 111 q 799 69 779 81 q 872 54 819 58 l 864 0 l 667 0 l 392 422 l 301 422 l 301 107 q 329 71 301 76 l 406 54 l 400 0 l 69 0 m 301 493 l 378 493 q 544 541 488 493 q 600 717 600 589 q 413 889 600 889 l 329 889 q 301 856 301 889 l 301 493 m 211 1274 l 404 1147 l 597 1274 l 632 1238 l 443 1044 l 365 1044 l 176 1238 l 211 1274 z "},"ř":{"ha":600,"x_min":39,"x_max":567,"o":"m 56 0 l 47 54 q 138 82 121 67 q 154 133 154 97 l 154 533 q 135 585 154 569 q 39 613 117 601 l 47 657 l 236 675 q 257 647 246 675 q 268 590 268 619 q 263 521 268 560 l 274 517 l 292 557 q 367 645 317 613 q 470 678 418 678 q 567 656 522 678 q 546 428 567 542 l 478 421 q 456 553 467 538 q 419 569 444 569 q 358 547 393 569 q 301 498 324 524 q 279 414 279 472 l 279 100 q 287 77 279 82 q 307 71 294 72 l 433 54 l 428 0 l 56 0 m 228 786 l 64 1021 l 113 1056 l 272 892 l 431 1056 l 479 1021 l 315 786 l 228 786 z "},"Ś":{"ha":726,"x_min":49,"x_max":664,"o":"m 183 114 q 260 81 207 97 q 381 65 314 65 q 492 106 447 65 q 536 214 536 146 q 417 386 536 319 q 322 428 386 401 q 232 469 258 456 q 170 506 206 482 q 115 556 135 531 q 67 701 67 615 q 160 901 67 828 q 404 975 254 975 q 618 938 518 975 q 622 849 622 904 q 607 703 622 794 l 526 693 q 489 868 511 850 q 367 897 456 897 q 231 862 279 897 q 182 758 182 826 q 197 689 182 719 q 253 632 213 658 q 317 594 293 606 q 414 550 351 576 q 511 504 476 524 q 586 453 546 485 q 664 264 664 388 q 576 64 664 140 q 335 -12 488 -12 q 172 8 253 -12 q 53 47 90 28 q 49 126 49 64 q 65 278 49 189 l 144 282 q 163 153 156 182 q 183 114 171 124 m 594 1199 l 583 1169 l 304 1040 l 269 1090 l 511 1269 l 594 1199 z "},"ś":{"ha":607,"x_min":76,"x_max":539,"o":"m 311 604 q 189 521 189 604 q 206 472 189 488 q 230 448 222 456 q 260 429 238 440 q 291 413 282 418 q 328 397 300 408 q 492 306 444 349 q 539 183 539 263 q 469 46 539 104 q 276 -12 399 -12 q 164 -1 222 -12 q 79 21 106 10 q 76 94 76 39 q 89 215 76 150 l 161 221 q 176 112 171 132 q 190 86 181 92 q 307 61 235 61 q 419 151 419 61 q 386 222 419 194 q 300 274 349 253 q 126 370 172 326 q 79 492 79 414 q 150 624 79 569 q 321 678 221 678 q 504 643 421 678 q 506 581 506 632 q 488 472 506 529 l 424 465 q 392 589 414 574 q 311 604 371 604 m 528 1021 l 528 989 l 317 779 l 268 814 l 417 1063 l 528 1021 z "},"Ŝ":{"ha":726,"x_min":49,"x_max":664,"o":"m 183 114 q 260 81 207 97 q 381 65 314 65 q 492 106 447 65 q 536 214 536 146 q 417 386 536 319 q 322 428 386 401 q 232 469 258 456 q 170 506 206 482 q 115 556 135 531 q 67 701 67 615 q 160 901 67 828 q 404 975 254 975 q 618 938 518 975 q 622 849 622 904 q 607 703 622 794 l 526 693 q 489 868 511 850 q 367 897 456 897 q 231 862 279 897 q 182 758 182 826 q 197 689 182 719 q 253 632 213 658 q 317 594 293 606 q 414 550 351 576 q 511 504 476 524 q 586 453 546 485 q 664 264 664 388 q 576 64 664 140 q 335 -12 488 -12 q 172 8 253 -12 q 53 47 90 28 q 49 126 49 64 q 65 278 49 189 l 144 282 q 163 153 156 182 q 183 114 171 124 m 572 1040 l 379 1167 l 186 1040 l 151 1076 l 340 1269 l 418 1269 l 607 1076 l 572 1040 z "},"ŝ":{"ha":607,"x_min":76,"x_max":539,"o":"m 311 604 q 189 521 189 604 q 206 472 189 488 q 230 448 222 456 q 260 429 238 440 q 291 413 282 418 q 328 397 300 408 q 492 306 444 349 q 539 183 539 263 q 469 46 539 104 q 276 -12 399 -12 q 164 -1 222 -12 q 79 21 106 10 q 76 94 76 39 q 89 215 76 150 l 161 221 q 176 112 171 132 q 190 86 181 92 q 307 61 235 61 q 419 151 419 61 q 386 222 419 194 q 300 274 349 253 q 126 370 172 326 q 79 492 79 414 q 150 624 79 569 q 321 678 221 678 q 504 643 421 678 q 506 581 506 632 q 488 472 506 529 l 424 465 q 392 589 414 574 q 311 604 371 604 m 364 1049 l 528 814 l 479 779 l 319 943 l 161 779 l 113 814 l 276 1049 l 364 1049 z "},"Ş":{"ha":726,"x_min":49,"x_max":664,"o":"m 286 -301 l 281 -258 q 377 -230 342 -251 q 413 -182 413 -208 q 396 -140 413 -156 q 348 -125 379 -125 q 292 -139 317 -125 l 279 -124 l 313 -12 q 172 8 242 -10 q 53 47 90 28 q 49 126 49 64 q 65 278 49 189 l 144 282 q 163 153 156 182 q 183 114 171 124 q 260 81 207 97 q 381 65 314 65 q 492 106 447 65 q 536 214 536 146 q 417 386 536 319 q 322 428 386 401 q 232 469 258 456 q 170 506 206 482 q 115 556 135 531 q 67 701 67 615 q 160 901 67 828 q 404 975 254 975 q 618 938 518 975 q 622 849 622 904 q 607 703 622 794 l 526 693 q 489 868 511 850 q 367 897 456 897 q 231 862 279 897 q 182 758 182 826 q 197 689 182 719 q 253 632 213 658 q 317 594 293 606 q 414 550 351 576 q 511 504 476 524 q 586 453 546 485 q 664 264 664 388 q 575 64 664 140 q 386 -10 503 1 l 371 -67 q 419 -62 393 -62 q 495 -86 464 -62 q 526 -151 526 -110 q 462 -253 526 -210 q 286 -301 397 -296 z "},"ş":{"ha":607,"x_min":76,"x_max":539,"o":"m 311 604 q 189 521 189 604 q 206 472 189 488 q 230 448 222 456 q 260 429 238 440 q 291 413 282 418 q 328 397 300 408 q 492 306 444 349 q 539 183 539 263 q 469 46 539 104 q 276 -12 399 -12 q 164 -1 222 -12 q 79 21 106 10 q 76 94 76 39 q 89 215 76 150 l 161 221 q 176 112 171 132 q 190 86 181 92 q 307 61 235 61 q 419 151 419 61 q 386 222 419 194 q 300 274 349 253 q 126 370 172 326 q 79 492 79 414 q 150 624 79 569 q 321 678 221 678 q 504 643 421 678 q 506 581 506 632 q 488 472 506 529 l 424 465 q 392 589 414 574 q 311 604 371 604 m 222 -301 l 217 -258 q 349 -178 349 -240 q 332 -140 349 -156 q 284 -125 315 -125 q 228 -139 253 -125 l 215 -124 l 268 56 l 336 38 l 307 -67 q 356 -62 329 -62 q 431 -86 400 -62 q 463 -151 463 -110 q 398 -253 463 -210 q 222 -301 333 -296 z "},"Š":{"ha":726,"x_min":49,"x_max":664,"o":"m 183 114 q 260 81 207 97 q 381 65 314 65 q 492 106 447 65 q 536 214 536 146 q 417 386 536 319 q 322 428 386 401 q 232 469 258 456 q 170 506 206 482 q 115 556 135 531 q 67 701 67 615 q 160 901 67 828 q 404 975 254 975 q 618 938 518 975 q 622 849 622 904 q 607 703 622 794 l 526 693 q 489 868 511 850 q 367 897 456 897 q 231 862 279 897 q 182 758 182 826 q 197 689 182 719 q 253 632 213 658 q 317 594 293 606 q 414 550 351 576 q 511 504 476 524 q 586 453 546 485 q 664 264 664 388 q 576 64 664 140 q 335 -12 488 -12 q 172 8 253 -12 q 53 47 90 28 q 49 126 49 64 q 65 278 49 189 l 144 282 q 163 153 156 182 q 183 114 171 124 m 197 1274 l 390 1147 l 583 1274 l 618 1238 l 429 1044 l 351 1044 l 163 1238 l 197 1274 z "},"š":{"ha":607,"x_min":76,"x_max":539,"o":"m 311 604 q 189 521 189 604 q 206 472 189 488 q 230 448 222 456 q 260 429 238 440 q 291 413 282 418 q 328 397 300 408 q 492 306 444 349 q 539 183 539 263 q 469 46 539 104 q 276 -12 399 -12 q 164 -1 222 -12 q 79 21 106 10 q 76 94 76 39 q 89 215 76 150 l 161 221 q 176 112 171 132 q 190 86 181 92 q 307 61 235 61 q 419 151 419 61 q 386 222 419 194 q 300 274 349 253 q 126 370 172 326 q 79 492 79 414 q 150 624 79 569 q 321 678 221 678 q 504 643 421 678 q 506 581 506 632 q 488 472 506 529 l 424 465 q 392 589 414 574 q 311 604 371 604 m 260 786 l 96 1021 l 144 1056 l 304 892 l 463 1056 l 511 1021 l 347 786 l 260 786 z "},"Ť":{"ha":801,"x_min":10,"x_max":792,"o":"m 207 54 q 314 83 294 68 q 333 140 333 97 l 333 890 q 142 882 154 888 q 122 869 129 876 q 82 713 106 847 l 11 718 q 10 799 10 739 q 22 963 10 860 l 779 963 q 792 799 792 860 q 790 718 792 739 l 719 713 q 678 869 696 847 q 660 882 672 876 q 468 890 647 888 l 468 107 q 496 71 468 75 l 603 54 l 597 0 l 215 0 l 207 54 m 207 1274 l 400 1147 l 593 1274 l 628 1238 l 439 1044 l 361 1044 l 172 1238 l 207 1274 z "},"ť":{"ha":486,"x_min":22,"x_max":467,"o":"m 118 190 l 118 572 l 28 572 l 22 632 l 90 649 q 126 680 117 656 q 158 835 135 704 l 243 843 l 243 657 l 436 657 l 425 592 l 243 571 l 243 232 q 332 88 243 88 q 438 129 382 88 l 467 89 q 283 -12 392 -12 q 162 42 206 -12 q 118 190 118 96 m 440 1075 l 457 1049 q 367 801 444 915 l 308 821 q 328 951 328 894 q 322 1044 328 1007 l 440 1075 z "},"Ŧ":{"ha":801,"x_min":10,"x_max":792,"o":"m 88 478 l 88 551 l 333 551 l 333 890 q 142 882 154 888 q 122 869 129 876 q 82 713 106 847 l 11 718 q 10 799 10 739 q 22 963 10 860 l 779 963 q 792 799 792 860 q 790 718 792 739 l 719 713 q 678 869 696 847 q 660 882 672 876 q 468 890 647 888 l 468 551 l 714 551 l 714 478 l 468 478 l 468 107 q 496 71 468 75 l 603 54 l 597 0 l 215 0 l 207 54 q 314 83 294 68 q 333 140 333 97 l 333 478 l 88 478 z "},"ŧ":{"ha":486,"x_min":22,"x_max":467,"o":"m 25 350 l 25 424 l 118 424 l 118 572 l 28 572 l 22 632 l 90 649 q 126 680 117 656 q 158 835 135 704 l 243 843 l 243 657 l 436 657 l 425 592 l 243 571 l 243 424 l 432 424 l 432 350 l 243 350 l 243 232 q 332 88 243 88 q 438 129 382 88 l 467 89 q 283 -12 392 -12 q 162 42 206 -12 q 118 190 118 96 l 118 350 l 25 350 z "},"Ũ":{"ha":1022,"x_min":54,"x_max":1004,"o":"m 797 796 q 774 878 797 857 q 664 908 751 899 l 672 963 l 999 963 l 1004 908 l 918 892 q 892 872 893 886 q 890 856 890 867 l 890 357 q 797 87 890 186 q 518 -12 704 -12 q 160 346 160 -12 l 160 822 q 144 881 160 865 q 54 908 128 896 l 63 963 l 403 963 l 408 908 l 322 892 q 294 856 294 886 l 294 367 q 353 153 294 225 q 542 81 411 81 q 735 158 674 81 q 797 346 797 236 l 797 796 m 750 1238 l 785 1221 q 726 1119 756 1157 q 665 1081 696 1081 q 541 1099 633 1081 q 415 1118 449 1118 q 315 1071 363 1118 l 283 1093 q 360 1197 328 1167 q 424 1226 392 1226 q 545 1208 456 1226 q 669 1189 635 1189 q 750 1238 704 1189 z "},"ũ":{"ha":801,"x_min":22,"x_max":769,"o":"m 128 172 l 128 539 q 106 581 128 568 q 22 607 83 594 l 31 651 q 238 671 179 671 l 253 657 l 253 232 q 363 88 253 88 q 510 142 433 88 q 533 166 528 154 q 539 206 539 178 l 539 539 q 517 581 539 568 q 433 607 494 594 l 442 651 q 649 671 590 671 l 664 657 l 664 138 q 681 87 664 101 q 769 58 699 72 l 761 14 l 582 -6 q 562 31 572 -7 q 551 97 551 69 l 551 106 l 540 110 l 524 90 q 310 -12 436 -12 q 176 33 225 -12 q 128 172 128 78 m 617 993 l 651 975 q 592 867 622 907 q 531 826 563 826 q 408 856 500 826 q 282 885 315 885 q 182 826 229 885 l 150 850 q 226 960 194 928 q 290 992 258 992 q 412 963 322 992 q 535 933 501 933 q 617 993 569 933 z "},"Ū":{"ha":1022,"x_min":54,"x_max":1004,"o":"m 797 796 q 774 878 797 857 q 664 908 751 899 l 672 963 l 999 963 l 1004 908 l 918 892 q 892 872 893 886 q 890 856 890 867 l 890 357 q 797 87 890 186 q 518 -12 704 -12 q 160 346 160 -12 l 160 822 q 144 881 160 865 q 54 908 128 896 l 63 963 l 403 963 l 408 908 l 322 892 q 294 856 294 886 l 294 367 q 353 153 294 225 q 542 81 411 81 q 735 158 674 81 q 797 346 797 236 l 797 796 m 349 1078 l 349 1161 l 694 1161 l 694 1078 l 349 1078 z "},"ū":{"ha":801,"x_min":22,"x_max":769,"o":"m 128 172 l 128 539 q 106 581 128 568 q 22 607 83 594 l 31 651 q 238 671 179 671 l 253 657 l 253 232 q 363 88 253 88 q 510 142 433 88 q 533 166 528 154 q 539 206 539 178 l 539 539 q 517 581 539 568 q 433 607 494 594 l 442 651 q 649 671 590 671 l 664 657 l 664 138 q 681 87 664 101 q 769 58 699 72 l 761 14 l 582 -6 q 562 31 572 -7 q 551 97 551 69 l 551 106 l 540 110 l 524 90 q 310 -12 436 -12 q 176 33 225 -12 q 128 172 128 78 m 211 892 l 211 975 l 557 975 l 557 892 l 211 892 z "},"Ŭ":{"ha":1022,"x_min":54,"x_max":1004,"o":"m 797 796 q 774 878 797 857 q 664 908 751 899 l 672 963 l 999 963 l 1004 908 l 918 892 q 892 872 893 886 q 890 856 890 867 l 890 357 q 797 87 890 186 q 518 -12 704 -12 q 160 346 160 -12 l 160 822 q 144 881 160 865 q 54 908 128 896 l 63 963 l 403 963 l 408 908 l 322 892 q 294 856 294 886 l 294 367 q 353 153 294 225 q 542 81 411 81 q 735 158 674 81 q 797 346 797 236 l 797 796 m 682 1250 l 733 1250 q 676 1110 728 1164 q 526 1056 625 1056 q 376 1110 428 1056 q 319 1250 325 1164 l 371 1250 q 526 1150 394 1150 q 682 1250 658 1150 z "},"ŭ":{"ha":801,"x_min":22,"x_max":769,"o":"m 128 172 l 128 539 q 106 581 128 568 q 22 607 83 594 l 31 651 q 238 671 179 671 l 253 657 l 253 232 q 363 88 253 88 q 510 142 433 88 q 533 166 528 154 q 539 206 539 178 l 539 539 q 517 581 539 568 q 433 607 494 594 l 442 651 q 649 671 590 671 l 664 657 l 664 138 q 681 87 664 101 q 769 58 699 72 l 761 14 l 582 -6 q 562 31 572 -7 q 551 97 551 69 l 551 106 l 540 110 l 524 90 q 310 -12 436 -12 q 176 33 225 -12 q 128 172 128 78 m 542 1000 l 593 1000 q 536 847 588 907 q 386 788 485 788 q 236 847 288 788 q 179 1000 185 907 l 231 1000 q 386 882 254 882 q 542 1000 518 882 z "},"Ů":{"ha":1022,"x_min":54,"x_max":1004,"o":"m 797 796 q 774 878 797 857 q 664 908 751 899 l 672 963 l 999 963 l 1004 908 l 918 892 q 892 872 893 886 q 890 856 890 867 l 890 357 q 797 87 890 186 q 518 -12 704 -12 q 160 346 160 -12 l 160 822 q 144 881 160 865 q 54 908 128 896 l 63 963 l 403 963 l 408 908 l 322 892 q 294 856 294 886 l 294 367 q 353 153 294 225 q 542 81 411 81 q 735 158 674 81 q 797 346 797 236 l 797 796 m 656 1154 q 656 1126 656 1154 q 615 1063 656 1099 q 516 1026 574 1026 q 420 1059 458 1026 q 382 1149 382 1092 q 423 1241 382 1206 q 521 1276 464 1276 q 617 1243 578 1276 q 656 1154 656 1210 m 450 1149 q 468 1103 450 1119 q 516 1086 486 1086 q 566 1106 546 1086 q 586 1154 586 1125 q 568 1200 586 1183 q 522 1217 550 1217 q 450 1149 450 1217 z "},"ů":{"ha":801,"x_min":22,"x_max":769,"o":"m 128 172 l 128 539 q 106 581 128 568 q 22 607 83 594 l 31 651 q 238 671 179 671 l 253 657 l 253 232 q 363 88 253 88 q 510 142 433 88 q 533 166 528 154 q 539 206 539 178 l 539 539 q 517 581 539 568 q 433 607 494 594 l 442 651 q 649 671 590 671 l 664 657 l 664 138 q 681 87 664 101 q 769 58 699 72 l 761 14 l 582 -6 q 562 31 572 -7 q 551 97 551 69 l 551 106 l 540 110 l 524 90 q 310 -12 436 -12 q 176 33 225 -12 q 128 172 128 78 m 506 919 q 506 889 506 919 q 469 821 506 858 q 367 783 432 783 q 267 817 301 783 q 232 914 232 851 q 269 1013 232 976 q 371 1049 306 1049 q 471 1015 436 1049 q 506 919 506 981 m 365 843 q 417 865 399 843 q 436 921 436 886 q 372 989 436 989 q 319 968 339 989 q 300 913 300 947 q 365 843 300 843 z "},"Ű":{"ha":1022,"x_min":54,"x_max":1004,"o":"m 797 796 q 774 878 797 857 q 664 908 751 899 l 672 963 l 999 963 l 1004 908 l 918 892 q 892 872 893 886 q 890 856 890 867 l 890 357 q 797 87 890 186 q 518 -12 704 -12 q 160 346 160 -12 l 160 822 q 144 881 160 865 q 54 908 128 896 l 63 963 l 403 963 l 408 908 l 322 892 q 294 856 294 886 l 294 367 q 353 153 294 225 q 542 81 411 81 q 735 158 674 81 q 797 346 797 236 l 797 796 m 893 1229 l 893 1197 l 647 1043 l 599 1078 l 761 1271 l 893 1229 m 618 1229 l 618 1197 l 372 1043 l 324 1078 l 486 1271 l 618 1229 z "},"ű":{"ha":801,"x_min":22,"x_max":769,"o":"m 128 172 l 128 539 q 106 581 128 568 q 22 607 83 594 l 31 651 q 238 671 179 671 l 253 657 l 253 232 q 363 88 253 88 q 510 142 433 88 q 533 166 528 154 q 539 206 539 178 l 539 539 q 517 581 539 568 q 433 607 494 594 l 442 651 q 649 671 590 671 l 664 657 l 664 138 q 681 87 664 101 q 769 58 699 72 l 761 14 l 582 -6 q 562 31 572 -7 q 551 97 551 69 l 551 106 l 540 110 l 524 90 q 310 -12 436 -12 q 176 33 225 -12 q 128 172 128 78 m 703 1021 l 703 989 l 471 779 l 422 814 l 571 1063 l 703 1021 m 428 1021 l 428 989 l 196 779 l 147 814 l 296 1063 l 428 1021 z "},"Ų":{"ha":1022,"x_min":54,"x_max":1004,"o":"m 797 796 q 774 878 797 857 q 664 908 751 899 l 672 963 l 999 963 l 1004 908 l 918 892 q 892 872 893 886 q 890 856 890 867 l 890 357 q 797 86 890 186 q 651 3 742 26 q 550 -56 586 -19 q 510 -137 510 -94 q 531 -200 510 -179 q 591 -221 553 -221 q 669 -207 629 -221 l 686 -235 q 533 -299 615 -299 q 438 -260 479 -299 q 397 -160 397 -222 q 461 -44 397 -99 q 507 -12 481 -26 q 160 346 160 -7 l 160 822 q 144 881 160 865 q 54 908 128 896 l 63 963 l 403 963 l 408 908 l 322 892 q 294 856 294 886 l 294 367 q 353 153 294 225 q 542 81 411 81 q 735 158 674 81 q 797 346 797 236 l 797 796 z "},"ų":{"ha":801,"x_min":22,"x_max":772,"o":"m 128 172 l 128 539 q 106 581 128 568 q 22 607 83 594 l 31 651 q 238 671 179 671 l 253 657 l 253 232 q 363 88 253 88 q 510 142 433 88 q 533 166 528 154 q 539 206 539 178 l 539 539 q 517 581 539 568 q 433 607 494 594 l 442 651 q 649 671 590 671 l 664 657 l 664 138 q 681 87 664 101 q 769 58 699 72 l 761 14 l 731 11 q 644 -33 681 1 q 596 -146 596 -79 q 617 -201 596 -182 q 677 -221 639 -221 q 756 -207 715 -221 l 772 -235 q 619 -299 701 -299 q 524 -263 565 -299 q 483 -174 483 -228 q 558 -19 483 -89 q 578 -4 568 -11 q 561 31 569 1 q 551 97 551 69 l 551 106 l 540 110 l 524 90 q 310 -12 436 -12 q 176 33 225 -12 q 128 172 128 78 z "},"Ŵ":{"ha":1292,"x_min":-6,"x_max":1301,"o":"m 821 -12 l 671 493 q 664 529 664 514 l 653 529 q 644 493 653 514 l 476 -12 l 378 -12 l 88 847 q 63 885 78 876 q -6 907 47 894 l 4 963 l 314 963 l 319 906 l 242 879 q 232 872 232 878 q 238 849 232 865 l 431 225 q 443 178 443 181 l 457 178 l 617 683 l 568 847 q 559 872 564 864 q 542 888 554 881 q 485 907 525 896 l 494 963 l 788 963 l 793 906 l 694 879 q 685 872 685 878 q 690 849 685 865 l 874 225 q 886 178 886 182 l 900 178 l 1094 790 q 1110 858 1110 842 q 1003 907 1110 889 l 1011 963 l 1296 963 l 1301 904 q 1228 878 1244 892 q 1199 826 1211 864 l 921 -12 l 821 -12 m 839 1040 l 646 1167 l 453 1040 l 418 1076 l 607 1269 l 685 1269 l 874 1076 l 839 1040 z "},"ŵ":{"ha":1047,"x_min":11,"x_max":1044,"o":"m 288 -12 l 86 553 q 67 586 76 579 q 11 603 57 593 l 19 657 l 276 657 l 282 603 l 221 583 q 211 574 211 582 q 217 556 211 572 l 344 156 q 350 122 350 142 l 350 117 l 361 117 q 372 158 361 132 l 499 474 l 472 553 q 455 585 464 578 q 411 603 446 593 l 419 657 l 647 657 l 653 603 l 592 583 q 582 574 582 582 q 588 556 582 572 l 714 156 q 719 122 719 139 l 719 117 l 731 117 q 742 158 731 125 l 868 521 q 876 551 876 543 q 876 562 876 558 q 872 569 875 565 q 867 574 869 572 q 860 579 865 576 q 852 584 856 582 q 842 589 849 586 q 830 593 835 592 q 817 598 825 594 q 803 603 808 601 l 811 657 l 1039 657 l 1044 603 q 990 588 1000 592 q 979 579 981 585 l 749 -12 l 658 -12 l 544 338 q 538 375 538 358 l 526 375 q 518 339 526 360 l 378 -12 l 288 -12 m 571 1049 l 735 814 l 686 779 l 526 943 l 368 779 l 319 814 l 483 1049 l 571 1049 z "},"Ŷ":{"ha":831,"x_min":7,"x_max":832,"o":"m 443 501 l 597 800 q 626 868 626 856 q 609 888 626 881 q 543 907 592 896 l 551 963 l 826 963 l 832 904 q 747 877 771 892 q 707 829 724 863 l 488 399 l 488 107 q 515 71 488 75 l 622 54 l 617 0 l 235 0 l 226 54 q 333 83 314 68 q 353 140 353 97 l 353 388 l 103 847 q 70 887 85 878 q 7 907 56 896 l 17 963 l 343 963 l 349 906 l 256 881 q 246 872 246 879 q 256 849 246 865 l 415 542 q 429 501 429 518 l 443 501 m 628 1040 l 435 1167 l 242 1040 l 207 1076 l 396 1269 l 474 1269 l 663 1076 l 628 1040 z "},"ŷ":{"ha":694,"x_min":6,"x_max":701,"o":"m 40 -162 q 133 -167 74 -167 q 226 -152 192 -167 q 310 0 261 -137 l 79 553 q 59 586 68 579 q 6 603 50 593 l 14 657 l 300 657 l 306 603 l 221 582 q 211 571 211 581 q 217 553 211 569 l 358 182 q 365 139 365 163 l 376 139 l 524 521 q 532 558 532 543 q 512 582 532 572 q 440 603 492 592 l 449 657 l 696 657 l 701 603 q 636 579 640 589 l 417 35 q 372 -72 389 -35 q 326 -154 356 -108 q 265 -225 297 -200 q 74 -304 186 -285 q 38 -190 38 -268 q 40 -162 38 -182 m 415 1049 l 579 814 l 531 779 l 371 943 l 213 779 l 164 814 l 328 1049 l 415 1049 z "},"Ÿ":{"ha":831,"x_min":7,"x_max":832,"o":"m 443 501 l 597 800 q 626 868 626 856 q 609 888 626 881 q 543 907 592 896 l 551 963 l 826 963 l 832 904 q 747 877 771 892 q 707 829 724 863 l 488 399 l 488 107 q 515 71 488 75 l 622 54 l 617 0 l 235 0 l 226 54 q 333 83 314 68 q 353 140 353 97 l 353 388 l 103 847 q 70 887 85 878 q 7 907 56 896 l 17 963 l 343 963 l 349 906 l 256 881 q 246 872 246 879 q 256 849 246 865 l 415 542 q 429 501 429 518 l 443 501 m 575 1076 q 503 1154 503 1076 q 523 1207 503 1185 q 575 1229 543 1229 q 649 1154 649 1229 q 628 1099 649 1122 q 575 1076 607 1076 m 307 1076 q 235 1154 235 1076 q 255 1207 235 1185 q 307 1229 275 1229 q 381 1154 381 1229 q 360 1099 381 1122 q 307 1076 339 1076 z "},"Ź":{"ha":843,"x_min":49,"x_max":796,"o":"m 167 708 l 79 718 q 76 835 76 776 q 89 963 76 894 l 796 963 l 796 926 l 265 113 q 235 81 247 86 l 238 72 l 446 72 q 626 82 593 72 q 704 296 649 89 l 781 289 q 782 192 782 265 q 767 0 782 119 l 49 0 l 49 36 l 578 850 q 608 882 596 876 l 606 892 l 472 892 q 224 883 282 892 q 167 708 203 882 m 632 1199 l 621 1169 l 342 1040 l 307 1090 l 549 1269 l 632 1199 z "},"ź":{"ha":615,"x_min":39,"x_max":575,"o":"m 39 0 l 39 36 l 390 544 q 421 576 413 572 l 418 586 l 260 586 q 168 582 206 586 q 151 562 158 581 q 125 465 144 543 l 61 472 q 58 561 58 517 q 67 657 58 606 l 575 657 l 575 618 l 228 113 q 197 81 210 86 l 200 71 l 268 72 q 443 81 417 75 q 500 219 469 88 l 572 214 q 557 0 569 103 l 39 0 m 519 1021 l 519 989 l 308 779 l 260 814 l 408 1063 l 519 1021 z "},"Ž":{"ha":843,"x_min":49,"x_max":796,"o":"m 167 708 l 79 718 q 76 835 76 776 q 89 963 76 894 l 796 963 l 796 926 l 265 113 q 235 81 247 86 l 238 72 l 446 72 q 626 82 593 72 q 704 296 649 89 l 781 289 q 782 192 782 265 q 767 0 782 119 l 49 0 l 49 36 l 578 850 q 608 882 596 876 l 606 892 l 472 892 q 224 883 282 892 q 167 708 203 882 m 257 1274 l 450 1147 l 643 1274 l 678 1238 l 489 1044 l 411 1044 l 222 1238 l 257 1274 z "},"ž":{"ha":615,"x_min":39,"x_max":575,"o":"m 39 0 l 39 36 l 390 544 q 421 576 413 572 l 418 586 l 260 586 q 168 582 206 586 q 151 562 158 581 q 125 465 144 543 l 61 472 q 58 561 58 517 q 67 657 58 606 l 575 657 l 575 618 l 228 113 q 197 81 210 86 l 200 71 l 268 72 q 443 81 417 75 q 500 219 469 88 l 572 214 q 557 0 569 103 l 39 0 m 268 786 l 104 1021 l 153 1056 l 313 892 l 471 1056 l 519 1021 l 356 786 l 268 786 z "},"ſ":{"ha":486,"x_min":63,"x_max":588,"o":"m 588 1040 q 569 872 588 935 l 496 865 q 463 985 474 978 q 404 999 440 999 q 285 647 285 999 l 285 100 q 290 80 285 86 q 315 71 296 74 l 419 54 l 414 0 l 71 0 l 63 54 q 145 83 131 68 q 160 133 160 97 l 160 563 l 69 563 l 64 622 l 132 639 q 156 654 150 643 q 163 692 161 665 q 167 743 164 718 q 179 819 171 768 q 206 910 188 871 q 253 989 225 949 q 429 1072 311 1072 q 588 1040 504 1072 z "},"ƒ":{"ha":486,"x_min":-115,"x_max":560,"o":"m 542 886 l 468 879 q 447 964 453 947 q 435 985 442 981 q 383 999 413 999 q 285 647 285 999 l 449 647 l 438 582 l 285 561 l 285 165 q 222 -187 285 -64 q 152 -270 199 -236 q 37 -304 106 -304 q -115 -272 -32 -304 q -97 -118 -115 -174 l -24 -111 q -3 -196 -8 -179 q 10 -217 3 -212 q 61 -231 32 -231 q 160 121 160 -231 l 160 563 l 69 563 l 64 622 l 132 639 q 156 654 150 643 q 163 692 161 665 q 167 743 164 719 q 178 819 169 767 q 202 909 186 871 q 243 988 218 947 q 401 1072 296 1072 q 560 1040 476 1072 q 542 886 560 942 z "},"Ǧ":{"ha":946,"x_min":49,"x_max":914,"o":"m 815 51 q 683 8 769 28 q 506 -12 596 -12 q 164 121 279 -12 q 49 460 49 254 q 114 742 49 618 q 343 944 190 888 q 519 975 428 975 q 696 961 611 975 q 807 936 781 947 q 815 828 815 885 q 813 703 815 772 l 733 692 q 679 869 703 853 q 615 890 667 879 q 511 901 563 901 q 281 789 358 901 q 203 493 203 676 q 301 171 203 276 q 546 65 400 65 q 681 88 622 65 l 681 281 q 665 339 681 324 q 575 367 649 354 l 583 421 l 908 421 l 914 367 l 843 350 q 815 314 815 344 l 815 51 m 296 1274 l 489 1147 l 682 1274 l 717 1238 l 528 1044 l 450 1044 l 261 1238 l 296 1274 z "},"ǧ":{"ha":769,"x_min":76,"x_max":726,"o":"m 222 -33 q 183 -126 183 -76 q 225 -206 183 -176 q 367 -235 267 -235 q 524 -193 468 -235 q 579 -110 579 -151 q 533 -59 579 -68 q 388 -49 488 -50 q 222 -33 289 -47 m 103 85 q 144 192 103 140 q 211 257 174 228 q 172 281 190 267 q 103 448 103 336 q 179 619 103 560 q 369 678 256 678 q 538 635 471 678 q 713 681 628 678 q 726 624 726 657 q 722 579 726 592 q 624 590 675 590 q 586 590 603 590 q 625 454 625 538 q 549 284 625 343 q 358 225 472 225 q 246 242 294 225 q 204 146 204 192 q 251 96 204 104 q 345 89 293 89 q 426 88 397 89 q 499 83 454 88 q 569 69 543 79 q 622 44 594 60 q 674 -58 674 15 q 574 -231 674 -158 q 304 -304 474 -304 q 76 -174 76 -304 q 103 -92 76 -126 q 182 -21 131 -58 q 103 85 103 4 m 368 293 q 497 451 497 293 q 360 610 497 610 q 231 451 231 610 q 368 293 231 293 m 303 786 l 139 1021 l 188 1056 l 347 892 l 506 1056 l 554 1021 l 390 786 l 303 786 z "},"ȷ":{"ha":389,"x_min":-74,"x_max":264,"o":"m 139 94 l 139 532 q 117 574 139 561 q 33 600 94 588 l 42 644 q 249 664 190 664 l 264 650 l 264 53 q 186 -191 264 -78 q 36 -304 108 -304 q -69 -294 -14 -304 q -74 -249 -74 -278 q -50 -181 -74 -219 q 34 -194 6 -194 q 76 -185 63 -194 q 122 -85 106 -165 q 139 94 139 -6 z "},"ʼ":{"ha":151,"x_min":0,"x_max":138,"o":"m 33 774 l 0 806 q 46 922 46 860 q 27 965 46 942 q 8 1011 8 989 q 26 1049 8 1033 q 67 1064 43 1064 q 138 959 138 1064 q 33 774 138 854 z "},"ˆ":{"ha":415,"x_min":0,"x_max":415,"o":"m 251 1049 l 415 814 l 367 779 l 207 943 l 49 779 l 0 814 l 164 1049 l 251 1049 z "},"ˇ":{"ha":415,"x_min":0,"x_max":415,"o":"m 164 786 l 0 1021 l 49 1056 l 208 892 l 367 1056 l 415 1021 l 251 786 l 164 786 z "},"˘":{"ha":711,"x_min":125,"x_max":539,"o":"m 488 1000 l 539 1000 q 482 847 533 907 q 332 788 431 788 q 182 847 233 788 q 125 1000 131 907 l 176 1000 q 332 882 200 882 q 488 1000 464 882 z "},"˙":{"ha":433,"x_min":121,"x_max":281,"o":"m 281 911 q 259 853 281 876 q 202 829 238 829 q 144 850 167 829 q 121 908 121 871 q 142 967 121 944 q 201 989 164 989 q 281 911 281 989 z "},"˚":{"ha":719,"x_min":185,"x_max":458,"o":"m 458 919 q 458 889 458 919 q 422 821 458 858 q 319 783 385 783 q 219 817 254 783 q 185 914 185 851 q 222 1013 185 976 q 324 1049 258 1049 q 424 1015 389 1049 q 458 919 458 981 m 318 843 q 370 865 351 843 q 389 921 389 886 q 325 989 389 989 q 272 968 292 989 q 253 913 253 947 q 318 843 253 843 z "},"˛":{"ha":861,"x_min":336,"x_max":625,"o":"m 625 -235 q 472 -299 554 -299 q 376 -260 417 -299 q 336 -154 336 -222 q 398 -22 336 -86 q 596 111 460 43 l 613 81 q 489 -29 529 21 q 449 -143 449 -79 q 470 -200 449 -179 q 531 -221 492 -221 q 608 -207 569 -221 l 625 -235 z "},"˜":{"ha":501,"x_min":0,"x_max":501,"o":"m 467 993 l 501 975 q 442 867 472 907 q 381 826 413 826 q 258 856 350 826 q 132 885 165 885 q 32 826 79 885 l 0 850 q 76 960 44 928 q 140 992 108 992 q 262 963 172 992 q 385 933 351 933 q 467 993 419 933 z "},"˝":{"ha":550,"x_min":-6,"x_max":550,"o":"m 550 1021 l 550 989 l 318 779 l 269 814 l 418 1063 l 550 1021 m 275 1021 l 275 989 l 43 779 l -6 814 l 143 1063 l 275 1021 z "},"̇":{"ha":433,"x_min":121,"x_max":281,"o":"m 281 911 q 259 853 281 876 q 202 829 238 829 q 144 850 167 829 q 121 908 121 871 q 142 967 121 944 q 201 989 164 989 q 281 911 281 989 z "},"̈":{"ha":319,"x_min":-47,"x_max":367,"o":"m 293 1076 q 221 1154 221 1076 q 241 1207 221 1185 q 293 1229 261 1229 q 367 1154 367 1229 q 346 1099 367 1122 q 293 1076 325 1076 m 25 1076 q -47 1154 -47 1076 q -27 1207 -47 1185 q 25 1229 -7 1229 q 99 1154 99 1229 q 78 1099 99 1122 q 25 1076 57 1076 z "},"·":{"ha":322,"x_min":81,"x_max":240,"o":"m 240 546 q 218 488 240 513 q 161 464 196 464 q 103 485 126 464 q 81 542 81 506 q 103 601 81 578 q 160 624 125 624 q 240 546 240 624 z "},"π":{"ha":828,"x_min":32,"x_max":763,"o":"m 692 72 l 699 18 q 556 -12 604 -12 q 475 86 475 -12 q 503 550 475 213 l 313 550 q 288 250 307 425 q 250 0 268 75 l 89 0 l 81 54 q 156 92 138 67 q 219 549 200 157 q 142 544 144 546 q 123 523 131 542 q 99 433 115 504 l 35 440 q 32 545 32 485 q 40 657 32 606 l 563 657 q 646 664 624 657 q 697 771 668 671 l 761 765 q 763 724 763 753 q 740 551 763 628 l 596 551 q 578 242 578 374 q 585 89 578 110 q 628 68 593 68 q 692 72 664 68 z "},"–":{"ha":694,"x_min":-3,"x_max":697,"o":"m 14 376 l 697 376 l 681 303 l -3 303 l 14 376 z "},"—":{"ha":1389,"x_min":-3,"x_max":1392,"o":"m 14 376 l 1392 376 l 1375 303 l -3 303 l 14 376 z "},"‘":{"ha":299,"x_min":58,"x_max":231,"o":"m 193 1064 l 231 1028 q 165 881 165 950 q 188 828 165 856 q 210 776 210 801 q 188 732 210 750 q 135 714 167 714 q 81 741 103 714 q 58 824 58 768 q 92 947 58 881 q 193 1064 126 1013 z "},"’":{"ha":299,"x_min":68,"x_max":240,"o":"m 106 714 l 68 750 q 133 897 133 828 q 111 949 133 922 q 89 1002 89 976 q 110 1046 89 1028 q 164 1064 132 1064 q 218 1037 196 1064 q 240 953 240 1010 q 206 831 240 897 q 106 714 172 765 z "},"‚":{"ha":325,"x_min":76,"x_max":249,"o":"m 114 -193 l 76 -157 q 142 -10 142 -79 q 119 42 142 15 q 97 95 97 69 q 119 139 97 121 q 172 157 140 157 q 226 130 204 157 q 249 47 249 103 q 215 -76 249 -10 q 114 -193 181 -142 z "},"“":{"ha":564,"x_min":58,"x_max":496,"o":"m 458 1064 l 496 1028 q 431 881 431 950 q 453 828 431 856 q 475 776 475 801 q 453 732 475 750 q 400 714 432 714 q 346 741 368 714 q 324 824 324 768 q 358 947 324 881 q 458 1064 392 1013 m 193 1064 l 231 1028 q 165 881 165 950 q 188 828 165 856 q 210 776 210 801 q 188 732 210 750 q 135 714 167 714 q 81 741 103 714 q 58 824 58 768 q 92 947 58 881 q 193 1064 126 1013 z "},"”":{"ha":564,"x_min":68,"x_max":506,"o":"m 371 714 l 333 750 q 399 897 399 828 q 376 949 399 922 q 354 1002 354 976 q 376 1046 354 1028 q 429 1064 397 1064 q 483 1037 461 1064 q 506 953 506 1010 q 472 831 506 897 q 371 714 438 765 m 106 714 l 68 750 q 133 897 133 828 q 111 949 133 922 q 89 1002 89 976 q 110 1046 89 1028 q 164 1064 132 1064 q 218 1037 196 1064 q 240 953 240 1010 q 206 831 240 897 q 106 714 172 765 z "},"„":{"ha":590,"x_min":76,"x_max":514,"o":"m 379 -193 l 342 -157 q 407 -10 407 -79 q 385 42 407 15 q 363 95 363 69 q 384 139 363 121 q 438 157 406 157 q 492 130 469 157 q 514 47 514 103 q 480 -76 514 -10 q 379 -193 446 -142 m 114 -193 l 76 -157 q 142 -10 142 -79 q 119 42 142 15 q 97 95 97 69 q 119 139 97 121 q 172 157 140 157 q 226 130 204 157 q 249 47 249 103 q 215 -76 249 -10 q 114 -193 181 -142 z "},"†":{"ha":706,"x_min":49,"x_max":657,"o":"m 374 -304 l 318 -304 l 276 232 l 310 494 q 328 558 317 543 l 315 574 q 251 554 289 561 l 96 526 l 49 651 l 74 671 l 249 638 q 313 619 304 626 l 328 632 q 308 696 313 664 l 281 936 l 406 983 l 425 958 l 392 699 q 374 635 383 647 l 389 618 q 451 639 428 635 l 613 667 l 657 542 l 633 522 l 453 556 q 389 574 399 567 l 372 558 q 393 496 390 515 l 421 253 l 374 -304 z "},"‡":{"ha":706,"x_min":49,"x_max":657,"o":"m 49 128 l 74 147 l 249 114 q 313 96 304 103 l 328 108 q 308 172 314 135 l 279 329 l 310 494 q 328 558 321 549 l 315 574 q 251 554 289 561 l 96 526 l 49 651 l 74 671 l 249 638 q 313 619 304 626 l 328 632 q 308 696 313 664 l 281 936 l 406 983 l 425 958 l 392 699 q 374 635 383 647 l 389 618 q 451 639 428 635 l 613 667 l 657 542 l 633 522 l 453 556 q 389 574 399 567 l 372 558 q 393 496 389 519 l 424 351 l 392 175 q 374 111 383 124 l 389 94 q 451 115 428 111 l 613 143 l 657 18 l 633 -1 l 453 32 q 389 50 399 43 l 372 35 q 393 -28 390 -8 l 421 -260 l 296 -304 l 276 -281 l 310 -29 q 328 35 317 19 l 315 50 q 251 31 289 36 l 96 3 l 49 128 z "},"•":{"ha":476,"x_min":56,"x_max":421,"o":"m 421 364 q 421 322 421 364 q 371 228 421 281 q 240 176 321 176 q 107 222 158 176 q 56 348 56 267 q 105 481 56 429 q 236 532 154 532 q 369 490 318 532 q 421 364 421 447 z "},"…":{"ha":1194,"x_min":132,"x_max":1063,"o":"m 1063 74 q 1039 13 1063 38 q 978 -12 1015 -12 q 917 9 940 -12 q 893 69 893 31 q 916 132 893 107 q 976 157 939 157 q 1063 74 1063 157 m 682 74 q 658 13 682 38 q 597 -12 635 -12 q 536 9 560 -12 q 513 69 513 31 q 535 132 513 107 q 596 157 558 157 q 682 74 682 157 m 301 74 q 278 13 301 38 q 217 -12 254 -12 q 156 9 179 -12 q 132 69 132 31 q 155 132 132 107 q 215 157 178 157 q 301 74 301 157 z "},"‰":{"ha":1649,"x_min":35,"x_max":1614,"o":"m 818 963 l 908 963 l 289 0 l 197 0 l 818 963 m 1614 282 q 1614 222 1614 282 q 1549 75 1614 163 q 1378 -12 1485 -12 q 1210 69 1271 -12 q 1150 270 1150 150 q 1215 478 1150 390 q 1386 565 1279 565 q 1553 483 1493 565 q 1614 282 1614 401 m 1500 256 q 1466 440 1500 374 q 1375 506 1432 506 q 1264 288 1264 506 q 1298 108 1264 168 q 1390 47 1332 47 q 1500 256 1500 47 m 1088 282 q 1088 222 1088 282 q 1023 75 1088 163 q 851 -12 958 -12 q 684 69 744 -12 q 624 270 624 150 q 688 478 624 390 q 860 565 753 565 q 1027 483 967 565 q 1088 282 1088 401 m 974 256 q 940 440 974 374 q 850 506 906 506 q 738 288 738 506 q 772 108 738 168 q 864 47 806 47 q 974 256 974 47 m 499 692 q 499 632 499 692 q 434 485 499 572 q 263 397 369 397 q 95 478 156 397 q 35 680 35 560 q 99 888 35 800 q 271 975 164 975 q 438 893 378 975 q 499 692 499 811 m 385 665 q 351 849 385 783 q 261 915 317 915 q 149 697 149 915 q 183 517 149 578 q 275 457 217 457 q 385 665 385 457 z "},"‹":{"ha":394,"x_min":83,"x_max":339,"o":"m 339 575 l 193 350 l 339 108 l 310 86 l 83 339 l 83 361 l 310 597 l 339 575 z "},"›":{"ha":394,"x_min":56,"x_max":311,"o":"m 201 350 l 56 575 l 85 597 l 311 361 l 311 339 l 85 86 l 56 108 l 201 350 z "},"⁂":{"ha":1071,"x_min":35,"x_max":1036,"o":"m 572 1033 l 585 1017 l 563 858 q 551 817 557 825 l 561 811 q 589 843 569 828 l 707 931 l 772 875 l 765 857 l 618 796 q 576 785 592 785 l 576 774 q 617 767 601 774 l 751 708 l 736 624 l 717 621 l 590 718 q 560 749 564 740 l 550 743 q 564 703 563 718 l 582 557 l 500 528 l 488 543 l 510 701 q 521 743 515 735 l 511 749 q 482 717 503 731 l 365 629 l 299 685 l 306 703 l 454 763 q 496 774 481 774 l 496 785 q 454 793 478 785 l 319 850 l 335 936 l 354 939 l 481 840 q 511 810 507 818 l 521 815 q 508 857 510 838 l 490 1003 l 572 1033 m 308 564 l 321 547 l 299 389 q 288 347 293 356 l 297 342 q 325 374 306 358 l 443 461 l 508 406 l 501 388 l 354 326 q 313 315 328 315 l 313 304 q 353 297 338 304 l 488 239 l 472 154 l 453 151 l 326 249 q 296 279 300 271 l 286 274 q 300 233 299 249 l 318 88 l 236 58 l 224 74 l 246 232 q 257 274 251 265 l 247 279 q 218 247 239 261 l 101 160 l 35 215 l 42 233 l 190 293 q 232 304 217 304 l 232 315 q 190 324 214 315 l 56 381 l 71 467 l 90 469 l 217 371 q 247 340 243 349 l 257 346 q 244 388 246 368 l 226 533 l 308 564 m 836 564 l 849 547 l 826 389 q 815 347 821 356 l 825 342 q 853 374 833 358 l 971 461 l 1036 406 l 1029 388 l 882 326 q 840 315 856 315 l 840 304 q 881 297 865 304 l 1015 239 l 1000 154 l 981 151 l 854 249 q 824 279 828 271 l 814 274 q 828 233 826 249 l 846 88 l 764 58 l 751 74 l 774 232 q 785 274 779 265 l 775 279 q 746 247 767 261 l 629 160 l 563 215 l 569 233 l 718 293 q 760 304 744 304 l 760 315 q 718 324 742 315 l 583 381 l 599 467 l 618 469 l 744 371 q 775 340 771 349 l 785 346 q 772 388 774 368 l 754 533 l 836 564 z "},"⁄":{"ha":63,"x_min":-328,"x_max":383,"o":"m 293 963 l 383 963 l -236 0 l -328 0 l 293 963 z "},"€":{"ha":813,"x_min":14,"x_max":756,"o":"m 535 511 l 14 511 l 14 582 l 117 582 q 239 863 143 751 q 510 975 335 975 q 642 961 572 975 q 735 936 713 947 q 743 828 743 885 q 740 703 743 772 l 661 692 q 607 869 631 853 q 560 890 599 879 q 486 901 522 901 q 334 815 389 901 q 267 582 279 729 l 535 582 l 535 511 m 14 413 l 535 413 l 535 342 l 274 342 q 365 133 299 201 q 521 65 432 65 q 591 78 558 65 q 632 100 624 90 q 679 278 649 113 l 756 275 q 740 50 756 169 q 631 7 704 26 q 481 -12 557 -12 q 233 85 324 -12 q 117 342 142 182 l 14 342 l 14 413 z "},"№":{"ha":1353,"x_min":21,"x_max":1290,"o":"m 29 0 l 21 54 q 110 82 94 67 q 126 140 126 97 l 126 822 q 110 881 126 865 q 21 908 94 896 l 29 963 l 279 963 l 594 393 q 618 342 618 349 l 629 342 l 629 794 q 606 878 629 857 q 496 908 583 899 l 504 963 l 821 963 l 826 908 l 740 892 q 713 856 713 886 l 713 0 l 649 -12 l 244 721 q 221 772 222 760 l 210 772 l 210 139 q 223 88 210 104 q 271 67 236 71 l 368 54 l 363 0 l 29 0 m 1290 655 q 1290 597 1290 655 q 1228 468 1290 539 q 1055 397 1165 397 q 885 463 944 397 q 826 645 826 528 q 889 833 826 763 q 1061 903 951 903 q 1231 837 1171 903 q 1290 655 1290 771 m 1176 632 q 1176 681 1176 632 q 1144 784 1176 729 q 1055 839 1111 839 q 976 810 999 839 q 939 668 939 765 q 972 515 939 571 q 1060 460 1004 460 q 1142 490 1117 460 q 1176 632 1176 535 m 829 243 l 829 317 l 1288 317 l 1288 243 l 829 243 z "},"℞":{"ha":906,"x_min":61,"x_max":933,"o":"m 69 0 l 61 54 q 151 82 135 67 q 167 140 167 97 l 167 822 q 151 881 167 865 q 61 908 135 896 l 69 963 l 458 963 q 749 729 749 963 q 702 581 749 657 q 575 461 656 506 l 685 294 l 744 371 q 753 386 753 378 q 710 411 753 401 l 715 447 l 890 447 l 896 411 q 843 396 851 404 l 717 246 l 806 111 q 848 71 819 83 q 933 54 876 58 l 925 0 l 708 0 l 617 140 l 564 78 q 558 61 558 68 q 600 36 558 46 l 594 0 l 418 0 l 415 36 q 469 50 461 44 l 586 186 l 432 422 l 301 422 l 301 107 q 329 71 301 79 l 378 54 l 372 0 l 69 0 m 415 889 l 324 889 q 301 856 301 886 l 301 493 l 378 493 q 544 541 488 493 q 600 717 600 589 q 415 889 600 889 z "},"™":{"ha":1418,"x_min":42,"x_max":1369,"o":"m 975 597 l 981 575 l 990 575 q 994 592 990 579 l 1140 965 l 1340 965 l 1344 921 l 1288 911 q 1271 893 1271 908 l 1271 889 l 1296 461 q 1314 440 1299 443 l 1369 431 l 1365 386 l 1113 386 l 1108 431 q 1163 447 1151 438 q 1174 475 1174 456 l 1174 482 l 1164 826 q 1167 858 1164 842 l 1158 860 l 996 431 l 915 431 l 765 831 q 761 854 761 842 l 754 854 l 736 486 q 745 449 736 458 q 768 438 754 440 l 808 431 l 806 386 l 613 386 l 607 431 q 666 447 656 440 q 678 478 676 453 l 701 869 q 692 904 703 896 q 635 921 681 913 l 639 965 l 835 965 l 975 597 m 153 431 q 219 448 207 439 q 232 482 232 457 l 232 911 l 185 911 q 132 908 142 911 q 118 896 122 906 q 96 826 114 886 l 42 832 q 61 965 42 906 l 521 965 q 542 832 539 911 l 489 826 q 464 896 468 886 q 451 908 460 906 q 399 911 442 911 l 350 911 l 350 461 q 368 440 350 443 l 435 431 l 432 386 l 160 386 l 153 431 z "},"Ω":{"ha":997,"x_min":49,"x_max":949,"o":"m 878 238 l 949 231 q 888 0 935 104 l 560 0 l 546 44 q 701 293 646 174 q 756 559 756 413 q 685 803 756 706 q 483 901 615 901 q 338 850 396 901 q 257 726 279 799 q 235 580 235 653 q 245 455 235 507 q 267 366 256 403 q 307 277 279 329 q 350 201 335 225 q 453 44 435 71 l 439 0 l 110 0 q 49 231 65 104 l 119 238 q 172 134 158 154 q 199 113 185 114 q 288 107 238 107 l 324 107 l 328 117 q 288 143 306 125 q 128 358 175 256 q 81 572 81 460 q 194 865 81 756 q 502 975 307 975 q 803 875 697 975 q 910 604 910 775 q 707 147 910 368 q 664 117 689 128 l 668 107 l 711 107 q 800 113 761 107 q 827 135 814 114 q 878 238 840 156 z "},"℮":{"ha":1154,"x_min":28,"x_max":1126,"o":"m 1126 467 l 236 467 q 229 460 229 467 l 229 192 q 240 160 229 175 q 576 14 386 14 q 773 58 681 14 q 931 178 865 101 l 1011 178 q 822 39 938 90 q 575 -12 707 -12 q 188 132 349 -12 q 28 481 28 276 q 188 830 28 685 q 576 975 349 975 q 965 830 804 975 q 1126 479 1126 685 l 1126 467 m 924 503 l 924 772 q 911 804 924 792 q 577 944 768 944 q 243 801 386 944 q 229 767 229 788 l 229 503 q 236 493 229 493 l 918 493 q 924 503 924 493 z "},"←":{"ha":1072,"x_min":61,"x_max":1011,"o":"m 417 122 l 61 479 l 61 500 l 417 857 l 472 801 l 249 578 q 197 532 211 540 l 199 526 l 1011 526 l 1011 453 l 199 453 l 197 447 q 249 401 214 436 l 472 178 l 417 122 z "},"↑":{"ha":861,"x_min":64,"x_max":801,"o":"m 446 963 l 801 608 l 744 556 l 519 779 q 481 828 490 808 l 475 826 l 475 0 l 390 0 l 390 826 l 385 828 q 346 779 371 804 l 121 556 l 64 608 l 419 963 l 446 963 z "},"→":{"ha":1072,"x_min":61,"x_max":1011,"o":"m 1011 479 l 656 122 l 600 178 l 824 401 q 875 447 858 436 l 874 453 l 61 453 l 61 526 l 874 526 l 875 532 q 824 578 861 540 l 600 801 l 656 857 l 1011 500 l 1011 479 z "},"↓":{"ha":861,"x_min":60,"x_max":797,"o":"m 797 354 l 442 0 l 415 0 l 60 354 l 117 407 l 342 183 q 381 135 367 158 l 386 136 l 386 963 l 471 963 l 471 136 l 476 135 q 515 183 486 154 l 740 407 l 797 354 z "},"∂":{"ha":703,"x_min":29,"x_max":667,"o":"m 44 872 q 285 975 138 975 q 565 835 463 975 q 667 496 667 696 q 503 67 667 217 q 297 -14 417 -14 q 103 60 176 -14 q 29 264 29 135 q 116 489 29 393 q 315 585 203 585 q 514 517 426 585 q 456 806 514 711 q 310 901 399 901 q 238 881 272 901 q 189 844 204 861 q 147 794 174 828 q 95 822 126 800 q 44 872 64 843 m 164 232 q 201 108 164 158 q 299 58 239 58 q 403 101 360 58 q 467 208 446 144 q 506 424 506 329 q 445 488 488 463 q 347 513 403 513 q 244 461 290 513 q 164 232 164 369 z "},"∆":{"ha":890,"x_min":65,"x_max":821,"o":"m 399 975 l 494 975 l 821 58 l 821 0 l 65 0 l 65 56 l 399 975 m 414 815 l 158 74 l 661 74 l 432 775 q 424 815 424 800 l 414 815 z "},"∏":{"ha":946,"x_min":61,"x_max":893,"o":"m 301 843 l 301 14 q 329 -22 301 -17 l 415 -39 l 410 -93 l 69 -93 l 61 -39 q 151 -11 135 -26 q 167 47 167 4 l 167 822 q 151 881 167 865 q 61 908 135 896 l 69 963 l 888 963 l 893 908 l 807 892 q 779 856 779 886 l 779 14 q 807 -22 779 -17 l 893 -39 l 888 -93 l 547 -93 l 539 -39 q 628 -11 613 -26 q 644 47 644 4 l 644 810 q 628 867 644 854 q 539 879 611 879 l 326 879 q 301 843 301 879 z "},"∑":{"ha":843,"x_min":58,"x_max":750,"o":"m 675 186 l 747 179 q 750 110 750 135 q 728 -93 750 -26 l 58 -93 l 58 -47 l 394 396 l 58 926 l 58 963 l 722 963 q 735 835 735 894 q 732 718 735 776 l 644 708 q 588 883 608 882 q 382 892 529 892 l 249 892 l 246 882 q 276 850 258 876 l 529 451 l 199 14 l 501 14 q 618 19 568 14 q 642 49 632 21 q 675 186 653 78 z "},"−":{"ha":647,"x_min":63,"x_max":585,"o":"m 63 339 l 63 413 l 585 413 l 585 339 l 63 339 z "},"√":{"ha":819,"x_min":35,"x_max":803,"o":"m 526 -137 l 499 -146 l 171 531 q 132 560 158 557 q 47 546 106 563 l 35 590 q 214 697 153 667 l 233 690 l 497 136 l 506 139 l 735 1249 l 803 1236 l 526 -137 z "},"∞":{"ha":1054,"x_min":72,"x_max":982,"o":"m 743 178 q 511 311 594 178 q 288 178 421 178 q 136 233 200 178 q 72 392 72 288 q 140 561 72 496 q 311 626 207 626 q 543 493 460 626 q 767 626 633 626 q 918 572 854 626 q 982 413 982 517 q 915 243 982 308 q 743 178 847 178 m 635 343 q 646 327 635 343 q 692 285 657 311 q 775 258 728 258 q 861 300 822 258 q 900 406 900 342 q 865 512 900 469 q 769 554 829 554 q 660 519 708 554 q 582 431 611 483 q 635 343 613 375 m 420 460 q 409 476 420 460 q 363 519 399 492 q 280 546 326 546 q 194 504 233 546 q 154 400 154 463 q 194 294 154 338 q 300 250 235 250 q 472 374 408 250 q 420 460 442 429 z "},"∫":{"ha":531,"x_min":11,"x_max":519,"o":"m 321 817 l 335 158 q 261 -80 335 31 q 121 -190 188 -190 q 15 -181 71 -190 q 11 -133 11 -164 q 35 -67 11 -103 q 122 -81 89 -81 q 175 -71 154 -81 q 210 176 210 -33 l 196 838 q 269 1076 196 967 q 410 1186 343 1186 q 515 1176 460 1186 q 519 1128 519 1160 q 496 1063 519 1097 q 408 1076 442 1076 q 356 1067 374 1076 q 321 817 321 1025 z "},"≈":{"ha":647,"x_min":28,"x_max":621,"o":"m 572 589 l 621 556 q 558 467 582 496 q 471 417 518 417 q 421 424 446 417 q 325 458 396 432 q 231 492 254 485 q 182 500 207 500 q 76 432 138 500 l 28 465 q 106 574 74 543 q 172 604 139 604 q 228 597 206 604 q 400 535 251 590 q 463 521 439 521 q 507 531 488 521 q 538 553 526 542 q 572 589 549 564 m 572 381 l 621 347 q 558 258 582 288 q 471 208 518 208 q 421 216 446 208 q 325 250 396 224 q 231 284 254 276 q 182 292 207 292 q 76 224 138 292 l 28 257 q 106 365 74 335 q 172 396 139 396 q 228 389 206 396 q 400 326 251 382 q 463 313 439 313 q 507 323 488 313 q 538 344 526 333 q 572 381 549 356 z "},"≠":{"ha":647,"x_min":63,"x_max":585,"o":"m 63 431 l 63 504 l 354 504 l 447 685 l 524 657 l 444 504 l 585 504 l 585 431 l 407 431 l 346 314 l 585 314 l 585 240 l 308 240 l 215 60 l 140 88 l 219 240 l 63 240 l 63 314 l 257 314 l 317 431 l 63 431 z "},"≤":{"ha":647,"x_min":63,"x_max":585,"o":"m 63 435 l 63 539 l 583 835 l 583 739 l 140 486 l 583 236 l 583 140 l 63 435 m 63 0 l 63 71 l 585 71 l 585 0 l 63 0 z "},"≥":{"ha":647,"x_min":63,"x_max":585,"o":"m 585 539 l 585 435 l 64 140 l 64 236 l 507 486 l 64 739 l 64 835 l 585 539 m 585 71 l 585 0 l 63 0 l 63 71 l 585 71 z "},"■":{"ha":1389,"x_min":113,"x_max":1276,"o":"m 1276 1164 l 1276 0 l 113 0 l 113 1164 l 1276 1164 z "},"□":{"ha":1389,"x_min":113,"x_max":1276,"o":"m 1276 1164 l 1276 0 l 113 0 l 113 1164 l 1276 1164 m 1193 83 l 1193 1081 l 196 1081 l 196 83 l 1193 83 z "},"◊":{"ha":686,"x_min":31,"x_max":667,"o":"m 281 1072 l 400 1072 l 667 490 l 400 -93 l 281 -93 l 31 490 l 281 1072 m 339 -4 l 560 490 l 339 983 l 138 490 l 339 -4 z "},"◌":{"ha":694,"x_min":0,"x_max":689,"o":"m 522 557 q 374 614 454 606 l 374 674 q 565 596 482 665 l 522 557 m 168 557 l 124 596 q 315 674 210 665 l 315 614 q 168 557 233 606 m 628 368 q 565 514 622 451 l 607 557 q 689 368 678 475 l 628 368 m 60 368 l 0 368 q 81 557 8 472 l 122 513 q 60 368 71 453 m 689 313 q 613 117 681 197 l 569 158 q 628 313 622 232 l 689 313 m 76 117 q 0 313 8 197 l 60 313 q 118 160 65 229 l 76 117 m 569 76 q 374 -6 479 3 l 374 54 q 529 117 456 60 l 569 76 m 315 -6 q 118 76 208 3 l 157 117 q 315 54 231 60 l 315 -6 z "},"ﬀ":{"ha":953,"x_min":63,"x_max":1054,"o":"m 751 561 l 751 100 q 758 78 751 83 q 779 71 765 74 l 847 54 l 842 0 l 538 0 l 529 54 q 612 83 597 68 q 626 133 626 97 l 626 569 q 285 561 374 569 l 285 100 q 290 80 285 86 q 315 71 296 74 l 406 54 l 400 0 l 71 0 l 63 54 q 145 83 131 68 q 160 133 160 97 l 160 563 l 69 563 l 64 622 l 132 639 q 156 654 150 643 q 163 693 161 665 q 171 754 165 721 q 195 841 176 788 q 242 933 214 894 q 319 1001 269 972 q 438 1031 369 1031 q 588 1000 507 1031 q 568 846 588 914 l 500 838 q 467 942 479 935 q 410 957 451 957 q 315 870 344 957 q 285 647 285 783 l 585 647 q 619 660 611 647 q 629 696 628 672 q 633 738 631 719 q 642 799 635 757 q 659 872 649 840 q 690 944 669 904 q 738 1010 711 983 q 885 1072 800 1072 q 1054 1040 971 1072 q 1036 872 1054 935 l 963 865 q 929 985 940 978 q 871 999 907 999 q 751 647 751 999 l 915 647 l 904 582 l 751 561 z "},"ﬁ":{"ha":917,"x_min":63,"x_max":861,"o":"m 551 0 l 543 54 q 626 83 611 68 q 640 133 640 97 l 640 532 q 617 575 640 563 q 533 588 594 588 q 285 571 471 588 l 285 100 q 290 80 285 86 q 315 71 296 74 l 406 54 l 400 0 l 71 0 l 63 54 q 145 83 131 68 q 160 133 160 97 l 160 563 l 69 563 l 64 622 l 132 639 q 156 654 150 643 q 163 689 161 665 q 167 736 164 713 q 181 801 171 760 q 206 876 192 842 q 247 947 221 910 q 308 1011 274 985 q 504 1072 386 1072 q 692 1042 589 1072 q 668 874 692 947 l 593 865 q 560 983 572 978 q 468 999 529 999 q 331 899 376 999 q 285 657 285 799 l 449 657 q 647 660 544 657 q 750 664 749 664 l 765 650 l 765 100 q 773 78 765 83 q 793 71 781 74 l 861 54 l 856 0 l 551 0 z "},"ﬂ":{"ha":907,"x_min":63,"x_max":851,"o":"m 631 940 q 515 1003 631 1003 q 342 909 400 1003 q 285 647 285 815 l 449 647 l 438 582 l 285 561 l 285 100 q 290 80 285 86 q 315 71 296 74 l 406 54 l 400 0 l 71 0 l 63 54 q 145 83 131 68 q 160 133 160 97 l 160 563 l 69 563 l 64 622 l 132 639 q 156 654 150 643 q 165 715 161 665 q 190 827 169 764 q 254 948 211 890 q 376 1039 297 1006 q 553 1072 454 1072 q 732 1060 651 1072 l 756 1024 l 756 100 q 763 78 756 83 q 783 71 769 74 l 851 54 l 846 0 l 542 0 l 533 54 q 616 83 601 68 q 631 133 631 97 l 631 940 z "},"ﬃ":{"ha":1383,"x_min":63,"x_max":1328,"o":"m 1018 0 l 1010 54 q 1092 83 1078 68 q 1107 133 1107 97 l 1107 532 q 1084 575 1107 563 q 999 588 1061 588 q 751 571 938 588 l 751 100 q 758 78 751 83 q 779 71 765 74 l 872 54 l 867 0 l 538 0 l 529 54 q 612 83 597 68 q 626 133 626 97 l 626 579 q 285 571 374 579 l 285 100 q 290 80 285 86 q 315 71 296 74 l 406 54 l 400 0 l 71 0 l 63 54 q 145 83 131 68 q 160 133 160 97 l 160 563 l 69 563 l 64 622 l 132 639 q 156 654 150 643 q 163 693 161 665 q 171 754 165 721 q 195 841 176 788 q 242 933 214 894 q 319 1001 269 972 q 438 1031 369 1031 q 588 1000 507 1031 q 568 846 588 914 l 500 838 q 467 942 479 935 q 410 957 451 957 q 315 873 344 957 q 285 657 285 789 l 585 657 q 621 669 613 657 q 632 715 629 682 q 643 785 635 747 q 675 879 651 824 q 733 974 699 935 q 830 1043 768 1014 q 974 1072 892 1072 q 1158 1042 1056 1072 q 1135 874 1158 947 l 1060 865 q 1026 983 1039 978 q 935 999 996 999 q 797 899 843 999 q 751 657 751 799 l 915 657 q 1113 660 1011 657 q 1217 664 1215 664 l 1232 650 l 1232 100 q 1239 78 1232 83 q 1260 71 1246 74 l 1328 54 l 1322 0 l 1018 0 z "},"ﬄ":{"ha":1374,"x_min":63,"x_max":1318,"o":"m 1097 940 q 982 1003 1097 1003 q 809 909 867 1003 q 751 647 751 815 l 915 647 l 904 582 l 751 561 l 751 100 q 758 78 751 83 q 779 71 765 74 l 872 54 l 867 0 l 538 0 l 529 54 q 612 83 597 68 q 626 133 626 97 l 626 569 q 285 561 374 569 l 285 100 q 290 80 285 86 q 315 71 296 74 l 406 54 l 400 0 l 71 0 l 63 54 q 145 83 131 68 q 160 133 160 97 l 160 563 l 69 563 l 64 622 l 132 639 q 156 654 150 643 q 163 693 161 665 q 171 754 165 721 q 195 841 176 788 q 242 933 214 894 q 319 1001 269 972 q 438 1031 369 1031 q 588 1000 507 1031 q 568 846 588 914 l 500 838 q 466 942 481 928 q 410 957 451 957 q 315 870 344 957 q 285 647 285 783 l 585 647 q 619 659 610 647 q 629 694 628 671 q 1028 1072 675 1072 q 1199 1060 1118 1072 l 1222 1024 l 1222 100 q 1229 78 1222 83 q 1250 71 1236 74 l 1318 54 l 1313 0 l 1008 0 l 1000 54 q 1083 83 1068 68 q 1097 133 1097 97 l 1097 940 z "}}}
